<?xml version="1.0" encoding="utf-8"?>
<!-- Generator: Adobe Illustrator 24.1.1, SVG Export Plug-In . SVG Version: 6.00 Build 0)  -->
<svg version="1.1" xmlns="http://www.w3.org/2000/svg" xmlns:xlink="http://www.w3.org/1999/xlink" x="0px" y="0px"
	 viewBox="0 0 437.6 443.3" style="enable-background:new 0 0 437.6 443.3;" xml:space="preserve">
<style type="text/css">
	.st0{fill:#EDF8FD;}
	.st1{fill:#2E9AD6;}
	.st2{fill:#4C5156;}
</style>
<g id="colour">
	
		<ellipse transform="matrix(0.7071 -0.7071 0.7071 0.7071 -92.5194 219.1213)" class="st0" cx="218.2" cy="221.2" rx="211.5" ry="211.5"/>
	<g>
		<path class="st1" d="M235.8,274.8V110.4c0-2.3-1.9-4.1-4.1-4.1h-0.1c-2.3,0-4.1,1.9-4.1,4.1v164.5c-12.4,2.2-21.8,13-21.8,26.1
			c0,14.6,11.9,26.5,26.5,26.5c14.6,0,26.5-11.9,26.5-26.5C258.6,287.6,248.7,276.6,235.8,274.8z"/>
	</g>
</g>
<g id="OBJECT">
	<path class="st2" d="M206.8,146c0,38.2,0,76.4,0,114.6c-17,11.4-24.9,32-19.5,52c5.4,19.7,24.1,33.1,44.2,33.8
		c20.4,0.6,38.4-13.3,45-32.2c6.9-20-1.9-42-19-53.5c0-48.9,0-97.9,0-146.8c0-6.6,0.6-13.5-0.6-20c-3.7-19.7-33.2-22.4-44.8-9.1
		c-6.1,7-5.3,15.9-5.3,24.4C206.8,121.4,206.8,133.7,206.8,146z M213.9,262.5c0-6.5,0-12.9,0-19.4c0-30.5,0-61,0-91.5
		c0-13.1,0-26.1,0-39.2c0-7.4-1.2-16,3-22.4c4.8-7.3,18.4-8,25.7-4.3c5.6,2.9,7.8,8.7,7.8,14.6c0,8.7,0,17.3,0,26
		c0,31.3,0,62.6,0,93.8c0,14.2,0,28.3,0,42.5c0,1.2,0.4,2,1.1,2.6c0.2,0.2,0.4,0.3,0.6,0.5c22.3,13.6,25.8,44.3,7.3,62.7
		c-17.7,17.5-47.4,12.7-60.6-7.5c-6.8-10.4-7.7-23.4-3.6-34.9c2-5.7,5.6-10.7,9.9-14.8C207.3,268.7,213.9,266.2,213.9,262.5z"/>
	<path class="st2" d="M264.8,140.4c5.3,0,10.5,0,15.8,0c3.8,0,3.8-5.9,0-5.9c-5.3,0-10.5,0-15.8,0C261,134.5,261,140.4,264.8,140.4z
		"/>
	<path class="st2" d="M264.8,175.5c5.3,0,10.5,0,15.8,0c3.8,0,3.8-5.9,0-5.9c-5.3,0-10.5,0-15.8,0C261,169.6,261,175.5,264.8,175.5z
		"/>
	<path class="st2" d="M264.8,213.7c5.3,0,10.5,0,15.8,0c3.8,0,3.8-5.9,0-5.9c-5.3,0-10.5,0-15.8,0C261,207.8,261,213.7,264.8,213.7z
		"/>
	<path class="st2" d="M114.1,109.5c5.5-1.3,11-2.5,16.4-3.8c0.3-0.1,0.5-0.2,0.7-0.3c7.1,4.4,14.2,8.9,21.2,13.3
		c-7,4.6-14.1,9.2-21.1,13.8c-0.1,0-0.2-0.1-0.3-0.1c-5.5-1.1-11-2.3-16.5-3.4c-3.6-0.7-5.1,4.7-1.5,5.5c3.9,0.8,7.8,1.6,11.7,2.4
		c-3,2-6,3.9-9,5.9c-3,2-0.2,6.9,2.9,4.9c3.1-2,6.2-4.1,9.4-6.1c-0.8,3.8-1.6,7.6-2.4,11.3c-0.7,3.6,4.7,5.1,5.5,1.5
		c1.1-5.4,2.3-10.8,3.4-16.2c0.1-0.3,0.1-0.6,0-0.9c6.7-4.4,13.4-8.8,20.1-13.2c0,7.8,0,15.6,0,23.5c-0.1,0.1-0.3,0.2-0.4,0.3
		c-4,4-8,8-11.9,11.9c-2.6,2.6,1.4,6.6,4,4c2.8-2.8,5.5-5.5,8.3-8.3c0,3.6,0,7.2,0,10.8c0,3.7,5.7,3.7,5.7,0c0-3.7,0-7.4,0-11
		c2.8,2.8,5.5,5.5,8.3,8.3c2.6,2.6,6.6-1.4,4-4c-3.9-3.9-7.8-7.8-11.7-11.7c-0.2-0.2-0.4-0.3-0.6-0.5c0-7.9,0-15.9,0-23.8
		c6.9,4.3,13.7,8.6,20.6,12.9c0,0.2,0,0.4,0.1,0.6c1.3,5.5,2.5,11,3.8,16.4c0.8,3.6,6.3,2.1,5.5-1.5c-0.9-3.8-1.7-7.6-2.6-11.3
		c3.1,1.9,6.2,3.9,9.3,5.8c3.1,1.9,6-3,2.9-4.9c-3.1-1.9-6.2-3.9-9.3-5.8c3.9-0.9,7.7-1.8,11.6-2.7c3.6-0.8,2.1-6.3-1.5-5.5
		c-5.4,1.2-10.8,2.5-16.2,3.7c-0.2,0.1-0.4,0.1-0.6,0.2c-6.9-4.3-13.8-8.7-20.7-13c6.9-4.5,13.8-9,20.6-13.5c0.1,0,0.1,0.1,0.2,0.1
		c5.4,1.1,10.8,2.3,16.2,3.4c3.6,0.7,5.1-4.7,1.5-5.5c-3.8-0.8-7.5-1.6-11.3-2.4c2.7-1.8,5.4-3.5,8.1-5.3c3-2,0.2-6.9-2.9-4.9
		c-2.9,1.9-5.8,3.8-8.6,5.7c0.8-3.9,1.6-7.8,2.4-11.7c0.7-3.6-4.7-5.1-5.5-1.5c-1.1,5.5-2.3,11-3.4,16.5c-0.1,0.4-0.1,0.7,0,1
		c-6.7,4.4-13.4,8.8-20.1,13.2c0-8.3,0-16.6,0-24.9c0.1-0.1,0.2-0.2,0.3-0.2c3.9-3.9,7.8-7.8,11.7-11.7c2.6-2.6-1.4-6.6-4-4
		c-2.7,2.7-5.4,5.3-8,8c0-3.3,0-6.5,0-9.8c0-3.7-5.7-3.7-5.7,0c0,3.4,0,6.8,0,10.2c-2.9-2.9-5.7-5.7-8.6-8.6c-2.6-2.6-6.6,1.4-4,4
		c4,4,8,8,11.9,11.9c0.2,0.2,0.4,0.4,0.7,0.5c0,8.1,0,16.2,0,24.4c-6.9-4.3-13.7-8.6-20.6-12.9c0-0.2,0-0.3-0.1-0.5
		c-1.2-5.4-2.5-10.8-3.7-16.2c-0.8-3.6-6.3-2.1-5.5,1.5c0.8,3.6,1.7,7.3,2.5,10.9c-2.8-1.8-5.6-3.5-8.4-5.3c-3.1-2-6,3-2.9,4.9
		c2.9,1.8,5.7,3.6,8.6,5.4c-4,0.9-8,1.8-12,2.8C109,104.8,110.5,110.3,114.1,109.5z"/>
</g>
</svg>
