<?xml version="1.0" encoding="utf-8"?>
<!-- Generator: Adobe Illustrator 24.1.1, SVG Export Plug-In . SVG Version: 6.00 Build 0)  -->
<svg version="1.1" id="Layer_1" xmlns="http://www.w3.org/2000/svg" xmlns:xlink="http://www.w3.org/1999/xlink" x="0px" y="0px"
	 viewBox="0 0 172.7 131.9" style="enable-background:new 0 0 172.7 131.9;" xml:space="preserve">
<style type="text/css">
	.st0{fill:#A1DDF8;}
	.st1{opacity:0.7;fill:#ACE3F9;}
	.st2{fill:#74D0F5;}
	.st3{fill:#ACE3F9;}
	.st4{fill:#F0FFFF;}
	.st5{opacity:0.5;fill:#ACE3F9;}
	.st6{opacity:0.5;fill:#5CCAF3;}
</style>
<g>
	<g>
		<g>
			<path class="st0" d="M163.4,83.4c-6.4-3-13.4-5.3-20.5-5.9c-2.7-0.2-5.4,0-8,0.2c1.3-1,2.1-2.3,1.9-4.2c-0.7-5.6-13-5.8-16.8-6.2
				c-11.7-1.4-23.5-0.7-35.2-1.1C72.4,65.7,59,64.7,48,71.3c-1.5,0.9-2.2,3-2.5,4.6c-0.7,3.2-3.9,4.5-6.8,5.1
				c-6.8,1.2-13.8,1.3-20.5,3.2c-5.1,1.4-12.4,4.2-14.4,9.6c-1.4,3.8,0.6,9,4.2,11c9.3,5.2,20.8,6.6,31.1,3.9c1-0.3,3.9-0.5,4.9,0
				c2.6,1.3-5.8,3.3-5.3,6.8c0.6,3.9,4.6,6.5,7.2,7.9c1.2,0.6,2.5,1.3,3.8,1.5c20.4,4.5,41.1,1.8,60.1,0.2c3.8-0.3,7.6-1.3,11.2-2.4
				c4.4-1.3,12.1-3.3,14.1-8c1.1-2.5-0.6-4.1-2.2-5.8c-2.8-2.8,0.4-3.6,2.9-3.7c9.2-0.3,17.7-1.5,26-5.2c2.2-1,4.5-2.2,6.3-3.9
				C172.7,91.6,167.8,85.5,163.4,83.4z"/>
			<path class="st1" d="M163.4,83.4c-6.4-3-13.4-5.3-20.5-5.9c-2.7-0.2-5.4,0-8,0.2c1.3-1,2.1-2.3,1.9-4.2c-0.7-5.6-13-5.8-16.8-6.2
				c-11.7-1.4-23.5-0.7-35.2-1.1C72.4,65.7,59,64.8,48,71.3c-1.5,0.9-2.2,3-2.5,4.6c-0.7,3.2-3.9,4.5-6.8,5.1
				c-6.8,1.2-13.8,1.3-20.5,3.2c-5.1,1.4-12.4,4.2-14.4,9.6c-1.4,3.8,0.6,9,4.2,11c9.3,5.2,20.8,6.6,31.1,3.9c1-0.3,3.9-0.5,4.9,0
				c2.6,1.3-5.8,3.3-5.3,6.8c0.6,3.9,4.6,6.5,7.2,7.9c1.2,0.6,2.5,1.3,3.8,1.5c20.4,4.5,41.1,1.8,60.1,0.2c3.8-0.3,7.6-1.3,11.2-2.4
				c4.4-1.3,12.1-3.3,14.1-8c1.1-2.5-0.6-4.1-2.2-5.8c-3.2-3.3,0.2-3.6,3.2-3.6c9.1,0.1,17.4-1.5,25.7-5.2c2.2-1,4.5-2.2,6.3-3.9
				C172.7,91.6,167.8,85.5,163.4,83.4z"/>
			<path class="st0" d="M160.4,81.9c-6.1-3-12.9-5.3-19.6-5.9c-2.6-0.2-5.1,0-7.7,0.2c1.2-1,2-2.3,1.8-4.2
				c-0.7-5.6-12.5-5.8-16.2-6.2c-11.2-1.4-22.5-0.7-33.8-1.1c-11.8-0.4-24.7-1.4-35.2,5.2c-1.4,0.9-2.1,3-2.4,4.6
				c-0.7,3.2-3.7,4.5-6.6,5.1c-6.5,1.2-13.2,1.3-19.6,3.2c-4.9,1.4-11.9,4.2-13.8,9.6c-1.3,3.8,0.6,9,4,11c8.9,5.2,20,6.6,29.8,3.9
				c1-0.3,3.7-0.5,4.7,0c2.5,1.3-5.6,3.3-5.1,6.8c0.6,3.9,4.4,6.5,6.9,7.9c1.1,0.6,2.4,1.3,3.6,1.5c19.5,4.5,39.5,1.8,57.7,0.2
				c3.6-0.3,7.3-1.3,10.8-2.4c4.2-1.3,11.6-3.3,13.6-8c1-2.5-0.6-4.1-2.1-5.8c-1-1-3.3-3.4-0.4-3.4c2.1-0.1,4,0.8,6.2,0.4
				c2.3-0.4,4.7-0.7,7-1.2c5.1-1.1,10.2-2.4,15-4.6c2.1-1,4.3-2.2,6-3.9C169.3,90.1,164.7,84,160.4,81.9z"/>
			<path class="st2" d="M45.9,76.1c-0.7,3.1-3.9,4.4-6.8,4.8c-3.7,0.6-7.5,0.9-11.3,1.4c-2,2.5-2.3,5.7-0.2,8.4
				c1.7,2.1,4,3.6,6.4,4.9c5.5,2.9,10.9,5.9,16.4,8.8c5.2,2.7,10.5,5.3,15.9,7.7c5.6,2.4,11.1,4.6,17.3,4.7
				c11.2,0.3,21.4-4.5,31.2-9.2c10.2-4.9,20.4-9.9,30.5-15c3.5-1.8,7.7-3.8,9.4-7.5c0.7-1.5,1-3.2,0.9-4.9c-4-1.3-8.1-2.2-12.3-2.5
				c-2.7-0.2-5.4,0-8,0.2c1.3-1,2.1-2.2,1.9-4c-0.7-5.3-13-5.5-16.8-6c-11.7-1.3-23.5-0.7-35.2-1.1c-12.3-0.4-25.7-1.3-36.7,4.9
				C46.9,72.5,46.2,74.5,45.9,76.1z"/>
			<g>
				<path class="st3" d="M153.2,57.9c0-3.4,0-6.8,0.1-10.3c0.1-8.6,0.9-17.4-1.2-25.8c-0.3-1.2-0.6-2.5-1.4-3.4
					c-1.2-1.3-2.5-2.4-4-3.3c-3.5-2-7.5-2.8-11.3-3.8c-2.3-0.6-4.4-1.9-6.7-2.7c-2.5-0.8-4.9-1.7-7.4-2.4
					c-7.2-2.2-14.4-4.1-21.8-5.7c-3.4-0.7-6.8-0.7-10.2-0.1C74,3.3,59.7,9.8,45.5,15.8c-4,1.7-8,3.6-11.8,5.7
					c-1.5,0.8-2.7,1.8-3.7,3.2c-1,1.5-1.3,3.3-1.5,5.1c-0.9,8.7,0.5,17.4,1.7,26c1.5,10.8,2.1,22.2,5.2,32.7c0.7,2.3,2,4.1,3.7,5.8
					c1.7,1.6,3.7,3,5.7,4c6.5,3.2,13.2,5.9,20,8.4c6.3,2.3,12.6,4.9,19.2,6.1c2.8,0.5,5.6,1,8.4,0.3c2.5-0.6,33.5-14.1,46.1-21.1
					c3.6-2,7.3-4,10.6-6.6c3-2.4,3.2-5.8,3.5-9.4C153.1,69.9,153.2,63.9,153.2,57.9z"/>
				<path class="st4" d="M130.4,14.9c-2.7-0.6-6,1.9-8.3,3.1c-4.9,2.7-9.7,5.5-14.6,8c-3.4,1.7-7,3.7-10.8,4.3
					c-5.4,0.8-11.4,0.3-16.5-1.7c-4.5-1.8-7.4-5.5-5.5-10.4c1.9-4.8,6-8,10.3-10.8c-3.8,1.7-7.4,3.8-11.4,4.9
					c-6.8,1.9-14.8,1.2-21,5c-2.8,1.7-5.3,4.6-5.1,8.1c0.1,0.8,0.3,1.4,0.6,2c0.8,1,1.8,1.8,3.2,1.9c1.5,0.1,3.1-0.1,4.6-0.1
					c5-0.1,8.3,2.5,12.5,4.8c5.1,2.8,10.8,5.3,16.7,5.7c6.4,0.5,11.6-1.4,17.2-4.3c4.7-2.4,9.3-5.1,14.2-6.9c3.4-1.3,7-2.3,10.1-4.3
					c1.7-1.1,3.4-2.4,4.2-4.2C131.3,18.8,132.4,15.3,130.4,14.9z"/>
				<g>
					<path class="st5" d="M147.7,15.7c-0.3-0.2-0.6-0.4-1-0.6c-3.5-2-7.5-2.8-11.3-3.8c-2.3-0.6-4.4-1.9-6.7-2.7
						c-2.5-0.8-4.9-1.7-7.4-2.4c-7.2-2.2-14.4-4.1-21.8-5.7c-3.4-0.7-6.8-0.7-10.2-0.1C74,3.3,59.7,9.8,45.5,15.8
						c-2.8,1.2-5.6,2.5-8.3,3.8c-0.3,0.4-0.5,0.8-0.8,1.2c-3.6,6,3.4,9.5,8.1,11.5c6.8,2.8,14,5.1,21.1,6.9c5.6,1.4,11.2,3,16.9,4.2
						c5.8,1.3,11.7,1.8,17.4-0.3c5.1-1.9,9.8-4.8,14.8-7c5.2-2.3,10.7-4,16-6.1c3-1.2,6.1-2.4,9.1-3.8c2-0.9,4-2,5.5-3.7
						C146.8,20.5,147.9,18.1,147.7,15.7z M136.9,19.2c-1.6,4.7-7.9,6.5-12.1,7.7c-5.2,1.5-10.7,2.9-15.2,6.1
						c-6,4.3-11.9,9.2-19.6,9.8c-6.5,0.5-11.1-3.9-16.3-7c-5.1-3-10.8-3-16.5-3.4c-4.9-0.3-9.4-1.6-11.1-6.7
						c-1.3-3.9,0.1-6.6,2.6-8.5c3.1-2.4,8.1-3.6,11.6-4.2c5.1-0.9,9.9-2.3,14.8-4.2c6.4-2.5,14.8-7.1,21.7-3.5
						c3.5,1.8,0.1,4.6-1.8,5.6c-3.4,1.8-6.9,3-10,5.3c-4.2,3-6.6,11.5,0.5,12.6c5.8,0.9,13.7-1.4,17.6-5.3
						c6.2-6.4,13-13.4,22.8-12.4C129.4,11.4,138.9,13.4,136.9,19.2z"/>
				</g>
				<path class="st5" d="M96.5,59.5c0,0.3,0,0.6-0.1,0.9C96,66.8,96,73.3,96.7,79.6c0.6,5,0.3,19.6,6.8,21.2c4.2,1,8.9-2.9,12-5.2
					c5-3.8,10.6-6.7,16.4-9.1c5.3-2.3,12.4-3.6,16.6-7.8c4.7-4.6,3.9-12.5,3.2-18.4c-0.9-7.8-1.5-15.6-2.2-23.4
					c-0.5-5.4-2.6-7.5-8-5.9c-6.8,1.9-13.6,4.6-20.1,7.2c-6.9,2.7-15.7,5.2-21.3,10.2C96.7,51.3,96.7,55.5,96.5,59.5z"/>
				<path class="st5" d="M101.2,92.5c1.7,3.1,4.5,4.9,8.6,2.5c4.8-2.9,6.1-8.7,6.5-14.1c0.4-5.6-0.1-11.3,0.5-16.9
					c0.5-3.9,1.7-8.3,5.6-9.8c4.6-1.7,8.3,0.6,11,4.3c1.5,2.1,2.8,4.4,4.2,6.5c1.3,1.9,2.9,4.1,5.1,4.8c8,2.3,6.7-7.2,6.1-12.4
					c-0.4-3.4-0.6-6.7-0.9-10.1c-0.2-2.7,0-6.2-1.6-8.6c-2.7-4-6.5-4.6-10.6-4.1c-5.8,2-11.4,4.5-17.2,6.5c-5.2,1.9-10.7,3.6-15,7.3
					c-10.1,8.7-5.2,25.1-4.5,36.5C99.3,87.4,99.9,90.3,101.2,92.5z"/>
				<g>
					<path class="st6" d="M94.4,104.6c-0.1-0.8-0.1-1.5-0.2-2.1c-0.7-11-0.9-22-1.2-33.1c-0.1-3.5-0.6-7-0.9-10.5
						c-0.3-3.3,0-6.7-0.9-9.9c0-0.2-0.3-0.1-0.3,0.1c0.3,2.3,0.3,5,0.3,7.3c-0.1,6.2,0.7,12.4,1,18.5c0.4,6.4,0.6,12.7,0.8,19.1
						c0.1,3.6,0.2,7.2,0.3,10.8c0.1,2.2,0.2,4.1,0.7,6.2C95,109.1,94.6,106.6,94.4,104.6z"/>
					<path class="st6" d="M148.1,76.8c-0.1-0.2-1.1-0.7-1.6-0.9c-3.2-1.1-6.6-2-10-2.4c-4.7-0.6-9.3-1.5-14-2.1
						c-2.9-0.4-5.9-0.1-8.8-0.4c-0.1,0-0.1,0.1,0,0.1c5.7,1.1,11.5,1.5,17.1,2.6c2.6,0.5,5.2,0.8,7.8,1.2c2.9,0.4,5.7,1.7,8.7,1.9
						C148,77,148.2,77,148.1,76.8z"/>
					<path class="st6" d="M79.7,77c-4.3,0.9-8.6,2.5-12.8,3.8c-4.5,1.5-9,2.9-13.4,4.8c-0.1,0,0,0.2,0.1,0.1c4.3-1.3,8.6-2.7,13-4
						c4.4-1.3,8.9-2.7,13.3-4.3C80,77.3,79.9,77,79.7,77z"/>
					<path class="st6" d="M100.7,6.8C99.2,6,98,5,96.4,4.6c-1.7-0.4-3.6-0.2-5.3,0c-1.7,0.2-3.4,0.8-4.9,1.5c-1.6,0.8-2.6,2.1-4,3.1
						c-0.1,0.1,0,0.2,0.1,0.1c1-0.5,1.8-1.2,2.7-1.8c3.3-2,7.5-2.7,11.3-2.1c1.5,0.3,2.8,1.2,4.4,1.5C100.8,7.1,100.8,6.8,100.7,6.8
						z"/>
					<path class="st6" d="M149.3,79.3c-3.7,3.3-8,5.7-12.6,7.8c-2.3,1.1-4.6,2.1-6.9,3.2c-2.2,1-4.2,2.2-6.4,3.5
						c-0.1,0.1,0,0.3,0.1,0.2c4.7-2.1,9.5-4.2,14.1-6.4c4.3-2.1,8.5-4.4,11.7-8.1C149.5,79.4,149.4,79.3,149.3,79.3z"/>
					<path class="st6" d="M41.7,87.3c-3.1-5.3-3.5-11.5-4.4-17.5c-0.4-3.2-0.9-6.4-1.2-9.6c-0.3-3.2-0.4-6.3-1.1-9.5
						c0-0.1-0.2-0.1-0.2,0c0.5,3.2,0.6,6.3,0.8,9.5c0.2,3.4,0.7,6.9,1.1,10.3c0.4,3.2,0.7,6.4,1.4,9.5c0.5,2.6,1.1,5.5,3,7.5
						C41.4,87.8,41.9,87.6,41.7,87.3z"/>
					<path class="st6" d="M47.8,92.9c-1-1.2-2.5-1.3-3.8-2.1c-0.1-0.1-0.3,0.1-0.2,0.2c1.1,0.9,2.5,1.5,3.7,2.2
						C47.7,93.2,47.9,93,47.8,92.9z"/>
					<path class="st6" d="M146.8,18.3C146.8,18.3,146.8,18.3,146.8,18.3c-2.3,6.1-7.4,7-13,9.1c-7,2.6-13.9,5.3-20.7,8.4
						c-6.1,2.7-12,6.2-18.5,8c-5.2,1.4-10.1,0.6-15.2-0.9C69,39.7,58.6,36.4,48.3,33c-4.2-1.4-8.5-2.8-12.3-5.2
						c5.1,5,12.4,6.4,19.1,8.4c9,2.6,18,6,26.9,8.8c14.8,4.5,26.6-6.1,39-11.5c4-1.7,8.1-3.3,12.2-4.6
						C139.7,26.9,145,25.4,146.8,18.3z"/>
				</g>
				<path class="st5" d="M35.9,57.8c0.1,2.6,0.2,5.2,0.3,7.8c0.3,4.9,0.6,9.9,1.9,14.6c1.1,4.1,3.8,9.6,9,7.8
					c4.3-1.5,5.3-6.1,5.7-10.1c0.3-3,0.6-6.1,2.5-8.6c2.4-3,5.9-4.7,9.6-5.3c3.6-0.5,7.3-0.2,10.9-0.5c2.7-0.3,6-0.8,8.1-2.7
					c3.2-2.8,1.8-7.1-1.6-8.9c-3.2-1.7-6.8-2.4-10.3-3.1c-9.2-2-17.4-6.6-25.3-11.6c-1.7-1.1-3.8-2.6-5.9-2.6
					c-2.8-0.1-4.4,2.6-4.9,5.1c-1.1,5.3,1.3,10.5,0.4,15.9C36.2,56.3,36.1,57.1,35.9,57.8z"/>
				<g>
					<path class="st4" d="M151.7,30c-0.2-2.6-0.5-5.2-1-7.8c-0.3-1.9-0.9-3.8-2.6-4.6c-1.1,4.2-6.2,7.8-9.7,9.7
						c-7.7,4.2-16.7,5.3-24.1,10c4.3-0.8,8.4-3.1,12.5-4.6c2.5-0.9,4.9-1.9,7.4-2.8c1.9-0.7,3.8-1.7,5.7-2.3c3-1.1,6.8-1.6,9.2,1
						c1.3,1.4,2.1,3.1,2.7,4.9C151.8,32.4,151.7,31.2,151.7,30z"/>
					<path class="st4" d="M91.9,48.3c-0.3,1.1-0.4,2.3-0.3,3.5c0.1,2.1,0.4,4.3,0.6,6.5c1.3-5.2,4-10,8-13.2c-1.2,0.4-2.5,0.8-3.8,1
						C94.8,46.2,92.5,46.4,91.9,48.3z"/>
					<path class="st4" d="M95.1,97.9c-0.2,0.2-0.3,0.5-0.4,0.8c-0.1,2.2,0.5,4.2,0.6,6.2c0.2,1.7,0.4,4.1,0.8,4.5c0.9,1,5.2-1,7-1.6
						c4-1.4,7.9-3.3,11.9-5c7.7-3.4,15.1-7.3,22.4-11.4c5.7-3.3,13.1-6.6,15.1-13.3c0-0.3,0.1-0.6,0.1-1c-0.4,0.6-0.7,1.1-1.1,1.6
						c-4.8,6.4-11.8,10.4-18.9,13.7c-7.4,3.4-15.5,6-22.3,10.6c-2.7,1.8-7.1,5.6-10.7,3.5c-3.1-1.8-2.8-5.7-4.4-8.5
						C95.2,98,95.1,98,95.1,97.9z"/>
					<path class="st4" d="M76.9,44.8c-10.9-2.6-20.8-8-31.6-11.1c2.4,3.5,7,4.9,10.6,6.8c4.5,2.4,8.8,5,13.7,6.6c3,1,6,1.9,9.1,2.4
						c1.5,0.3,3.2,0.5,4.8,0.3c0.7-0.1,2.8-0.9,1.7-1.9C83.2,45.9,79.4,45.4,76.9,44.8z"/>
					<path class="st4" d="M29.9,41.4c0.2,7.3,0.9,14.3,1.9,21.5c1,7.5,1.4,15,3.4,22.4c0.9,3.4,2.1,6.1,5.2,8c0.6,0.4,1.2,0.7,1.8,1
						c0.3,0,0.5,0,0.8-0.1c-0.9-3.8-3.8-7-5.3-10.6c-0.4-0.9-0.7-1.8-0.9-2.8c-1.8-3.9-2.8-8.1-3.2-12.6c-0.4-4.4-0.8-8.7-1.3-13.1
						c-0.5-4.1-0.9-8.3-0.3-12.4c0.5-3.3,1.9-6.5,4.7-8.5c0.7-0.5,1.4-0.9,2-1.5c1-1.1,0.2-2.3-0.9-2.8c-1.1-0.6-2.3-0.8-3.4-1.3
						c-1.3-0.6-2.6-1.7-3-3C29.2,30.3,29.8,36.4,29.9,41.4z"/>
					<path class="st4" d="M89.5,72.5c0-3.3,0.6-6.8,0.3-10.2c0-0.3-0.1-0.6-0.2-0.8c-0.1,0.1-0.3,0.2-0.5,0.3
						c-2.2,1.8-2.2,5-3.7,7.3c-1.7,2.7-4.9,3.6-7,5.9c-2.1,2.3-1.6,5.1-1.1,8c0.6,3.1,0.7,6-2,8.2c-2.7,2.2-6.8,2-10,1.6
						c-3.8-0.5-7.5-1.5-11.3-2.3c-0.4-0.1-0.8-0.2-1.3-0.3c-1.9,0.2-3.8,0.1-5.4-0.7c0,0.1,0,0.2,0.1,0.4c2.2,4.1,7,5,10.9,6.7
						c3.3,1.4,6.4,3.3,9.6,4.9c3.7,1.9,7.6,3.8,11.7,4.4c3.8,0.6,9.1,0.1,11-3.8c1.9-4,0.2-8.8-0.5-13C89.5,83.6,89.4,78,89.5,72.5z
						"/>
				</g>
			</g>
			<path class="st0" d="M149.3,110.3c-0.7-2.2-6.2-3-8.5-1C134.7,114.7,151.3,116.3,149.3,110.3z"/>
			<path class="st2" d="M145.8,112.8c-1.2-0.1-4.7-0.9-4.4-2.7c0.1-0.8,0.6-1.4,1.2-1.7c-0.6,0.2-1.2,0.5-1.6,0.8
				c-5.7,5,7.7,6.7,8.6,2.4C148.8,112.7,146.9,113,145.8,112.8z"/>
			<path class="st5" d="M143.5,113.6c-1.5-0.3-2.9-1-3.7-2.4c-0.1-0.1-0.1-0.3-0.2-0.4c-1.4,3.1,5.8,4.3,8.7,2.4
				C146.8,113.8,145,113.9,143.5,113.6z"/>
			<path class="st4" d="M36.4,103.9c-6.7,0.5-14,0.8-20.2-2.2c-4.6-2.3-6.5-6.2-3.6-10.9c1.8-2.8,4.8-3.4,7.4-5.1
				c0.7-0.4,0.1-1.4-0.6-1.4c-7.1,0.6-14.2,9.2-9.2,15.9c5.6,7.5,18.5,6.7,26.2,4.2C36.8,104.2,36.6,103.8,36.4,103.9z"/>
			<path class="st4" d="M131.5,109.7c-0.2-0.9-1.6-1-1.7,0c-0.6,6.4-12.1,8.3-16.9,9.1c-7.7,1.3-15.7,1.2-23.5,1.1
				c-6.7,0-13.4,0.3-20.1,0.3c-3.6,0-7.3,0-10.9,0.1c-4.1,0-11.2,0.3-12.2-4.9c-0.1-0.4-0.7-0.4-0.7,0c-0.3,7.1,9.1,7.1,14.2,7.1
				c10.3,0.1,20.6-0.3,30.8-0.2c9.2,0.1,18.7,0,27.7-2.2C122.9,118.9,132.9,116.2,131.5,109.7z"/>
			<path class="st4" d="M165.1,86.1c-1.8-2.4-4.7-3.3-7.6-3.7c-0.2,0-0.4,0.3-0.2,0.5c1.6,0.9,3.4,1.9,4.8,3.1
				c3.6,2.9,0.4,6.5-2.4,8.2c-5,3-10.5,4.1-16,5.9c-0.5,0.2-0.4,1.1,0.1,1.1c6.7,0.1,15.8-2.7,20.4-7.8
				C165.9,91.6,166.6,88,165.1,86.1z"/>
			<path class="st4" d="M140.5,100.8c-2.4-0.1-4.7,0.4-6.9,1.1c-0.4,0.1-0.2,0.6,0.1,0.7c1.1,0.3,2.1,0.1,3.2,0.1
				c1.3-0.1,2.6-0.1,3.8-0.5C141.4,101.9,141.2,100.8,140.5,100.8z"/>
			<path class="st4" d="M148.4,109.7c-0.3-0.2-0.7,0.2-0.4,0.4c0.1,0.2,0.3,0.3,0.4,0.5c0.1,0.2,0.1,0.4,0.3,0.5
				c0.1,0.2,0.4,0.2,0.5-0.1C149.4,110.4,148.9,110,148.4,109.7z"/>
			<path class="st4" d="M146.7,109.1c-1-0.9-3.1-0.8-4.2-0.1c-0.2,0.1,0,0.4,0.2,0.4c0.7-0.1,1.4-0.1,2,0c0.6,0.1,1.2,0.3,1.8,0.4
				C146.8,109.7,147,109.3,146.7,109.1z"/>
		</g>
	</g>
</g>
</svg>
