<?xml version="1.0" encoding="utf-8"?>
<!-- Generator: Adobe Illustrator 24.1.1, SVG Export Plug-In . SVG Version: 6.00 Build 0)  -->
<svg version="1.1" id="Capa_1" xmlns="http://www.w3.org/2000/svg" xmlns:xlink="http://www.w3.org/1999/xlink" x="0px" y="0px"
	 viewBox="0 0 561 304" style="enable-background:new 0 0 561 304;" xml:space="preserve">
<g>
	<g>
		<path style="fill:#88D2E6;" d="M38.81,223.31c0,0-113.82-210.91,75.96-217.66C341.31-2.41,471.36,115.71,351,225.1
			c0,0-141.54,9.29-181.87,8.32C128.81,232.45,38.81,223.31,38.81,223.31z"/>
		<g>
			<path style="fill:#ABA5A6;" d="M290.54,286.69c0,0,147.48-26.99,242.05,2.16C532.59,288.85,385.44,312.65,290.54,286.69z"/>
			
				<radialGradient id="SVGID_1_" cx="411.5629" cy="278.1018" r="85.8752" gradientTransform="matrix(1 0 0 1.1633 0 -36.4534)" gradientUnits="userSpaceOnUse">
				<stop  offset="0" style="stop-color:#FFC9BD"/>
				<stop  offset="0.1536" style="stop-color:#E6B2AD"/>
				<stop  offset="0.5533" style="stop-color:#A87B87"/>
				<stop  offset="0.8466" style="stop-color:#82596F"/>
				<stop  offset="1" style="stop-color:#734C66"/>
			</radialGradient>
			<path style="opacity:0.32;fill:url(#SVGID_1_);" d="M290.54,286.69c0,0,147.48-26.99,242.05,2.16
				C532.59,288.85,385.44,312.65,290.54,286.69z"/>
		</g>
		<g>
			<g>
				<g>
					<path style="fill:#ABA5A6;" d="M15.46,226.7c0,0,107.75-16.73,184.04-18.52c76.29-1.79,175.6,19.53,175.6,19.53
						s-85.95,25.69-186.85,25.69C73.64,253.4,15.46,226.7,15.46,226.7z"/>
					<g>
						<polygon style="fill:#F8C58A;" points="147.59,26.29 177.38,13.93 260.01,12.31 257.62,105.85 179.9,107.49 149.46,93.57 
													"/>
						<polygon style="fill:#8D4F22;" points="257.69,103.08 257.81,98.5 218.93,57.48 260.01,14.84 260.01,12.31 258.08,12.35 
							216.71,55.29 177.38,13.93 177.5,18.53 214.72,57.22 173.11,97.62 173.11,102.33 216.94,59.43 						"/>
						<polygon style="fill:#D78846;" points="147.59,26.29 177.38,13.93 179.9,107.49 149.46,93.57 						"/>
						<path style="fill:#885736;" d="M228.65,12.92l-0.09,18.67c4.96-0.24,9.96-0.53,14.97-1.08l0.14-17.89L228.65,12.92z"/>
						<path style="fill:#885736;" d="M238.04,83.13c-6.25,0.58-12.46,1.2-18.62,1.7l0.28,21.81l18.63-0.39L238.04,83.13z"/>
						<g>
							<polygon style="fill:#EAECED;" points="206.33,98.71 184.68,98.04 184.43,84.93 206.15,85.44 							"/>
							<polygon style="fill:#515151;" points="186.93,96.63 185.87,96.6 185.69,86.9 186.75,86.92 							"/>
							<polygon style="fill:#515151;" points="187.14,96.64 186.72,96.63 186.54,86.92 186.96,86.93 							"/>
							<polygon style="fill:#515151;" points="188.03,96.67 187.61,96.65 187.43,86.94 187.86,86.95 							"/>
							<polygon style="fill:#515151;" points="188.93,96.69 188.5,96.68 188.33,86.96 188.75,86.97 							"/>
							<polygon style="fill:#515151;" points="190.01,96.73 189.41,96.71 189.24,86.98 189.83,87 							"/>
							<polygon style="fill:#515151;" points="190.71,96.75 190.29,96.73 190.12,87.01 190.54,87.02 							"/>
							<polygon style="fill:#515151;" points="191.61,96.77 191.18,96.76 191.01,87.03 191.44,87.04 							"/>
							<polygon style="fill:#515151;" points="192.66,96.81 191.92,96.78 191.75,87.05 192.5,87.06 							"/>
							<polygon style="fill:#515151;" points="193.4,96.83 192.98,96.81 192.81,87.07 193.24,87.08 							"/>
							<polygon style="fill:#515151;" points="194.3,96.86 193.87,96.84 193.71,87.09 194.14,87.1 							"/>
							<polygon style="fill:#515151;" points="195.2,96.88 194.77,96.87 194.61,87.12 195.04,87.13 							"/>
							<polygon style="fill:#515151;" points="196.26,96.91 195.51,96.89 195.35,87.13 196.1,87.15 							"/>
							<polygon style="fill:#515151;" points="197,96.94 196.57,96.92 196.41,87.16 196.84,87.17 							"/>
							<polygon style="fill:#515151;" points="197.9,96.96 197.47,96.95 197.32,87.18 197.75,87.19 							"/>
							<polygon style="fill:#515151;" points="198.8,96.99 198.37,96.98 198.22,87.2 198.65,87.22 							"/>
							<polygon style="fill:#515151;" points="199.66,97.02 198.77,96.99 198.62,87.21 199.51,87.24 							"/>
							<polygon style="fill:#515151;" points="200.61,97.05 200.18,97.03 200.03,87.25 200.46,87.26 							"/>
							<polygon style="fill:#515151;" points="201.51,97.07 201.08,97.06 200.94,87.27 201.37,87.28 							"/>
							<polygon style="fill:#515151;" points="202.42,97.1 201.99,97.09 201.85,87.29 202.28,87.3 							"/>
							<polygon style="fill:#515151;" points="203.33,97.13 202.9,97.11 202.76,87.32 203.19,87.33 							"/>
							<polygon style="fill:#515151;" points="204.2,97.15 203.11,97.12 202.97,87.32 204.06,87.35 							"/>
							<polygon style="fill:#515151;" points="205.14,97.18 204.71,97.17 204.58,87.36 205.01,87.37 							"/>
						</g>
						<path style="opacity:0.32;fill:#EEB87A;" d="M205.84,66.75c-10.47-6-18.48-14.74-24.16-23.43l1.16,59.91l72.5,0.01l0.28-25.93
							C238.7,79.26,219.87,74.78,205.84,66.75z"/>
					</g>
					<g>
						<polygon style="fill:#F8C58A;" points="198.56,91.56 228.3,79.2 310.81,77.58 308.42,171.12 230.82,172.76 200.43,158.84 
													"/>
						<polygon style="fill:#8D4F22;" points="308.49,168.35 308.61,163.77 269.79,122.75 310.81,80.12 310.81,77.58 308.88,77.62 
							267.57,120.56 228.3,79.2 228.42,83.81 265.59,122.49 224.03,162.89 224.03,167.6 267.8,124.7 						"/>
						<polygon style="fill:#D78846;" points="198.56,91.56 228.3,79.2 230.82,172.76 200.43,158.84 						"/>
						<path style="fill:#885736;" d="M283.29,78.12l-0.1,20.95c4.95-0.24,9.94-0.53,14.94-1.08l0.16-20.17L283.29,78.12z"/>
						<path style="fill:#885736;" d="M288.87,148.4c-6.24,0.58-12.44,1.2-18.59,1.7l0.28,21.81l18.6-0.39L288.87,148.4z"/>
						<g>
							<polygon style="fill:#EAECED;" points="257.21,163.99 235.59,163.31 235.34,150.2 257.03,150.71 							"/>
							<polygon style="fill:#515151;" points="237.84,161.9 236.78,161.87 236.6,152.17 237.66,152.19 							"/>
							<polygon style="fill:#515151;" points="238.05,161.91 237.63,161.9 237.45,152.19 237.87,152.2 							"/>
							<polygon style="fill:#515151;" points="238.94,161.94 238.52,161.92 238.34,152.21 238.76,152.22 							"/>
							<polygon style="fill:#515151;" points="239.83,161.96 239.41,161.95 239.23,152.23 239.66,152.24 							"/>
							<polygon style="fill:#515151;" points="240.91,162 240.32,161.98 240.14,152.26 240.74,152.27 							"/>
							<polygon style="fill:#515151;" points="241.61,162.02 241.19,162.01 241.02,152.28 241.45,152.29 							"/>
							<polygon style="fill:#515151;" points="242.51,162.05 242.09,162.03 241.92,152.3 242.34,152.31 							"/>
							<polygon style="fill:#515151;" points="243.56,162.08 242.82,162.05 242.65,152.32 243.4,152.34 							"/>
							<polygon style="fill:#515151;" points="244.3,162.1 243.87,162.09 243.71,152.34 244.13,152.35 							"/>
							<polygon style="fill:#515151;" points="245.19,162.13 244.77,162.11 244.61,152.37 245.03,152.38 							"/>
							<polygon style="fill:#515151;" points="246.09,162.15 245.67,162.14 245.51,152.39 245.93,152.4 							"/>
							<polygon style="fill:#515151;" points="247.15,162.19 246.4,162.16 246.25,152.41 246.99,152.42 							"/>
							<polygon style="fill:#515151;" points="247.89,162.21 247.46,162.2 247.31,152.43 247.73,152.44 							"/>
							<polygon style="fill:#515151;" points="248.79,162.24 248.36,162.22 248.21,152.45 248.64,152.46 							"/>
							<polygon style="fill:#515151;" points="249.69,162.26 249.26,162.25 249.11,152.48 249.54,152.49 							"/>
							<polygon style="fill:#515151;" points="250.55,162.29 249.66,162.26 249.51,152.49 250.4,152.51 							"/>
							<polygon style="fill:#515151;" points="251.49,162.32 251.07,162.3 250.92,152.52 251.35,152.53 							"/>
							<polygon style="fill:#515151;" points="252.4,162.34 251.97,162.33 251.83,152.54 252.25,152.55 							"/>
							<polygon style="fill:#515151;" points="253.3,162.37 252.87,162.36 252.73,152.57 253.16,152.58 							"/>
							<polygon style="fill:#515151;" points="254.21,162.4 253.78,162.39 253.64,152.59 254.07,152.6 							"/>
							<polygon style="fill:#515151;" points="255.08,162.43 253.99,162.39 253.85,152.59 254.94,152.62 							"/>
							<polygon style="fill:#515151;" points="256.02,162.45 255.59,162.44 255.46,152.63 255.89,152.64 							"/>
						</g>
						<path style="opacity:0.32;fill:#EEB87A;" d="M256.72,132.02c-10.45-6-18.45-14.74-24.12-23.43l1.16,59.91l72.39,0.01
							l0.28-25.93C289.53,144.53,270.72,140.06,256.72,132.02z"/>
					</g>
					<g>
						<polygon style="fill:#F8C58A;" points="66.33,77.14 102.95,64.78 204.58,63.16 201.63,156.7 106.06,158.34 68.62,144.42 
													"/>
						<polygon style="fill:#8D4F22;" points="201.72,153.93 201.86,149.35 154.06,108.33 204.58,65.7 204.58,63.16 202.2,63.2 
							151.32,106.14 102.95,64.78 103.11,69.38 148.88,108.07 97.7,148.47 97.7,153.18 151.6,110.28 						"/>
						<polygon style="fill:#D78846;" points="66.33,77.14 102.95,64.78 106.06,158.34 68.62,144.42 						"/>
						<path style="fill:#885736;" d="M116.42,64.57l-0.1,17.88c6.1-0.24,12.24-0.53,18.41-1.08l0.16-17.1L116.42,64.57z"/>
						<path style="fill:#885736;" d="M177.55,133.98c-7.68,0.58-15.32,1.2-22.9,1.7l0.34,21.81l22.91-0.39L177.55,133.98z"/>
						<path style="opacity:0.32;fill:#EEB87A;" d="M137.96,117.6c-12.87-6-22.73-14.74-29.71-23.43l1.43,59.91l89.15,0.01
							l0.35-25.92C178.36,130.11,155.2,125.64,137.96,117.6z"/>
					</g>
					<g>
						<polygon style="fill:#F8C58A;" points="243.53,161.97 268.2,150.76 334.71,147.38 332.75,227.39 268.33,231.61 243.15,220.31 
													"/>
						<polygon style="fill:#D78846;" points="243.53,161.97 268.2,150.76 268.33,231.61 243.15,220.31 						"/>
						<path style="fill:#885736;" d="M286.87,163.01c5.6-0.35,11.22-0.73,16.86-1.3l0.22-12.76l-16.83,0.86L286.87,163.01z"/>
						<path style="fill:#885736;" d="M316.77,208.18c-5.12,0.71-10.22,1.45-15.29,2.09l0,19.17l15.4-1.01L316.77,208.18z"/>
						<g>
							<polygon style="fill:#EAECED;" points="290.5,222.9 272.51,223.05 272.57,211.51 290.54,211.24 							"/>
							<polygon style="fill:#515151;" points="274.42,221.73 273.53,221.74 273.57,213.2 274.45,213.18 							"/>
							<polygon style="fill:#515151;" points="274.59,221.73 274.24,221.73 274.28,213.19 274.63,213.18 							"/>
							<polygon style="fill:#515151;" points="275.33,221.72 274.98,221.72 275.02,213.18 275.37,213.17 							"/>
							<polygon style="fill:#515151;" points="276.08,221.71 275.73,221.72 275.76,213.16 276.11,213.16 							"/>
							<polygon style="fill:#515151;" points="276.98,221.71 276.48,221.71 276.52,213.15 277.01,213.15 							"/>
							<polygon style="fill:#515151;" points="277.56,221.7 277.21,221.7 277.25,213.14 277.6,213.14 							"/>
							<polygon style="fill:#515151;" points="278.31,221.69 277.95,221.7 277.99,213.13 278.34,213.13 							"/>
							<polygon style="fill:#515151;" points="279.18,221.68 278.57,221.69 278.6,213.12 279.22,213.12 							"/>
							<polygon style="fill:#515151;" points="279.8,221.68 279.44,221.68 279.48,213.11 279.83,213.11 							"/>
							<polygon style="fill:#515151;" points="280.54,221.67 280.19,221.67 280.22,213.1 280.58,213.1 							"/>
							<polygon style="fill:#515151;" points="281.29,221.66 280.94,221.67 280.97,213.09 281.32,213.09 							"/>
							<polygon style="fill:#515151;" points="282.17,221.66 281.55,221.66 281.58,213.08 282.2,213.07 							"/>
							<polygon style="fill:#515151;" points="282.78,221.65 282.43,221.65 282.46,213.07 282.81,213.06 							"/>
							<polygon style="fill:#515151;" points="283.53,221.64 283.18,221.65 283.21,213.06 283.56,213.05 							"/>
							<polygon style="fill:#515151;" points="284.28,221.64 283.93,221.64 283.96,213.05 284.31,213.04 							"/>
							<polygon style="fill:#515151;" points="284.99,221.63 284.26,221.64 284.29,213.04 285.02,213.03 							"/>
							<polygon style="fill:#515151;" points="285.78,221.62 285.42,221.63 285.45,213.03 285.81,213.02 							"/>
							<polygon style="fill:#515151;" points="286.53,221.61 286.18,221.62 286.2,213.02 286.56,213.01 							"/>
							<polygon style="fill:#515151;" points="287.28,221.61 286.93,221.61 286.96,213.01 287.31,213 							"/>
							<polygon style="fill:#515151;" points="288.03,221.6 287.68,221.6 287.71,212.99 288.06,212.99 							"/>
							<polygon style="fill:#515151;" points="288.76,221.59 287.86,221.6 287.88,212.99 288.78,212.98 							"/>
							<polygon style="fill:#515151;" points="289.54,221.59 289.18,221.59 289.21,212.97 289.57,212.97 							"/>
						</g>
						<path style="opacity:0.32;fill:#EEB87A;" d="M290.55,194.99c-8.5-4.86-14.94-12.15-19.43-19.43l-0.24,52.16l60-2.54
							l0.26-22.61C317.34,204.8,301.96,201.51,290.55,194.99z"/>
					</g>
					<g>
						<polygon style="fill:#F8C58A;" points="121.68,128.82 163.99,112.95 272.85,112.95 269.77,233.71 164.87,239.44 
							121.68,221.37 						"/>
						<polygon style="fill:#D78846;" points="121.68,128.82 163.99,112.95 164.87,239.44 121.68,221.37 						"/>
						<path style="fill:#885736;" d="M250.82,140.03v-27.08h-27.33v28.02C232.62,140.79,241.74,140.55,250.82,140.03z"/>
						<path style="fill:#885736;" d="M206.63,211.27l0.27,25.88l24.96-1.36l-0.27-26.31C223.27,210.09,214.95,210.73,206.63,211.27z
							"/>
						<g>
							<rect x="171.67" y="214.32" style="fill:#EAECED;" width="30.01" height="18.07"/>
							<rect x="173.38" y="216.98" style="fill:#515151;" width="1.49" height="13.36"/>
							<rect x="174.57" y="216.98" style="fill:#515151;" width="0.59" height="13.36"/>
							<rect x="175.82" y="216.98" style="fill:#515151;" width="0.59" height="13.36"/>
							<rect x="177.07" y="216.98" style="fill:#515151;" width="0.59" height="13.36"/>
							<rect x="178.33" y="216.98" style="fill:#515151;" width="0.83" height="13.36"/>
							<rect x="179.56" y="216.98" style="fill:#515151;" width="0.59" height="13.36"/>
							<rect x="180.8" y="216.98" style="fill:#515151;" width="0.59" height="13.36"/>
							<rect x="181.83" y="216.98" style="fill:#515151;" width="1.03" height="13.36"/>
							<rect x="183.3" y="216.98" style="fill:#515151;" width="0.59" height="13.36"/>
							<rect x="184.54" y="216.98" style="fill:#515151;" width="0.59" height="13.36"/>
							<rect x="185.79" y="216.98" style="fill:#515151;" width="0.59" height="13.36"/>
							<rect x="186.82" y="216.98" style="fill:#515151;" width="1.03" height="13.36"/>
							<rect x="188.28" y="216.98" style="fill:#515151;" width="0.59" height="13.36"/>
							<rect x="189.53" y="216.98" style="fill:#515151;" width="0.59" height="13.36"/>
							<rect x="190.78" y="216.98" style="fill:#515151;" width="0.59" height="13.36"/>
							<rect x="191.33" y="216.98" style="fill:#515151;" width="1.23" height="13.36"/>
							<rect x="193.27" y="216.98" style="fill:#515151;" width="0.59" height="13.36"/>
							<rect x="194.52" y="216.98" style="fill:#515151;" width="0.59" height="13.36"/>
							<rect x="195.76" y="216.98" style="fill:#515151;" width="0.59" height="13.36"/>
							<rect x="197.01" y="216.98" style="fill:#515151;" width="0.59" height="13.36"/>
							<rect x="197.3" y="216.98" style="fill:#515151;" width="1.49" height="13.36"/>
							<rect x="199.5" y="216.98" style="fill:#515151;" width="0.59" height="13.36"/>
						</g>
						<path style="opacity:0.32;fill:#EEB87A;" d="M201.69,183.25c-14.13-7.89-24.94-19.55-32.55-31.17v81.34l97.7-3.07l0.4-34.06
							C245.28,199.23,220.43,193.71,201.69,183.25z"/>
					</g>
					<g>
						<polygon style="fill:#F8C58A;" points="42.94,155.55 70.64,141.58 148.12,137.31 146,231.26 76.31,236.07 47.99,223.76 						
							"/>
						<polygon style="fill:#D78846;" points="42.94,155.55 70.64,141.58 76.31,236.07 47.99,223.76 						"/>
						<path style="fill:#885736;" d="M79.33,160.93c6.43-0.43,12.9-0.91,19.38-1.61l-0.22-19.27l-19.65,1.08L79.33,160.93z"/>
						<path style="fill:#885736;" d="M128.34,209.97c-5.64,0.82-11.24,1.66-16.82,2.4l0.62,21.22l16.66-1.15L128.34,209.97z"/>
						<g>
							<polygon style="fill:#EAECED;" points="99.96,226.47 80.34,226.7 79.69,213.85 99.5,213.49 							"/>
							<polygon style="fill:#515151;" points="82.34,225.23 81.37,225.24 80.9,215.74 81.87,215.72 							"/>
							<polygon style="fill:#515151;" points="82.53,225.23 82.15,225.24 81.68,215.72 82.07,215.72 							"/>
							<polygon style="fill:#515151;" points="83.34,225.22 82.96,225.23 82.5,215.71 82.88,215.7 							"/>
							<polygon style="fill:#515151;" points="84.15,225.21 83.77,225.22 83.31,215.7 83.7,215.69 							"/>
							<polygon style="fill:#515151;" points="85.13,225.2 84.59,225.2 84.14,215.68 84.69,215.67 							"/>
							<polygon style="fill:#515151;" points="85.78,225.19 85.39,225.19 84.95,215.67 85.33,215.66 							"/>
							<polygon style="fill:#515151;" points="86.59,225.18 86.2,225.18 85.77,215.65 86.15,215.65 							"/>
							<polygon style="fill:#515151;" points="87.55,225.17 86.87,225.18 86.44,215.64 87.12,215.63 							"/>
							<polygon style="fill:#515151;" points="88.22,225.16 87.83,225.16 87.4,215.63 87.79,215.62 							"/>
							<polygon style="fill:#515151;" points="89.03,225.15 88.64,225.15 88.22,215.61 88.61,215.61 							"/>
							<polygon style="fill:#515151;" points="89.85,225.14 89.46,225.14 89.04,215.6 89.43,215.59 							"/>
							<polygon style="fill:#515151;" points="90.81,225.13 90.13,225.14 89.72,215.59 90.4,215.58 							"/>
							<polygon style="fill:#515151;" points="91.48,225.12 91.09,225.12 90.69,215.57 91.08,215.56 							"/>
							<polygon style="fill:#515151;" points="92.3,225.11 91.91,225.11 91.51,215.56 91.9,215.55 							"/>
							<polygon style="fill:#515151;" points="93.11,225.1 92.73,225.1 92.33,215.54 92.72,215.54 							"/>
							<polygon style="fill:#515151;" points="93.89,225.09 93.09,225.1 92.7,215.54 93.51,215.52 							"/>
							<polygon style="fill:#515151;" points="94.75,225.08 94.36,225.08 93.98,215.51 94.37,215.51 							"/>
							<polygon style="fill:#515151;" points="95.57,225.07 95.18,225.07 94.81,215.5 95.2,215.49 							"/>
							<polygon style="fill:#515151;" points="96.39,225.06 96,225.06 95.63,215.49 96.03,215.48 							"/>
							<polygon style="fill:#515151;" points="97.21,225.05 96.82,225.05 96.46,215.47 96.85,215.47 							"/>
							<polygon style="fill:#515151;" points="98,225.04 97.02,225.05 96.66,215.47 97.65,215.45 							"/>
							<polygon style="fill:#515151;" points="98.86,225.03 98.47,225.03 98.12,215.44 98.51,215.44 							"/>
						</g>
						<path style="opacity:0.32;fill:#EEB87A;" d="M98.79,194.95c-9.78-5.64-17.46-14.21-23.03-22.89l3.08,59.76l65.13-2.98
							l0.2-25.28C128.91,206.14,111.77,202.43,98.79,194.95z"/>
					</g>
				</g>
				<radialGradient id="SVGID_2_" cx="223.4904" cy="124.0388" r="153.0788" gradientUnits="userSpaceOnUse">
					<stop  offset="0" style="stop-color:#FFC9BD"/>
					<stop  offset="0.1536" style="stop-color:#E6B2AD"/>
					<stop  offset="0.5533" style="stop-color:#A87B87"/>
					<stop  offset="0.8466" style="stop-color:#82596F"/>
					<stop  offset="1" style="stop-color:#734C66"/>
				</radialGradient>
				<path style="opacity:0.32;fill:url(#SVGID_2_);" d="M332.93,219.94l1.78-72.56l-25.72,1.31l1.75-68.5l0.07-0.07v-2.54
					l-1.93,0.04v0l-10.59,0.21l0,0l-1.89,0.04l-38.08,0.75l1.63-63.7l0.07-0.07v-2.54l-1.93,0.04v0l-14.41,0.28v0l-15.02,0.3l0,0
					l-51.28,1.01l-29.78,12.35l1.05,37.77l-13.76,0.22l0,0l-18.47,0.3l0,0l-13.46,0.22L66.33,77.14l2.24,65.49l-25.62,12.92
					l4.92,66.53c-19.73,2.66-32.4,4.62-32.4,4.62s58.18,26.7,172.79,26.7c100.9,0,186.85-25.69,186.85-25.69
					S358.16,224.08,332.93,219.94z"/>
			</g>
			<g>
				<path style="fill:#34283B;" d="M432.56,15.43c0,0-30.51,9.29-30.82,12.54c-0.31,3.25,10.69,4.49,33.29-0.77
					C435.03,27.2,434.11,16.05,432.56,15.43z"/>
				<polygon style="fill:#34283B;" points="426.52,23.11 493.52,253.77 503.12,253.77 437.67,19.3 				"/>
				<path style="fill:#34283B;" d="M442.55,18.55c0,5.23-3.9,9.47-8.71,9.47c-4.81,0-8.71-4.24-8.71-9.47s3.9-9.47,8.71-9.47
					C438.65,9.08,442.55,13.32,442.55,18.55z"/>
				<g>
					<g>
						<path style="fill:#F8C58A;" d="M365.54,109.61l10.59,34.95l60.63-13.47c0,0,61.09-7.2,60.16-7.9
							c-0.93-0.7-12.54-39.02-12.54-39.02l-62.49-3.87L365.54,109.61z"/>
						<polygon style="fill:#D78846;" points="365.54,109.61 376.12,144.56 436.75,131.09 421.88,80.3 						"/>
						<polygon style="fill:#885736;" points="459.82,88.85 462.3,98.72 482.9,99.6 480.26,90 						"/>
						<g>
							<polygon style="fill:#EAECED;" points="376.95,121.13 392.89,114.67 389.62,105.9 374.11,112.94 							"/>
							<polygon style="fill:#515151;" points="390.66,114.41 391.51,114.06 389.03,107.54 388.2,107.92 							"/>
							<polygon style="fill:#515151;" points="390.5,114.48 390.83,114.34 388.36,107.84 388.04,107.99 							"/>
							<polygon style="fill:#515151;" points="389.79,114.77 390.13,114.63 387.68,108.16 387.35,108.3 							"/>
							<polygon style="fill:#515151;" points="389.09,115.05 389.42,114.92 387,108.47 386.67,108.61 							"/>
							<polygon style="fill:#515151;" points="388.26,115.4 388.72,115.21 386.31,108.78 385.86,108.98 							"/>
							<polygon style="fill:#515151;" points="387.71,115.62 388.04,115.49 385.65,109.08 385.33,109.22 							"/>
							<polygon style="fill:#515151;" points="387.03,115.9 387.35,115.77 384.98,109.38 384.67,109.52 							"/>
							<polygon style="fill:#515151;" points="386.24,116.23 386.8,116 384.44,109.63 383.89,109.88 							"/>
							<polygon style="fill:#515151;" points="385.68,116.46 386,116.33 383.66,109.98 383.35,110.12 							"/>
							<polygon style="fill:#515151;" points="385.02,116.73 385.33,116.6 383.01,110.28 382.7,110.41 							"/>
							<polygon style="fill:#515151;" points="384.35,117.01 384.67,116.88 382.36,110.57 382.06,110.71 							"/>
							<polygon style="fill:#515151;" points="383.58,117.32 384.13,117.1 381.84,110.81 381.31,111.05 							"/>
							<polygon style="fill:#515151;" points="383.05,117.54 383.35,117.42 381.09,111.15 380.79,111.29 							"/>
							<polygon style="fill:#515151;" points="382.4,117.81 382.71,117.68 380.45,111.44 380.16,111.57 							"/>
							<polygon style="fill:#515151;" points="381.76,118.07 382.06,117.95 379.83,111.72 379.53,111.86 							"/>
							<polygon style="fill:#515151;" points="381.15,118.32 381.78,118.07 379.55,111.85 378.94,112.13 							"/>
							<polygon style="fill:#515151;" points="380.49,118.6 380.79,118.47 378.59,112.29 378.29,112.42 							"/>
							<polygon style="fill:#515151;" points="379.86,118.86 380.16,118.73 377.97,112.56 377.68,112.7 							"/>
							<polygon style="fill:#515151;" points="379.24,119.11 379.53,118.99 377.36,112.84 377.08,112.97 							"/>
							<polygon style="fill:#515151;" points="378.62,119.37 378.91,119.25 376.76,113.12 376.47,113.25 							"/>
							<polygon style="fill:#515151;" points="378.03,119.61 378.77,119.31 376.62,113.18 375.9,113.51 							"/>
							<polygon style="fill:#515151;" points="377.4,119.87 377.69,119.75 375.56,113.66 375.28,113.79 							"/>
						</g>
					</g>
					<polygon style="fill:#F8C58A;" points="522.85,109.91 447.59,108.09 363.04,143.48 392.54,255.68 495.92,258.13 558.78,212.46 
											"/>
					<polygon style="fill:#F8C58A;" points="522.85,109.91 447.59,108.09 363.04,143.48 392.54,255.68 495.92,258.13 558.78,212.46 
											"/>
					<path style="opacity:0.32;fill:#EEB87A;" d="M541.18,174.97c-5.47,1.53-11.19,2.42-17.09,2.42c-34.98,0-64.2-28.82-64.97-63.64
						l-5.65-0.14l27.87,90.42l71.42,4.03L541.18,174.97z"/>
					<polygon style="fill:#D78846;" points="477.63,208.05 447.59,108.09 363.04,143.48 392.54,255.68 495.92,258.13 558.78,212.46 
											"/>
					<polygon style="fill:#AC5E23;" points="477.63,208.05 392.54,255.68 495.92,258.13 558.78,212.46 					"/>
					<polygon style="fill:#885736;" points="493.67,109.2 523.17,210.53 469.16,257.5 484,257.85 536.26,211.24 506.03,109.5 					
						"/>
					<polygon style="fill:#482513;" points="523.17,210.53 469.16,257.5 484,257.85 536.26,211.24 					"/>
					<g>
						<g>
							<path style="fill:#34283B;" d="M492.77,274.86c-4.79,8.47-13.33,12-19.06,7.87c-5.73-4.12-6.49-14.33-1.7-22.81
								c4.79-8.47,13.33-12,19.06-7.87C496.8,256.18,497.56,266.39,492.77,274.86z"/>
						</g>
						<polygon style="fill:#34283B;" points="498.07,261.38 377.06,262.25 379.46,250.44 507.67,252.65 						"/>
						<path style="fill:#34283B;" d="M398.34,254.2l47.88-27.47c0.69-0.4,1.47-0.6,2.27-0.6h81.93c3.49,0,5.04,4.37,2.35,6.58
							l-31.12,25.43l-9.77-2.45l30.14-21.71c0.52-0.38,0.25-1.2-0.39-1.19l-69.76,0.67c-0.77,0-1.53,0.2-2.21,0.58l-38.62,21.65
							L398.34,254.2z"/>
						<path style="fill:#34283B;" d="M326.23,19.79c0,0-30.51,9.29-30.82,12.54c-0.31,3.25,10.69,4.49,33.29-0.77
							C328.71,31.56,327.78,20.41,326.23,19.79z"/>
						<polygon style="fill:#34283B;" points="320.19,27.47 387.19,258.13 396.8,258.13 331.34,23.66 						"/>
						<path style="fill:#34283B;" d="M336.22,22.91c0,5.23-3.9,9.47-8.71,9.47c-4.81,0-8.71-4.24-8.71-9.47s3.9-9.47,8.71-9.47
							C332.32,13.44,336.22,17.68,336.22,22.91z"/>
						<polygon style="fill:#34283B;" points="383.18,236.55 377.06,253.27 384.02,254.9 388.32,243.52 						"/>
						<g>
							<path style="fill:#34283B;" d="M388.28,283.57c-6.48,11.45-18.01,16.22-25.76,10.64c-7.75-5.57-8.77-19.37-2.29-30.82
								c6.48-11.45,18.01-16.22,25.76-10.64C393.73,258.31,394.76,272.11,388.28,283.57z"/>
							<path style="fill:#CAC7CC;" d="M381.1,278.4c-3.16,5.59-8.8,7.92-12.58,5.2c-3.78-2.72-4.28-9.46-1.12-15.05
								c3.16-5.59,8.8-7.92,12.58-5.2C383.77,266.07,384.27,272.81,381.1,278.4z"/>
							<path style="fill:#7E7783;" d="M374.4,275.72c-2.67-1.92-3.32-6.29-1.78-10.38c-1.49,0.87-2.89,2.26-3.94,4.12
								c-2.57,4.55-2.17,10.03,0.91,12.24c3.08,2.21,7.66,0.32,10.23-4.23c0.34-0.61,0.63-1.23,0.86-1.86
								C378.55,276.87,376.21,277.03,374.4,275.72z"/>
						</g>
					</g>
					<polygon style="fill:#5A3A2A;" points="382.69,147.12 386.67,158.5 426.53,142.01 422.93,129.81 					"/>
					<polygon style="fill:#885736;" points="441.16,172.44 463.26,160.23 487.62,167.09 492.85,186.61 469.5,180.45 449.29,191.02 
											"/>
					<polygon style="fill:#5A3A2A;" points="441.16,172.44 463.26,160.23 469.5,180.45 449.29,191.02 					"/>
				</g>
				<radialGradient id="SVGID_3_" cx="462.7507" cy="119.111" r="164.7141" gradientUnits="userSpaceOnUse">
					<stop  offset="0" style="stop-color:#FFC9BD"/>
					<stop  offset="0.3911" style="stop-color:#CB9B9D"/>
					<stop  offset="1" style="stop-color:#734C66"/>
				</radialGradient>
				<path style="opacity:0.32;fill:url(#SVGID_3_);" d="M534.06,230.42l24.72-17.96l-35.93-102.55l-16.82-0.41v0l-12.36-0.3l0,0
					l-1.57-0.04c-3.55-11.19-7.73-25-7.73-25l-28.51-1.77l-16.41-56.66c1.88-1.74,3.1-4.29,3.1-7.19c0-5.23-3.9-9.47-8.71-9.47
					c-4.57,0-8.27,3.83-8.64,8.7c-9.05,2.97-23.24,7.98-23.46,10.2c-0.28,2.9,8.46,4.19,26.39,0.7l15.68,52.98l-21.92-1.36
					l-56.35,29.32l8.82,29.13l-9.41,3.94L333.12,30.1c1.88-1.74,3.1-4.29,3.1-7.19c0-5.23-3.9-9.47-8.71-9.47
					c-4.57,0-8.27,3.83-8.64,8.7c-9.05,2.98-23.24,7.98-23.46,10.2c-0.28,2.9,8.46,4.19,26.39,0.7l60.14,206.91l-3.84,10.49
					c-6.42,0.27-13.37,4.99-17.87,12.95c-6.48,11.45-5.45,25.25,2.29,30.82c7.75,5.57,19.28,0.81,25.76-10.64
					c4-7.08,5.12-15.04,3.58-21.42l79.37-0.57c-3.83,8.11-2.89,17.3,2.48,21.16c5.73,4.12,14.26,0.6,19.06-7.87
					c2.48-4.39,3.45-9.23,3.03-13.47l2.28-0.02l3.57-3.25l31.12-25.43C533.54,232.07,533.93,231.26,534.06,230.42z"/>
			</g>
		</g>
		<polygon style="fill:#FEFEFE;" points="37.97,63.52 35.3,73.89 25.34,76.31 35.3,79.85 37.97,92.13 39.85,79.85 48.39,76.31 
			40.03,73.89 		"/>
		<polygon style="fill:#FEFEFE;" points="330.83,114.4 328.82,122.2 321.32,124.03 328.82,126.69 330.83,135.94 332.25,126.69 
			338.67,124.03 332.38,122.2 		"/>
		<polygon style="fill:#FEFEFE;" points="120.35,24.83 118.95,30.3 113.69,31.57 118.95,33.44 120.35,39.91 121.35,33.44 
			125.85,31.57 121.44,30.3 		"/>
		<polygon style="fill:#FEFEFE;" points="54.13,123.47 52.73,128.93 47.47,130.21 52.73,132.07 54.13,138.55 55.13,132.07 
			59.63,130.21 55.22,128.93 		"/>
	</g>
	<polygon style="fill:#D5D1D1;" points="480.2,30.78 477.53,41.15 467.57,43.57 477.53,47.11 480.2,59.39 482.08,47.11 
		490.61,43.57 482.26,41.15 	"/>
	<polygon style="fill:#D5D1D1;" points="553.43,86.95 551.55,94.25 544.53,95.96 551.55,98.45 553.43,107.11 554.76,98.45 
		560.77,95.96 554.88,94.25 	"/>
</g>
</svg>
