<?xml version="1.0" encoding="utf-8"?>
<!-- Generator: Adobe Illustrator 24.1.1, SVG Export Plug-In . SVG Version: 6.00 Build 0)  -->
<svg version="1.1" id="Capa_7" xmlns="http://www.w3.org/2000/svg" xmlns:xlink="http://www.w3.org/1999/xlink" x="0px" y="0px"
	 viewBox="0 0 750 500" style="enable-background:new 0 0 750 500;" xml:space="preserve">
<g id="Background_Complete">
	<g>
		<g>
			<g>
				<path style="fill:#F5F5F5;" d="M669.33,61.99c0.58-4.24-5.4-7.73-9.9-8.09c-2.14-0.17-4.37,0.15-6.4-0.55
					c-4.4-1.53-6.16-7.22-10.46-9.03c-3.21-1.35-6.91-0.15-10.02,1.42c-3.11,1.57-6.19,3.54-9.67,3.76
					c-3.03,0.19-6.31-0.93-8.96,0.55c-1.97,1.1-3.01,3.37-4.82,4.71c-1.78,1.31-4.1,1.59-6.31,1.71c-2.21,0.12-4.49,0.14-6.5,1.06
					c-2.01,0.92-3.67,3.04-3.25,5.21L669.33,61.99z"/>
			</g>
		</g>
	</g>
	<g>
		<g>
			<g>
				<rect x="103.12" y="137.51" style="fill:#F5F5F5;" width="84.52" height="267.86"/>
			</g>
		</g>
		<g>
			<g>
				<rect x="145.38" y="137.51" style="fill:#EBEBEB;" width="42.26" height="267.12"/>
			</g>
		</g>
		<g>
			<g>
				<rect x="112.77" y="111.22" style="fill:#F5F5F5;" width="29.85" height="26.3"/>
			</g>
		</g>
		<g>
			<g>
				<rect x="135.5" y="111.22" style="fill:#EBEBEB;" width="7.11" height="26.3"/>
			</g>
		</g>
		<g>
			<g>
				<polyline style="fill:#E0E0E0;" points="96.08,137.51 96.08,135.98 190.11,135.98 190.11,137.51 				"/>
			</g>
		</g>
		<g>
			<g>
				<rect x="119.8" y="148.98" style="fill:#FAFAFA;" width="7.15" height="15.08"/>
			</g>
		</g>
		<g>
			<g>
				<g>
					<path style="fill:#E0E0E0;" d="M145.38,169.99c0,0.16-9.46,0.29-21.13,0.29c-11.67,0-21.13-0.13-21.13-0.29
						c0-0.16,9.46-0.29,21.13-0.29C135.92,169.7,145.38,169.83,145.38,169.99z"/>
				</g>
			</g>
		</g>
		<g>
			<g>
				<g>
					<rect x="162.43" y="148.98" style="fill:#E0E0E0;" width="7.15" height="15.08"/>
				</g>
			</g>
			<g>
				<g>
					<g>
						<path style="fill:#E0E0E0;" d="M188.01,169.99c0,0.16-9.46,0.29-21.13,0.29c-11.67,0-21.13-0.13-21.13-0.29
							c0-0.16,9.46-0.29,21.13-0.29C178.55,169.7,188.01,169.83,188.01,169.99z"/>
					</g>
				</g>
			</g>
		</g>
		<g>
			<g>
				<g>
					<rect x="162.43" y="178.93" style="fill:#E0E0E0;" width="7.15" height="15.09"/>
				</g>
			</g>
			<g>
				<g>
					<g>
						<path style="fill:#E0E0E0;" d="M188.01,199.94c0,0.16-9.46,0.29-21.13,0.29c-11.67,0-21.13-0.13-21.13-0.29
							c0-0.16,9.46-0.29,21.13-0.29C178.55,199.65,188.01,199.78,188.01,199.94z"/>
					</g>
				</g>
			</g>
		</g>
		<g>
			<g>
				<g>
					<rect x="162.43" y="209.78" style="fill:#E0E0E0;" width="7.15" height="15.08"/>
				</g>
			</g>
			<g>
				<g>
					<g>
						<path style="fill:#E0E0E0;" d="M188.01,230.79c0,0.16-9.46,0.29-21.13,0.29c-11.67,0-21.13-0.13-21.13-0.29
							c0-0.16,9.46-0.29,21.13-0.29C178.55,230.5,188.01,230.63,188.01,230.79z"/>
					</g>
				</g>
			</g>
		</g>
		<g>
			<g>
				<g>
					<rect x="162.43" y="240.64" style="fill:#E0E0E0;" width="7.15" height="15.08"/>
				</g>
			</g>
			<g>
				<g>
					<g>
						<path style="fill:#E0E0E0;" d="M188.01,261.64c0,0.16-9.46,0.29-21.13,0.29c-11.67,0-21.13-0.13-21.13-0.29
							c0-0.16,9.46-0.29,21.13-0.29C178.55,261.35,188.01,261.48,188.01,261.64z"/>
					</g>
				</g>
			</g>
		</g>
		<g>
			<g>
				<g>
					<rect x="162.43" y="270.61" style="fill:#E0E0E0;" width="7.15" height="15.08"/>
				</g>
			</g>
			<g>
				<g>
					<g>
						<path style="fill:#E0E0E0;" d="M188.01,291.61c0,0.16-9.46,0.29-21.13,0.29c-11.67,0-21.13-0.13-21.13-0.29
							c0-0.16,9.46-0.29,21.13-0.29C178.55,291.32,188.01,291.45,188.01,291.61z"/>
					</g>
				</g>
			</g>
		</g>
		<g>
			<g>
				<g>
					<rect x="162.43" y="300.7" style="fill:#E0E0E0;" width="7.15" height="15.08"/>
				</g>
			</g>
			<g>
				<g>
					<rect x="162.43" y="331.18" style="fill:#E0E0E0;" width="7.15" height="15.08"/>
				</g>
			</g>
			<g>
				<g>
					<g>
						<path style="fill:#E0E0E0;" d="M188.01,321.7c0,0.16-9.46,0.29-21.13,0.29c-11.67,0-21.13-0.13-21.13-0.29
							s9.46-0.29,21.13-0.29C178.55,321.42,188.01,321.55,188.01,321.7z"/>
					</g>
				</g>
			</g>
		</g>
		<g>
			<g>
				<rect x="119.8" y="179.39" style="fill:#FAFAFA;" width="7.15" height="15.08"/>
			</g>
		</g>
		<g>
			<g>
				<g>
					<path style="fill:#E0E0E0;" d="M145.38,200.39c0,0.16-9.46,0.29-21.13,0.29c-11.67,0-21.13-0.13-21.13-0.29
						c0-0.16,9.46-0.29,21.13-0.29C135.92,200.1,145.38,200.23,145.38,200.39z"/>
				</g>
			</g>
		</g>
		<g>
			<g>
				<rect x="119.8" y="209.79" style="fill:#FAFAFA;" width="7.15" height="15.08"/>
			</g>
		</g>
		<g>
			<g>
				<g>
					<path style="fill:#E0E0E0;" d="M145.38,230.8c0,0.16-9.46,0.29-21.13,0.29c-11.67,0-21.13-0.13-21.13-0.29
						c0-0.16,9.46-0.29,21.13-0.29C135.92,230.51,145.38,230.64,145.38,230.8z"/>
				</g>
			</g>
		</g>
		<g>
			<g>
				<rect x="119.8" y="240.2" style="fill:#FAFAFA;" width="7.15" height="15.08"/>
			</g>
		</g>
		<g>
			<g>
				<g>
					<path style="fill:#E0E0E0;" d="M145.38,261.21c0,0.16-9.46,0.29-21.13,0.29c-11.67,0-21.13-0.13-21.13-0.29
						c0-0.16,9.46-0.29,21.13-0.29C135.92,260.92,145.38,261.05,145.38,261.21z"/>
				</g>
			</g>
		</g>
		<g>
			<g>
				<rect x="119.8" y="270.61" style="fill:#FAFAFA;" width="7.15" height="15.08"/>
			</g>
		</g>
		<g>
			<g>
				<g>
					<path style="fill:#E0E0E0;" d="M145.38,291.61c0,0.16-9.46,0.29-21.13,0.29c-11.67,0-21.13-0.13-21.13-0.29
						c0-0.16,9.46-0.29,21.13-0.29C135.92,291.32,145.38,291.45,145.38,291.61z"/>
				</g>
			</g>
		</g>
		<g>
			<g>
				<rect x="119.8" y="301.01" style="fill:#FAFAFA;" width="7.15" height="15.09"/>
			</g>
		</g>
		<g>
			<g>
				<g>
					<path style="fill:#E0E0E0;" d="M145.38,322.02c0,0.16-9.46,0.29-21.13,0.29c-11.67,0-21.13-0.13-21.13-0.29
						c0-0.16,9.46-0.29,21.13-0.29C135.92,321.73,145.38,321.86,145.38,322.02z"/>
				</g>
			</g>
		</g>
		<g>
			<g>
				<g>
					<rect x="119.8" y="331.42" style="fill:#FAFAFA;" width="7.15" height="15.08"/>
				</g>
			</g>
		</g>
	</g>
	<g>
		<g>
			<g>
				<rect x="399.31" y="76.42" style="fill:#F5F5F5;" width="121.83" height="386.1"/>
			</g>
		</g>
		<g>
			<g>
				<rect x="460.22" y="76.42" style="fill:#EBEBEB;" width="60.91" height="385.04"/>
			</g>
		</g>
		<g>
			<g>
				<rect x="413.22" y="38.52" style="fill:#F5F5F5;" width="43.02" height="37.91"/>
			</g>
		</g>
		<g>
			<g>
				<rect x="445.99" y="38.52" style="fill:#EBEBEB;" width="10.25" height="37.91"/>
			</g>
		</g>
		<g>
			<g>
				<polyline style="fill:#E0E0E0;" points="389.16,76.42 389.16,74.21 524.7,74.21 524.7,76.42 				"/>
			</g>
		</g>
		<g>
			<g>
				<rect x="423.36" y="92.96" style="fill:#FAFAFA;" width="10.31" height="21.74"/>
			</g>
		</g>
		<g>
			<g>
				<g>
					<path style="fill:#E0E0E0;" d="M460.22,123.23c0,0.23-13.64,0.42-30.46,0.42c-16.82,0-30.46-0.19-30.46-0.42
						s13.63-0.42,30.46-0.42C446.59,122.82,460.22,123.01,460.22,123.23z"/>
				</g>
			</g>
		</g>
		<g>
			<g>
				<g>
					<rect x="484.8" y="92.96" style="fill:#E0E0E0;" width="10.31" height="21.74"/>
				</g>
			</g>
			<g>
				<g>
					<g>
						<path style="fill:#E0E0E0;" d="M521.67,123.23c0,0.23-13.64,0.42-30.46,0.42c-16.82,0-30.46-0.19-30.46-0.42
							s13.63-0.42,30.46-0.42C508.03,122.82,521.67,123.01,521.67,123.23z"/>
					</g>
				</g>
			</g>
		</g>
		<g>
			<g>
				<g>
					<rect x="484.8" y="136.13" style="fill:#E0E0E0;" width="10.31" height="21.74"/>
				</g>
			</g>
			<g>
				<g>
					<g>
						<path style="fill:#E0E0E0;" d="M521.67,166.41c0,0.23-13.64,0.42-30.46,0.42c-16.82,0-30.46-0.19-30.46-0.42
							c0-0.23,13.63-0.41,30.46-0.41C508.03,165.99,521.67,166.18,521.67,166.41z"/>
					</g>
				</g>
			</g>
		</g>
		<g>
			<g>
				<g>
					<rect x="484.8" y="180.6" style="fill:#E0E0E0;" width="10.31" height="21.74"/>
				</g>
			</g>
			<g>
				<g>
					<g>
						<path style="fill:#E0E0E0;" d="M521.67,210.88c0,0.23-13.64,0.42-30.46,0.42c-16.82,0-30.46-0.19-30.46-0.42
							c0-0.23,13.63-0.42,30.46-0.42C508.03,210.46,521.67,210.65,521.67,210.88z"/>
					</g>
				</g>
			</g>
		</g>
		<g>
			<g>
				<g>
					<rect x="484.8" y="225.08" style="fill:#E0E0E0;" width="10.31" height="21.74"/>
				</g>
			</g>
			<g>
				<g>
					<g>
						<path style="fill:#E0E0E0;" d="M521.67,255.35c0,0.23-13.64,0.42-30.46,0.42c-16.82,0-30.46-0.19-30.46-0.42
							c0-0.23,13.63-0.41,30.46-0.41C508.03,254.94,521.67,255.12,521.67,255.35z"/>
					</g>
				</g>
			</g>
		</g>
		<g>
			<g>
				<g>
					<rect x="484.8" y="268.28" style="fill:#E0E0E0;" width="10.31" height="21.74"/>
				</g>
			</g>
			<g>
				<g>
					<g>
						<path style="fill:#E0E0E0;" d="M521.67,298.56c0,0.23-13.64,0.42-30.46,0.42c-16.82,0-30.46-0.19-30.46-0.42
							c0-0.23,13.63-0.41,30.46-0.41C508.03,298.14,521.67,298.33,521.67,298.56z"/>
					</g>
				</g>
			</g>
		</g>
		<g>
			<g>
				<g>
					<rect x="484.8" y="311.65" style="fill:#E0E0E0;" width="10.31" height="21.74"/>
				</g>
			</g>
			<g>
				<g>
					<rect x="484.8" y="355.6" style="fill:#E0E0E0;" width="10.31" height="21.74"/>
				</g>
			</g>
			<g>
				<g>
					<g>
						<path style="fill:#E0E0E0;" d="M521.67,341.93c0,0.23-13.64,0.42-30.46,0.42c-16.82,0-30.46-0.19-30.46-0.42
							s13.63-0.42,30.46-0.42C508.03,341.52,521.67,341.7,521.67,341.93z"/>
					</g>
				</g>
			</g>
		</g>
		<g>
			<g>
				<rect x="423.36" y="136.79" style="fill:#FAFAFA;" width="10.31" height="21.74"/>
			</g>
		</g>
		<g>
			<g>
				<g>
					<path style="fill:#E0E0E0;" d="M460.22,167.07c0,0.23-13.64,0.42-30.46,0.42c-16.82,0-30.46-0.19-30.46-0.42
						c0-0.23,13.63-0.42,30.46-0.42C446.59,166.65,460.22,166.84,460.22,167.07z"/>
				</g>
			</g>
		</g>
		<g>
			<g>
				<rect x="423.36" y="180.62" style="fill:#FAFAFA;" width="10.31" height="21.74"/>
			</g>
		</g>
		<g>
			<g>
				<g>
					<path style="fill:#E0E0E0;" d="M460.22,210.9c0,0.23-13.64,0.42-30.46,0.42c-16.82,0-30.46-0.19-30.46-0.42
						c0-0.23,13.63-0.42,30.46-0.42C446.59,210.48,460.22,210.67,460.22,210.9z"/>
				</g>
			</g>
		</g>
		<g>
			<g>
				<rect x="423.36" y="224.45" style="fill:#FAFAFA;" width="10.31" height="21.74"/>
			</g>
		</g>
		<g>
			<g>
				<g>
					<path style="fill:#E0E0E0;" d="M460.22,254.73c0,0.23-13.64,0.42-30.46,0.42c-16.82,0-30.46-0.19-30.46-0.42
						c0-0.23,13.63-0.42,30.46-0.42C446.59,254.31,460.22,254.5,460.22,254.73z"/>
				</g>
			</g>
		</g>
		<g>
			<g>
				<rect x="423.36" y="268.28" style="fill:#FAFAFA;" width="10.31" height="21.74"/>
			</g>
		</g>
		<g>
			<g>
				<g>
					<path style="fill:#E0E0E0;" d="M460.22,298.56c0,0.23-13.64,0.42-30.46,0.42c-16.82,0-30.46-0.19-30.46-0.42
						c0-0.23,13.63-0.41,30.46-0.41C446.59,298.14,460.22,298.33,460.22,298.56z"/>
				</g>
			</g>
		</g>
		<g>
			<g>
				<rect x="423.36" y="312.11" style="fill:#FAFAFA;" width="10.31" height="21.74"/>
			</g>
		</g>
		<g>
			<g>
				<g>
					<path style="fill:#E0E0E0;" d="M460.22,342.39c0,0.23-13.64,0.42-30.46,0.42c-16.82,0-30.46-0.19-30.46-0.42
						c0-0.23,13.63-0.41,30.46-0.41C446.59,341.97,460.22,342.16,460.22,342.39z"/>
				</g>
			</g>
		</g>
		<g>
			<g>
				<g>
					<rect x="423.36" y="355.94" style="fill:#FAFAFA;" width="10.31" height="21.74"/>
				</g>
			</g>
		</g>
	</g>
	<g>
		<g>
			<g>
				<rect x="497.57" y="251.57" style="fill:#F5F5F5;" width="66.56" height="210.94"/>
			</g>
		</g>
		<g>
			<g>
				<rect x="530.85" y="251.57" style="fill:#EBEBEB;" width="33.28" height="210.36"/>
			</g>
		</g>
		<g>
			<g>
				<rect x="505.17" y="230.86" style="fill:#F5F5F5;" width="23.5" height="20.71"/>
			</g>
		</g>
		<g>
			<g>
				<rect x="523.07" y="230.86" style="fill:#EBEBEB;" width="5.6" height="20.71"/>
			</g>
		</g>
		<g>
			<g>
				<polyline style="fill:#E0E0E0;" points="492.02,251.57 492.02,250.36 566.08,250.36 566.08,251.57 				"/>
			</g>
		</g>
		<g>
			<g>
				<rect x="510.71" y="260.6" style="fill:#FAFAFA;" width="5.63" height="11.88"/>
			</g>
		</g>
		<g>
			<g>
				<g>
					<path style="fill:#E0E0E0;" d="M530.85,277.15c0,0.13-7.45,0.23-16.64,0.23c-9.19,0-16.64-0.1-16.64-0.23
						c0-0.13,7.45-0.23,16.64-0.23C523.4,276.92,530.85,277.02,530.85,277.15z"/>
				</g>
			</g>
		</g>
		<g>
			<g>
				<g>
					<rect x="544.28" y="260.6" style="fill:#E0E0E0;" width="5.63" height="11.88"/>
				</g>
			</g>
			<g>
				<g>
					<g>
						<path style="fill:#E0E0E0;" d="M564.42,277.15c0,0.13-7.45,0.23-16.64,0.23c-9.19,0-16.64-0.1-16.64-0.23
							c0-0.13,7.45-0.23,16.64-0.23C556.97,276.92,564.42,277.02,564.42,277.15z"/>
					</g>
				</g>
			</g>
		</g>
		<g>
			<g>
				<g>
					<rect x="544.28" y="284.19" style="fill:#E0E0E0;" width="5.63" height="11.88"/>
				</g>
			</g>
			<g>
				<g>
					<g>
						<path style="fill:#E0E0E0;" d="M564.42,300.73c0,0.13-7.45,0.23-16.64,0.23c-9.19,0-16.64-0.1-16.64-0.23
							c0-0.13,7.45-0.23,16.64-0.23C556.97,300.5,564.42,300.61,564.42,300.73z"/>
					</g>
				</g>
			</g>
		</g>
		<g>
			<g>
				<g>
					<rect x="544.28" y="308.49" style="fill:#E0E0E0;" width="5.63" height="11.88"/>
				</g>
			</g>
			<g>
				<g>
					<g>
						<path style="fill:#E0E0E0;" d="M564.42,325.03c0,0.13-7.45,0.23-16.64,0.23c-9.19,0-16.64-0.1-16.64-0.23
							c0-0.13,7.45-0.23,16.64-0.23C556.97,324.8,564.42,324.9,564.42,325.03z"/>
					</g>
				</g>
			</g>
		</g>
		<g>
			<g>
				<g>
					<rect x="544.28" y="332.78" style="fill:#E0E0E0;" width="5.63" height="11.88"/>
				</g>
			</g>
			<g>
				<g>
					<g>
						<path style="fill:#E0E0E0;" d="M564.42,349.33c0,0.13-7.45,0.23-16.64,0.23c-9.19,0-16.64-0.1-16.64-0.23
							c0-0.13,7.45-0.23,16.64-0.23C556.97,349.1,564.42,349.2,564.42,349.33z"/>
					</g>
				</g>
			</g>
		</g>
		<g>
			<g>
				<g>
					<rect x="544.28" y="356.39" style="fill:#E0E0E0;" width="5.63" height="11.88"/>
				</g>
			</g>
			<g>
				<g>
					<g>
						<path style="fill:#E0E0E0;" d="M564.42,372.93c0,0.13-7.45,0.23-16.64,0.23c-9.19,0-16.64-0.1-16.64-0.23
							c0-0.13,7.45-0.23,16.64-0.23C556.97,372.7,564.42,372.8,564.42,372.93z"/>
					</g>
				</g>
			</g>
		</g>
		<g>
			<g>
				<g>
					<rect x="544.28" y="380.09" style="fill:#E0E0E0;" width="5.63" height="11.88"/>
				</g>
			</g>
			<g>
				<g>
					<rect x="544.28" y="404.09" style="fill:#E0E0E0;" width="5.63" height="11.88"/>
				</g>
			</g>
			<g>
				<g>
					<g>
						<path style="fill:#E0E0E0;" d="M564.42,396.63c0,0.13-7.45,0.23-16.64,0.23c-9.19,0-16.64-0.1-16.64-0.23
							c0-0.13,7.45-0.23,16.64-0.23C556.97,396.4,564.42,396.5,564.42,396.63z"/>
					</g>
				</g>
			</g>
		</g>
		<g>
			<g>
				<rect x="510.71" y="284.55" style="fill:#FAFAFA;" width="5.63" height="11.88"/>
			</g>
		</g>
		<g>
			<g>
				<g>
					<path style="fill:#E0E0E0;" d="M530.85,301.09c0,0.13-7.45,0.23-16.64,0.23c-9.19,0-16.64-0.1-16.64-0.23
						c0-0.13,7.45-0.23,16.64-0.23C523.4,300.86,530.85,300.97,530.85,301.09z"/>
				</g>
			</g>
		</g>
		<g>
			<g>
				<rect x="510.71" y="308.5" style="fill:#FAFAFA;" width="5.63" height="11.88"/>
			</g>
		</g>
		<g>
			<g>
				<g>
					<path style="fill:#E0E0E0;" d="M530.85,325.04c0,0.13-7.45,0.23-16.64,0.23c-9.19,0-16.64-0.1-16.64-0.23
						c0-0.13,7.45-0.23,16.64-0.23C523.4,324.81,530.85,324.91,530.85,325.04z"/>
				</g>
			</g>
		</g>
		<g>
			<g>
				<rect x="510.71" y="332.44" style="fill:#FAFAFA;" width="5.63" height="11.88"/>
			</g>
		</g>
		<g>
			<g>
				<g>
					<path style="fill:#E0E0E0;" d="M530.85,348.98c0,0.13-7.45,0.23-16.64,0.23c-9.19,0-16.64-0.1-16.64-0.23
						c0-0.13,7.45-0.23,16.64-0.23C523.4,348.76,530.85,348.86,530.85,348.98z"/>
				</g>
			</g>
		</g>
		<g>
			<g>
				<rect x="510.71" y="356.39" style="fill:#FAFAFA;" width="5.63" height="11.88"/>
			</g>
		</g>
		<g>
			<g>
				<g>
					<path style="fill:#E0E0E0;" d="M530.85,372.93c0,0.13-7.45,0.23-16.64,0.23c-9.19,0-16.64-0.1-16.64-0.23
						c0-0.13,7.45-0.23,16.64-0.23C523.4,372.7,530.85,372.8,530.85,372.93z"/>
				</g>
			</g>
		</g>
		<g>
			<g>
				<rect x="510.71" y="380.33" style="fill:#FAFAFA;" width="5.63" height="11.88"/>
			</g>
		</g>
		<g>
			<g>
				<g>
					<path style="fill:#E0E0E0;" d="M530.85,396.88c0,0.13-7.45,0.23-16.64,0.23c-9.19,0-16.64-0.1-16.64-0.23
						c0-0.13,7.45-0.23,16.64-0.23C523.4,396.65,530.85,396.75,530.85,396.88z"/>
				</g>
			</g>
		</g>
		<g>
			<g>
				<g>
					<rect x="510.71" y="404.28" style="fill:#FAFAFA;" width="5.63" height="11.88"/>
				</g>
			</g>
		</g>
	</g>
	<g>
		<g>
			<g>
				<g>
					<rect x="158.67" y="326.52" style="fill:#E0E0E0;" width="71.66" height="136"/>
				</g>
			</g>
			<g>
				<g>
					<rect x="196.73" y="326.52" style="fill:#EBEBEB;" width="33.6" height="136"/>
				</g>
			</g>
		</g>
		<g>
			<g>
				<g>
					<rect x="173.7" y="339.31" style="fill:#F5F5F5;" width="6.44" height="15.65"/>
				</g>
			</g>
			<g>
				<g>
					<rect x="173.7" y="400.58" style="fill:#F5F5F5;" width="6.44" height="15.65"/>
				</g>
			</g>
			<g>
				<g>
					<g>
						<path style="fill:#F5F5F5;" d="M196.73,361.11c0,0.13-8.52,0.24-19.03,0.24c-10.51,0-19.03-0.11-19.03-0.24
							c0-0.13,8.52-0.24,19.03-0.24C188.21,360.87,196.73,360.98,196.73,361.11z"/>
					</g>
				</g>
			</g>
		</g>
		<g>
			<g>
				<g>
					<rect x="173.7" y="370.18" style="fill:#F5F5F5;" width="6.44" height="15.65"/>
				</g>
			</g>
			<g>
				<g>
					<g>
						<path style="fill:#F5F5F5;" d="M196.73,391.98c0,0.13-8.52,0.24-19.03,0.24c-10.51,0-19.03-0.11-19.03-0.24
							c0-0.13,8.52-0.24,19.03-0.24C188.21,391.73,196.73,391.84,196.73,391.98z"/>
					</g>
				</g>
			</g>
		</g>
		<g>
			<g>
				<rect x="203.87" y="339.31" style="fill:#E0E0E0;" width="6.44" height="15.65"/>
			</g>
		</g>
		<g>
			<g>
				<rect x="217.85" y="339.31" style="fill:#E0E0E0;" width="6.44" height="15.65"/>
			</g>
		</g>
		<g>
			<g>
				<rect x="203.87" y="369.02" style="fill:#E0E0E0;" width="6.44" height="15.65"/>
			</g>
		</g>
		<g>
			<g>
				<rect x="217.85" y="369.02" style="fill:#E0E0E0;" width="6.44" height="15.65"/>
			</g>
		</g>
		<g>
			<g>
				<rect x="203.87" y="398.72" style="fill:#E0E0E0;" width="6.44" height="15.65"/>
			</g>
		</g>
		<g>
			<g>
				<rect x="217.85" y="398.72" style="fill:#E0E0E0;" width="6.44" height="15.65"/>
			</g>
		</g>
		<g>
			<g>
				<rect x="153.29" y="323.23" style="fill:#E0E0E0;" width="82.43" height="3.41"/>
			</g>
		</g>
		<g>
			<g>
				<g>
					<path style="fill:#EBEBEB;" d="M230.83,326.96c0,0.13-16.02,0.24-35.77,0.24c-19.76,0-35.77-0.11-35.77-0.24
						c0-0.13,16.01-0.24,35.77-0.24C214.82,326.71,230.83,326.82,230.83,326.96z"/>
				</g>
			</g>
		</g>
	</g>
	<g>
		<g>
			<g>
				<g>
					<polygon style="fill:#EBEBEB;" points="159.49,462.42 44.09,462.42 43.58,280.03 158.99,280.03 					"/>
				</g>
			</g>
			<g>
				<g>
					<rect x="101.29" y="280.03" style="fill:#E0E0E0;" width="57.7" height="182.39"/>
				</g>
			</g>
			<g>
				<g>
					<rect x="56.76" y="244.12" style="fill:#EBEBEB;" width="40.75" height="35.91"/>
				</g>
			</g>
			<g>
				<g>
					<rect x="87.8" y="244.12" style="fill:#E0E0E0;" width="9.71" height="35.91"/>
				</g>
			</g>
			<g>
				<g>
					<rect x="33.97" y="277.93" style="fill:#E0E0E0;" width="128.4" height="2.09"/>
				</g>
			</g>
			<g>
				<g>
					<rect x="66.36" y="295.69" style="fill:#FFFFFF;" width="9.77" height="20.6"/>
				</g>
			</g>
			<g>
				<g>
					<g>
						<path style="fill:#E0E0E0;" d="M101.29,324.37c0,0.22-12.92,0.39-28.85,0.39c-15.94,0-28.85-0.18-28.85-0.39
							c0-0.22,12.92-0.39,28.85-0.39C88.37,323.98,101.29,324.15,101.29,324.37z"/>
					</g>
				</g>
			</g>
			<g>
				<g>
					<g>
						<rect x="124.57" y="295.69" style="fill:#F5F5F5;" width="9.77" height="20.6"/>
					</g>
				</g>
				<g>
					<g>
						<g>
							<path style="fill:#EBEBEB;" d="M159.49,324.37c0,0.22-12.92,0.39-28.85,0.39c-15.94,0-28.85-0.18-28.85-0.39
								c0-0.22,12.92-0.39,28.85-0.39C146.57,323.98,159.49,324.15,159.49,324.37z"/>
						</g>
					</g>
				</g>
			</g>
			<g>
				<g>
					<g>
						<rect x="124.57" y="336.58" style="fill:#F5F5F5;" width="9.77" height="20.6"/>
					</g>
				</g>
				<g>
					<g>
						<g>
							<path style="fill:#EBEBEB;" d="M159.49,365.27c0,0.22-12.92,0.39-28.85,0.39c-15.94,0-28.85-0.18-28.85-0.39
								c0-0.22,12.92-0.39,28.85-0.39C146.57,364.87,159.49,365.05,159.49,365.27z"/>
						</g>
					</g>
				</g>
			</g>
			<g>
				<g>
					<g>
						<rect x="124.57" y="378.71" style="fill:#F5F5F5;" width="9.77" height="20.6"/>
					</g>
				</g>
				<g>
					<g>
						<g>
							<path style="fill:#EBEBEB;" d="M159.49,407.4c0,0.22-12.92,0.39-28.85,0.39c-15.94,0-28.85-0.18-28.85-0.39
								s12.92-0.39,28.85-0.39C146.57,407,159.49,407.18,159.49,407.4z"/>
						</g>
					</g>
				</g>
			</g>
			<g>
				<g>
					<g>
						<rect x="124.57" y="420.84" style="fill:#F5F5F5;" width="9.77" height="20.6"/>
					</g>
				</g>
				<g>
					<g>
						<g>
							<path style="fill:#EBEBEB;" d="M159.49,449.52c0,0.22-12.92,0.39-28.85,0.39c-15.94,0-28.85-0.18-28.85-0.39
								c0-0.22,12.92-0.39,28.85-0.39C146.57,449.13,159.49,449.31,159.49,449.52z"/>
						</g>
					</g>
				</g>
			</g>
			<g>
				<g>
					<rect x="66.36" y="337.21" style="fill:#FFFFFF;" width="9.77" height="20.6"/>
				</g>
			</g>
			<g>
				<g>
					<g>
						<path style="fill:#E0E0E0;" d="M101.29,365.89c0,0.22-12.92,0.39-28.85,0.39c-15.94,0-28.85-0.18-28.85-0.39
							c0-0.22,12.92-0.39,28.85-0.39C88.37,365.5,101.29,365.67,101.29,365.89z"/>
					</g>
				</g>
			</g>
			<g>
				<g>
					<rect x="66.36" y="378.73" style="fill:#FFFFFF;" width="9.77" height="20.6"/>
				</g>
			</g>
			<g>
				<g>
					<g>
						<path style="fill:#E0E0E0;" d="M101.29,407.41c0,0.22-12.92,0.39-28.85,0.39c-15.94,0-28.85-0.18-28.85-0.39
							c0-0.22,12.92-0.39,28.85-0.39C88.37,407.02,101.29,407.19,101.29,407.41z"/>
					</g>
				</g>
			</g>
			<g>
				<g>
					<rect x="66.36" y="420.25" style="fill:#FFFFFF;" width="9.77" height="20.6"/>
				</g>
			</g>
			<g>
				<g>
					<g>
						<path style="fill:#E0E0E0;" d="M101.29,448.93c0,0.22-12.92,0.39-28.85,0.39c-15.94,0-28.85-0.18-28.85-0.39
							c0-0.22,12.92-0.39,28.85-0.39C88.37,448.54,101.29,448.71,101.29,448.93z"/>
					</g>
				</g>
			</g>
		</g>
	</g>
	<g>
		<g>
			<g>
				<path style="fill:#F5F5F5;" d="M706.55,179.99c0.83-6.06-7.72-11.05-14.15-11.56c-3.07-0.25-6.25,0.22-9.15-0.79
					c-6.29-2.19-8.8-10.32-14.94-12.91c-4.59-1.94-9.87-0.21-14.32,2.03c-4.45,2.24-8.85,5.06-13.82,5.38
					c-4.32,0.28-9.02-1.33-12.8,0.79c-2.82,1.57-4.3,4.82-6.89,6.74c-2.54,1.87-5.86,2.27-9.01,2.44c-3.15,0.17-6.42,0.2-9.29,1.52
					c-2.87,1.31-5.25,4.35-4.65,7.45L706.55,179.99z"/>
			</g>
		</g>
	</g>
	<g>
		<g>
			<g>
				<g>
					<g>
						<rect x="639.28" y="395.77" style="fill:#EBEBEB;" width="92.84" height="66.74"/>
					</g>
				</g>
				<g>
					<g>
						<path style="fill:#F5F5F5;" d="M664.18,395.77c0.13,0,0,14.09,0,14.09h-6.87v-14.09H664.18z"/>
					</g>
				</g>
			</g>
			<g>
				<g>
					
						<rect x="685.7" y="395.77" transform="matrix(-1 -1.224647e-16 1.224647e-16 -1 1417.8248 858.2842)" style="fill:#E0E0E0;" width="46.42" height="66.74"/>
				</g>
			</g>
		</g>
		<g>
			<g>
				<rect x="642.11" y="449.45" style="fill:#FFFFFF;" width="12.43" height="8.79"/>
			</g>
		</g>
		<g>
			<g>
				<rect x="656.84" y="449.45" style="fill:#FFFFFF;" width="6.21" height="8.79"/>
			</g>
		</g>
	</g>
	<g>
		<g>
			<g>
				<g>
					<g>
						<rect x="662.85" y="352.31" style="fill:#EBEBEB;" width="60.45" height="43.46"/>
					</g>
				</g>
				<g>
					<g>
						<path style="fill:#F5F5F5;" d="M679.07,352.31c0.09,0,0,9.18,0,9.18h-4.47v-9.18H679.07z"/>
					</g>
				</g>
			</g>
			<g>
				<g>
					
						<rect x="693.08" y="352.31" transform="matrix(-1 -1.224647e-16 1.224647e-16 -1 1416.3816 748.0829)" style="fill:#E0E0E0;" width="30.22" height="43.46"/>
				</g>
			</g>
		</g>
		<g>
			<g>
				<rect x="664.7" y="387.26" style="fill:#FFFFFF;" width="8.09" height="5.73"/>
			</g>
		</g>
		<g>
			<g>
				<rect x="674.28" y="387.26" style="fill:#FFFFFF;" width="4.05" height="5.73"/>
			</g>
		</g>
	</g>
	<g>
		<g>
			<g>
				<path style="fill:#EBEBEB;" d="M105.41,63.5c0.47-3.43-4.37-6.26-8.01-6.55c-1.74-0.14-3.54,0.13-5.18-0.45
					c-3.56-1.24-4.99-5.84-8.46-7.31c-2.6-1.1-5.59-0.12-8.11,1.15c-2.52,1.27-5.01,2.86-7.82,3.04c-2.45,0.16-5.11-0.75-7.25,0.44
					c-1.6,0.89-2.43,2.73-3.9,3.82c-1.44,1.06-3.32,1.29-5.1,1.38c-1.79,0.1-3.63,0.12-5.26,0.86c-1.63,0.74-2.97,2.46-2.63,4.22
					L105.41,63.5z"/>
			</g>
		</g>
	</g>
	<g>
		<g>
			<g>
				<path style="fill:#EBEBEB;" d="M723.41,133.17c0.46-3.35-4.26-6.1-7.81-6.39c-1.69-0.14-3.45,0.12-5.06-0.44
					c-3.47-1.21-4.86-5.7-8.25-7.13c-2.53-1.07-5.45-0.12-7.91,1.12c-2.46,1.24-4.89,2.79-7.63,2.97c-2.39,0.15-4.98-0.73-7.07,0.43
					c-1.56,0.87-2.37,2.66-3.81,3.72c-1.4,1.04-3.24,1.25-4.98,1.35c-1.74,0.09-3.55,0.11-5.13,0.84c-1.59,0.73-2.9,2.4-2.57,4.12
					L723.41,133.17z"/>
			</g>
		</g>
	</g>
	<g>
		<g>
			<g>
				<path style="fill:#F5F5F5;" d="M211.72,84.75c0.86-6.27-7.98-11.43-14.63-11.96c-3.17-0.26-6.46,0.23-9.47-0.82
					c-6.51-2.27-9.11-10.68-15.46-13.35c-4.75-2-10.21-0.22-14.81,2.1c-4.6,2.32-9.15,5.23-14.29,5.56
					c-4.47,0.29-9.33-1.37-13.24,0.81c-2.92,1.63-4.44,4.99-7.13,6.97c-2.63,1.94-6.06,2.35-9.32,2.53
					c-3.26,0.18-6.64,0.21-9.61,1.57c-2.97,1.36-5.43,4.5-4.81,7.71L211.72,84.75z"/>
			</g>
		</g>
	</g>
</g>
<g id="Floor">
	<g>
		<g>
			<g>
				<path style="fill:#263238;" d="M731.78,462.51c0,0.14-152.7,0.26-341.02,0.26c-188.38,0-341.05-0.12-341.05-0.26
					c0-0.14,152.67-0.26,341.05-0.26C579.08,462.25,731.78,462.37,731.78,462.51z"/>
			</g>
		</g>
	</g>
</g>
<g id="Plants">
	<g>
		<g>
			<g>
				<g>
					<g>
						<g>
							<path style="fill:#2E9AD6;" d="M322.55,420.64c2.14,0.42,3.97,1.9,5.13,3.75c1.16,1.84,1.7,4.01,1.93,6.18
								c0.44,4.19-0.98,8.82-2.76,12.64c-4.1-2.25-6.04-7.31-6.87-9.94C318.67,429.1,318.84,420.79,322.55,420.64"/>
						</g>
					</g>
				</g>
			</g>
		</g>
		<g>
			<g>
				<g>
					<g>
						<g>
							<path style="fill:#2E9AD6;" d="M332.32,449.07c-1.06-2.19-0.65-4.93,0.77-6.9c1.43-1.97,3.76-3.18,6.16-3.52
								c1.11-0.16,2.37-0.1,3.19,0.67c0.77,0.71,0.96,1.9,0.69,2.92c-0.28,1.01-0.95,1.88-1.7,2.61
								C338.87,447.36,335.92,449.34,332.32,449.07"/>
						</g>
					</g>
				</g>
			</g>
		</g>
		<g>
			<g>
				<g>
					<g>
						<g>
							<g>
								<path style="fill:#263238;" d="M330.67,462.56c-0.02,0-0.04-0.31-0.06-0.87c-0.02-0.61-0.05-1.41-0.08-2.36
									c-0.04-1.98-0.15-4.8,0.75-7.76c0.88-2.95,2.48-5.33,3.99-6.67c0.74-0.68,1.42-1.14,1.91-1.4c0.24-0.14,0.45-0.22,0.58-0.29
									c0.13-0.06,0.21-0.09,0.21-0.08c0.04,0.06-1.13,0.55-2.56,1.93c-1.44,1.35-2.98,3.7-3.84,6.6c-0.88,2.9-0.81,5.69-0.82,7.67
									c0,1,0,1.8-0.01,2.36C330.71,462.26,330.69,462.56,330.67,462.56z"/>
							</g>
						</g>
					</g>
				</g>
			</g>
		</g>
		<g>
			<g>
				<g>
					<g>
						<g>
							<g>
								<path style="fill:#263238;" d="M322.98,426.98c0.01,0,0.05,0.12,0.12,0.36c0.08,0.27,0.17,0.61,0.29,1.04
									c0.25,0.9,0.6,2.22,1.01,3.84c0.83,3.25,1.9,7.76,2.98,12.76c1.08,5.01,1.95,9.56,2.53,12.86c0.29,1.65,0.52,2.99,0.66,3.92
									c0.07,0.44,0.12,0.79,0.16,1.07c0.03,0.24,0.05,0.37,0.04,0.38c-0.01,0-0.04-0.12-0.1-0.37c-0.06-0.27-0.13-0.62-0.22-1.06
									c-0.19-0.96-0.44-2.28-0.76-3.9c-0.64-3.29-1.54-7.83-2.62-12.84c-1.08-5-2.12-9.51-2.89-12.77
									c-0.38-1.6-0.69-2.91-0.91-3.86c-0.1-0.43-0.18-0.78-0.24-1.05C322.99,427.11,322.97,426.98,322.98,426.98z"/>
							</g>
						</g>
					</g>
				</g>
			</g>
		</g>
		<g>
			<g>
				<g>
					<g>
						<g>
							<path style="fill:#2E9AD6;" d="M326.92,452.86c-1.87-4.77-6.18-8.51-11.17-9.68c-1.27-0.3-2.85-0.33-3.61,0.74
								c-0.76,1.07-0.21,2.56,0.52,3.64c3.02,4.53,8.96,6.88,14.26,5.65"/>
						</g>
					</g>
				</g>
			</g>
		</g>
		<g>
			<g>
				<g>
					<g>
						<g>
							<g>
								<path style="fill:#263238;" d="M317.15,446.94c0-0.02,0.29,0.04,0.8,0.16c0.26,0.06,0.57,0.13,0.92,0.26
									c0.35,0.13,0.77,0.23,1.2,0.43c0.43,0.18,0.91,0.37,1.4,0.64c0.5,0.24,1.01,0.55,1.53,0.88c1.04,0.69,2.12,1.54,3.12,2.59
									c0.98,1.05,1.78,2.18,2.4,3.27c0.29,0.55,0.57,1.07,0.77,1.59c0.23,0.5,0.39,1,0.53,1.45c0.16,0.44,0.23,0.87,0.33,1.23
									c0.1,0.36,0.14,0.68,0.18,0.94c0.08,0.52,0.11,0.81,0.09,0.81c-0.07,0.01-0.2-1.15-0.8-2.91c-0.16-0.44-0.32-0.92-0.56-1.41
									c-0.21-0.51-0.49-1.02-0.79-1.55c-0.62-1.06-1.41-2.16-2.37-3.2c-0.98-1.03-2.03-1.87-3.05-2.56
									c-0.52-0.33-1.01-0.65-1.5-0.89c-0.47-0.27-0.94-0.47-1.37-0.67C318.27,447.24,317.13,447,317.15,446.94z"/>
							</g>
						</g>
					</g>
				</g>
			</g>
		</g>
	</g>
	<g>
		<g>
			<g>
				<g>
					<g>
						<g>
							<path style="fill:#E8505B;" d="M640.98,452.04c0.38-1.47-0.58-2.94-1.66-4s-2.37-2.02-2.93-3.42
								c-0.91-2.28,0.31-5.23-1.24-7.13c-0.91-1.12-2.55-1.49-3.36-2.69c-0.42-0.63-0.56-1.4-0.73-2.14
								c-0.85-3.77-2.74-7.29-5.4-10.1c-0.18,3.35,0.55,6.76,2.12,9.73c0.63,1.2,1.4,2.36,1.61,3.7c0.34,2.17-0.87,4.4-0.34,6.53
								c0.61,2.43,3.34,4.06,3.47,6.57c0.11,2.12-1.74,3.98-1.6,6.09c0.06,0.9,0.48,1.74,0.94,2.51c1.64,2.72,4.04,4.6,7.69,4.54
								l4.47,0.16L640.98,452.04z"/>
						</g>
					</g>
				</g>
			</g>
		</g>
		<g>
			<g>
				<g>
					<g>
						<g>
							<g>
								<path style="fill:#263238;" d="M640.98,452.04c0.38-1.47-0.58-2.94-1.66-4s-2.37-2.02-2.93-3.42
									c-0.91-2.28,0.31-5.23-1.24-7.13c-0.91-1.12-2.55-1.49-3.36-2.69c-0.42-0.63-0.56-1.4-0.73-2.14
									c-0.85-3.77-2.74-7.29-5.4-10.1c-0.18,3.35,0.55,6.76,2.12,9.73c0.63,1.2,1.4,2.36,1.61,3.7c0.34,2.17-0.87,4.4-0.34,6.53
									c0.61,2.43,3.34,4.06,3.47,6.57c0.11,2.12-1.74,3.98-1.6,6.09c0.06,0.9,0.48,1.74,0.94,2.51c1.64,2.72,4.04,4.6,7.69,4.54
									l4.47,0.16L640.98,452.04z"/>
							</g>
						</g>
					</g>
				</g>
			</g>
		</g>
		<g>
			<g>
				<g>
					<g>
						<g>
							<g>
								<g>
									<g>
										<path style="fill:#263238;" d="M644.93,462.49c0,0,0.43,0.1,1.23-0.03c0.4-0.06,0.89-0.16,1.45-0.37
											c0.55-0.2,1.19-0.49,1.79-0.98c0.29-0.25,0.58-0.57,0.74-0.98c0.15-0.41,0.18-0.87,0.21-1.33
											c0.02-0.47,0.02-0.95,0.1-1.44c0.08-0.49,0.27-0.97,0.55-1.44c0.53-0.92,1.4-1.8,1.68-3.06c0.31-1.24,0.09-2.57-0.12-3.91
											c-0.21-1.34-0.41-2.8,0.1-4.19c0.48-1.4,1.46-2.66,1.95-4.23c0.49-1.59,0.26-3.3,0.36-4.99c0.05-0.85,0.21-1.69,0.58-2.48
											c0.36-0.79,0.86-1.54,1.25-2.37c0.79-1.68,0.93-3.59,1.15-5.46c0.11-0.94,0.21-1.89,0.32-2.85
											c0.11-0.97,0.19-1.93,0.5-2.86c0.28-0.94,0.67-1.84,1.07-2.76c0.19-0.46,0.4-0.93,0.52-1.44
											c0.09-0.53,0.11-1.02,0.14-1.54c0.05-1.02,0.01-2.06-0.12-3.09c-0.12-1.03-0.31-2.05-0.42-3.08
											c-0.01-0.06-0.01-0.12-0.02-0.18l-0.02-0.21l-0.18,0.09c-0.96,0.48-1.77,1.19-2.4,2.03c-0.64,0.83-1.11,1.77-1.48,2.72
											c-0.75,1.92-1.01,3.93-1.39,5.85c-0.37,1.92-0.85,3.81-1.83,5.4c-0.49,0.8-1.08,1.52-1.6,2.3
											c-0.52,0.77-0.97,1.62-1.11,2.54c-0.26,1.89,0.78,3.55,0.56,5.22c-0.08,0.83-0.41,1.61-0.81,2.32
											c-0.41,0.71-0.88,1.38-1.33,2.04c-0.45,0.67-0.88,1.34-1.2,2.06c-0.32,0.72-0.5,1.49-0.55,2.24
											c-0.11,1.51,0.1,2.93-0.01,4.28c-0.09,1.35-0.57,2.58-1.1,3.67c-0.54,1.1-1.14,2.09-1.64,3.06
											c-0.25,0.48-0.49,0.95-0.68,1.42c-0.2,0.47-0.3,0.95-0.39,1.41c-0.15,0.93-0.13,1.79-0.03,2.55
											c0.19,1.53,0.76,2.63,1.28,3.25c0.12,0.17,0.25,0.28,0.36,0.39c0.1,0.11,0.21,0.19,0.29,0.25
											C644.84,462.43,644.93,462.49,644.93,462.49c0.02-0.02-0.37-0.23-0.86-0.86c-0.49-0.62-1.04-1.72-1.21-3.23
											c-0.09-0.75-0.1-1.6,0.06-2.51c0.09-0.45,0.2-0.92,0.39-1.38c0.19-0.46,0.43-0.93,0.68-1.4c0.51-0.95,1.11-1.94,1.67-3.05
											c0.55-1.1,1.04-2.35,1.14-3.73c0.12-1.38-0.09-2.81,0.02-4.28c0.05-0.74,0.22-1.47,0.54-2.16
											c0.31-0.7,0.73-1.36,1.18-2.02c0.45-0.66,0.93-1.32,1.35-2.05c0.42-0.72,0.77-1.53,0.85-2.41
											c0.22-1.78-0.82-3.45-0.55-5.21c0.13-0.87,0.56-1.68,1.07-2.43c0.51-0.76,1.1-1.49,1.61-2.3
											c1.01-1.64,1.51-3.56,1.88-5.49c0.38-1.93,0.65-3.92,1.38-5.8c0.36-0.93,0.82-1.85,1.44-2.65
											c0.61-0.81,1.39-1.49,2.3-1.95l-0.21-0.11c0.01,0.06,0.01,0.12,0.02,0.18c0.11,1.04,0.3,2.07,0.42,3.09
											c0.13,1.02,0.17,2.04,0.12,3.04c-0.03,0.5-0.06,1.02-0.14,1.49c-0.11,0.47-0.31,0.93-0.5,1.39
											c-0.39,0.92-0.8,1.84-1.08,2.79c-0.31,0.95-0.4,1.95-0.5,2.9c-0.11,0.96-0.21,1.91-0.32,2.86
											c-0.21,1.88-0.35,3.75-1.12,5.38c-0.38,0.81-0.88,1.56-1.25,2.37c-0.38,0.81-0.55,1.71-0.6,2.57
											c-0.1,1.72,0.13,3.41-0.34,4.93c-0.46,1.52-1.44,2.79-1.93,4.23c-0.53,1.46-0.31,2.96-0.1,4.3
											c0.22,1.34,0.43,2.65,0.14,3.84c-0.26,1.2-1.11,2.07-1.64,3.02c-0.28,0.47-0.48,0.98-0.55,1.49
											c-0.08,0.51-0.07,1-0.09,1.46c-0.02,0.46-0.05,0.91-0.19,1.3c-0.14,0.39-0.41,0.69-0.69,0.94
											c-0.58,0.48-1.2,0.78-1.75,0.99c-0.55,0.21-1.04,0.32-1.43,0.39c-0.4,0.07-0.7,0.08-0.91,0.09
											C645.04,462.48,644.93,462.49,644.93,462.49z"/>
									</g>
								</g>
							</g>
						</g>
					</g>
				</g>
				<g>
					<g>
						<g>
							<g>
								<g>
									<g>
										<path style="fill:#263238;" d="M659.04,409.88c0,0-0.02,0.04-0.04,0.13c-0.03,0.11-0.06,0.24-0.1,0.4
											c-0.09,0.35-0.19,0.88-0.36,1.55c-0.18,0.66-0.58,1.41-0.93,2.33c-0.36,0.92-0.73,1.98-1.06,3.17
											c-0.34,1.19-0.64,2.51-0.96,3.93c-0.33,1.41-0.65,2.93-1.43,4.36c-0.37,0.73-0.78,1.46-1.11,2.26
											c-0.34,0.8-0.52,1.68-0.64,2.56c-0.21,1.77-0.54,3.56-0.96,5.4c-0.9,3.66-1.75,7.14-2.52,10.32
											c-0.8,3.16-1.51,6.01-2.12,8.42c-0.59,2.38-1.07,4.32-1.4,5.68c-0.16,0.65-0.28,1.17-0.37,1.55
											c-0.04,0.16-0.06,0.3-0.09,0.4c-0.02,0.09-0.03,0.14-0.02,0.14c0,0,0.02-0.04,0.05-0.13c0.03-0.11,0.07-0.24,0.12-0.4
											c0.1-0.37,0.24-0.89,0.42-1.53c0.36-1.36,0.87-3.29,1.49-5.66c0.62-2.4,1.36-5.24,2.18-8.4
											c0.78-3.17,1.64-6.66,2.55-10.32c0.42-1.83,0.75-3.66,0.96-5.42c0.12-0.88,0.3-1.72,0.62-2.5
											c0.32-0.78,0.72-1.51,1.09-2.25c0.79-1.46,1.11-3.02,1.43-4.43c0.31-1.42,0.59-2.74,0.92-3.93
											c0.32-1.19,0.67-2.25,1.02-3.16c0.33-0.92,0.72-1.68,0.89-2.36c0.15-0.68,0.24-1.21,0.31-1.56
											c0.03-0.17,0.05-0.3,0.07-0.41C659.04,409.93,659.04,409.88,659.04,409.88z"/>
									</g>
								</g>
							</g>
						</g>
					</g>
				</g>
			</g>
			<g>
				<g>
					<g>
						<g>
							<g>
								<g>
									<path style="fill:#2E9AD6;" d="M645.72,462.5c2.92-1.73,3.75-7,2.54-10.16c-1.22-3.17-3.35-6.06-3.67-9.44
										c-0.25-2.6,0.6-5.26-0.01-7.8c-0.82-3.42-4.16-6.08-4.12-9.6c0.02-1.98,1.15-3.83,1.06-5.81
										c-0.11-2.42-1.97-4.34-3.12-6.47c-1.76-3.26-1.88-7.12-2.48-10.78c-0.6-3.66-2-7.58-5.24-9.38
										c-0.48,3.11-1.3,5.23-1.04,9.44c0.09,1.51,1.85,4.4,2.09,7.72c0.14,1.98,0.24,3.96,0.36,5.94
										c0.12,1.93,0.24,3.89,0.93,5.69c0.53,1.38,1.38,2.64,1.77,4.06c0.74,2.68-0.23,5.59,0.37,8.31c0.51,2.3,2.1,4.29,2.43,6.62
										c0.46,3.28-1.67,6.69-0.58,9.83c0.54,1.55,1.82,2.8,2.18,4.41c0.28,1.25-0.03,2.56,0.23,3.81
										c0.41,2.01,4.25,3.58,6.31,3.46"/>
								</g>
							</g>
						</g>
					</g>
				</g>
				<g>
					<g>
						<g>
							<g>
								<g>
									<g>
										<path style="fill:#263238;" d="M631.48,396.16c0,0,0,0.06,0.01,0.18c0.02,0.13,0.04,0.3,0.07,0.51
											c0.07,0.45,0.14,1.11,0.29,1.96c0.16,0.86,0.6,1.82,0.96,2.98c0.37,1.16,0.74,2.5,1.07,3.99c0.33,1.5,0.61,3.15,0.9,4.94
											c0.3,1.77,0.61,3.72,1.5,5.58c0.41,0.93,0.87,1.87,1.21,2.86c0.35,0.99,0.52,2.06,0.62,3.15c0.15,2.2,0.44,4.49,0.86,6.79
											c0.89,4.6,1.74,8.99,2.52,12.98c0.82,3.97,1.55,7.56,2.17,10.57c0.63,2.99,1.13,5.42,1.49,7.12
											c0.18,0.82,0.32,1.47,0.42,1.93c0.05,0.21,0.09,0.37,0.12,0.5c0.03,0.11,0.04,0.17,0.05,0.17c0,0,0-0.06-0.02-0.17
											c-0.02-0.13-0.05-0.3-0.09-0.51c-0.09-0.46-0.21-1.11-0.37-1.94c-0.33-1.7-0.81-4.14-1.4-7.14
											c-0.6-3.02-1.32-6.6-2.11-10.58c-0.77-3.99-1.61-8.37-2.49-12.97c-0.41-2.31-0.7-4.56-0.86-6.77
											c-0.1-1.1-0.27-2.2-0.64-3.21c-0.35-1.02-0.82-1.95-1.23-2.88c-0.88-1.83-1.19-3.74-1.5-5.51
											c-0.3-1.78-0.59-3.44-0.94-4.94c-0.34-1.5-0.73-2.84-1.12-4c-0.37-1.17-0.83-2.12-1-2.96c-0.17-0.84-0.26-1.5-0.35-1.94
											c-0.04-0.21-0.07-0.38-0.09-0.51C631.5,396.21,631.48,396.15,631.48,396.16z"/>
									</g>
								</g>
							</g>
						</g>
					</g>
				</g>
			</g>
		</g>
	</g>
</g>
<g id="Vehicle">
	<g>
		<g>
			<g>
				<rect x="116.49" y="330.53" style="fill:#176884;" width="444.07" height="44.38"/>
			</g>
		</g>
		<g style="opacity:0.4;">
			<g>
				<rect x="116.49" y="330.53" style="fill:#176884;" width="444.07" height="44.38"/>
			</g>
		</g>
	</g>
	<g>
		<g>
			<g>
				<rect x="333.27" y="380.51" style="fill:#455A64;" width="131.08" height="41.1"/>
			</g>
		</g>
		<g>
			<g>
				<polygon style="fill:#263238;" points="241.67,361.92 241.67,416.25 286.42,416.25 304.37,390.25 631.18,390.25 631.18,361.92 
									"/>
			</g>
		</g>
		<g>
			<g>
				<path style="fill:#2E9AD6;" d="M238.88,189.88c-0.1-1.82-1.64-3.22-3.46-3.15c-17.68,0.73-101.67,4.58-118.94,12.88
					c-13.22,6.35-27.7,30.1-37.91,46.09c-7.32,11.46-23.49,36.9-26.76,49.91c-2.77,11.02-4.44,33.88-4.25,45.24l4.62,60.05h76.11
					l7.62-19.83c4.97-12.94,17.4-21.48,31.26-21.48h75.63v-99.66L238.88,189.88z"/>
			</g>
		</g>
		<g>
			<g>
				<g>
					<path style="fill:#455A64;" d="M107.46,206.26c-10.48,10-20.97,27.04-28.89,39.44c-6.78,10.61-21.14,33.21-25.83,46.82
						c-0.09,0.25-0.16,0.49-0.24,0.74c2.32-0.64,5.88-1.95,6.98-4.15c1.67-3.34,3.81-14.74,30.26-57.81
						C97.81,218.17,105.65,210.49,107.46,206.26z"/>
				</g>
			</g>
		</g>
		<g>
			<g>
				<g>
					<path style="fill:#263238;" d="M199.78,201.81c-19.46,1.11-61.65,3.96-75.13,8.58c-17.56,6.02-37.27,52.49-38.2,54.53
						l-13.29,33.99c-0.32,0.96,0.4,1.95,1.41,1.95h34.33c1.3,0,2.59-0.23,3.8-0.69l90.3-33.64c4.08-1.52,6.79-5.42,6.79-9.78v-45.47
						C209.8,205.83,205.22,201.5,199.78,201.81z"/>
				</g>
			</g>
			<g>
				<g>
					<path style="fill:#455A64;" d="M76.99,297.53c0,0,12.74-28.55,17.01-37.88c6.46-14.12,21.55-43.05,31.74-46.1
						c9.37-2.81,36.31-6.24,74.24-8.4c0.12-0.01,0.24-0.01,0.36-0.01c3.38,0,6.13,2.76,6.13,6.15v46.51c0,2.33-1.47,4.45-3.66,5.26
						l-66.71,8.23c-5.41,0.67-10.25,3.68-13.24,8.24l-11.56,17.62c-0.68,0.25-1.39,0.38-2.12,0.38H76.99z"/>
				</g>
			</g>
			<g>
				<g>
					<path style="fill:#263238;" d="M133.68,271.8l-22.71,25.26l12.55-83.86l3.14-1.08l-6.17,62.12c-0.14,1.37,1.23,2.39,2.5,1.88
						L133.68,271.8z"/>
				</g>
			</g>
		</g>
		<g>
			<g>
				<path style="fill:#EBEBEB;" d="M46.07,346.67c-0.08-1.09,0.29-1.98,0.84-2.03l12.16-1.12c1.02-0.09,1.93,1.79,2.05,4.04
					l0.55,9.33c0.09,1.5-0.36,2.76-1.03,2.88l-12.4,2.14c-0.56,0.1-1.09-0.73-1.17-1.83L46.07,346.67z"/>
			</g>
		</g>
		<g>
			<g>
				<rect x="46.06" y="390.26" style="fill:#263238;" width="87.62" height="35.13"/>
			</g>
		</g>
		<g>
			<g>
				<g>
					<g>
						<g>
							<g>
								<g>
									<g>
										<g>
											<g>
												
													<ellipse transform="matrix(0.9993 -0.0384 0.0384 0.9993 -15.776 7.6213)" style="fill:#263238;" cx="190.35" cy="414.17" rx="47.94" ry="47.93"/>
											</g>
										</g>
									</g>
								</g>
							</g>
						</g>
					</g>
				</g>
			</g>
			<g>
				<g>
					<g>
						<g>
							<g>
								<g>
									<g>
										<g>
											<g>
												<path style="fill:#263238;" d="M142.43,413.35c0,0.04-0.01,0.08-0.01,0.12c-0.38,26.47,20.77,48.24,47.24,48.62
													c26.47,0.38,48.24-20.77,48.62-47.24c0-0.04,0-0.08,0-0.12L142.43,413.35z"/>
											</g>
										</g>
									</g>
								</g>
							</g>
						</g>
					</g>
				</g>
			</g>
			<g>
				<g>
					<g>
						<g>
							<g>
								<g>
									<g>
										<g>
											<g>
												<path style="fill:#FAFAFA;" d="M156.71,413.68c-0.27,18.58,14.58,33.87,33.16,34.14c18.58,0.27,33.87-14.58,34.14-33.16
													c0.27-18.58-14.58-33.87-33.17-34.14C172.26,380.25,156.97,395.1,156.71,413.68z"/>
											</g>
										</g>
									</g>
								</g>
							</g>
						</g>
					</g>
				</g>
			</g>
			<g>
				<g>
					<g>
						<g>
							<g>
								<g>
									<g>
										<g>
											<g>
												<path style="fill:#E0E0E0;" d="M190.84,380.52c-18.58-0.27-33.87,14.58-34.13,33.16l67.3,0.97
													C224.27,396.07,209.42,380.79,190.84,380.52z"/>
											</g>
										</g>
									</g>
								</g>
							</g>
						</g>
					</g>
				</g>
			</g>
			<g>
				<g>
					<g>
						<g>
							<g>
								<g>
									<g>
										<g>
											<g>
												<path style="fill:#263238;" d="M169.86,413.87c-0.16,11.32,8.88,20.63,20.2,20.79c11.32,0.16,20.63-8.88,20.79-20.2
													c0.16-11.32-8.88-20.63-20.2-20.79C179.33,393.51,170.02,402.55,169.86,413.87z"/>
											</g>
										</g>
									</g>
								</g>
							</g>
						</g>
					</g>
				</g>
			</g>
		</g>
		<g>
			<g>
				<g>
					<path style="fill:#263238;" d="M97.37,279.95h-3.91c-4.41,0-7.98-3.57-7.98-7.98v-31.72c0-4.41,3.57-7.98,7.98-7.98h3.91
						c4.41,0,7.98,3.57,7.98,7.98v31.72C105.36,276.37,101.78,279.95,97.37,279.95z"/>
				</g>
			</g>
			<g>
				<g>
					<path style="fill:#263238;" d="M77.26,309.43h-1v-50.42c0-5,4.07-9.07,9.07-9.07h2.4v1h-2.4c-4.45,0-8.07,3.62-8.07,8.07
						V309.43z"/>
				</g>
			</g>
			<g>
				<g>
					<path style="fill:#263238;" d="M84.07,309.49l-2.78-47.15c-0.1-1.65,0.47-3.22,1.61-4.42c1.13-1.2,2.67-1.87,4.32-1.87v1
						c-1.37,0-2.65,0.55-3.59,1.55c-0.94,1-1.42,2.31-1.34,3.68l2.78,47.15L84.07,309.49z"/>
				</g>
			</g>
			<g>
				<g>
					<rect x="73.74" y="304.89" style="fill:#263238;" width="13.48" height="15.61"/>
				</g>
			</g>
			<g>
				<g>
					<rect x="76.76" y="275.26" style="fill:#263238;" width="5.48" height="1"/>
				</g>
			</g>
		</g>
		<g>
			<g>
				<g>
					<path style="fill:#263238;" d="M127.98,203.16c0,0,0.4-0.06,1.19-0.16c0.8-0.09,1.97-0.23,3.51-0.42
						c3.1-0.36,7.67-0.89,13.59-1.57c11.86-1.35,29.1-3.31,50.67-5.77c2.7-0.29,5.45-0.65,8.3-0.91c1.44-0.15,2.9,0.03,4.35,0.29
						c1.43,0.35,2.85,0.83,4.17,1.58c2.63,1.46,4.91,3.73,6.31,6.55c0.7,1.4,1.23,2.92,1.45,4.51c0.17,0.79,0.15,1.6,0.21,2.4
						c0,0.8,0,1.6,0,2.41c0.01,12.91,0.02,26.77,0.03,41.46c0.01,29.38,0.02,62.06,0.03,96.96l0,0.25h-0.25
						c-11.25,0-22.8,0-34.58,0.01c-5.89,0-11.84,0-17.84,0c-3,0.01-6.01-0.07-8.97,0.42c-2.99,0.36-5.87,1.33-8.67,2.43
						c-8.71,3.73-15.64,11.04-18.97,19.64c-0.38,1.09-0.86,2.14-1.1,3.27c-0.26,1.12-0.64,2.21-0.76,3.35l-0.26,1.7l-0.13,0.85
						l-0.04,0.86l-0.09,1.71l-0.04,0.85l-0.01,0.11c0.23-0.22-0.31,0.34-0.27,0.28h-0.03h-0.05h-0.21l-0.43,0
						c-4.58,0-9.13,0-13.65,0c-18.05,0-35.5-0.01-52.16-0.01l-0.24,0l0-0.24c0.01-15.07,0.01-29.6,0.02-43.48
						c0-6.94,0.01-13.72,0.01-20.33c0-3.3,0-6.56,0.01-9.78c0.01-1.61-0.01-3.2,0.02-4.79c0.04-1.59,0.15-3.17,0.34-4.73
						c0.77-6.23,2.8-12.09,5.66-17.23c2.76-5.17,5.42-10.18,7.98-14.99c5.13-9.63,9.86-18.51,14.15-26.56
						c4.29-8.05,8.14-15.27,11.5-21.57c0.84-1.57,1.65-3.09,2.43-4.55c0.4-0.72,0.75-1.45,1.17-2.13c0.42-0.68,0.87-1.31,1.35-1.91
						c1.9-2.38,4.02-4.22,6.06-5.63c4.13-2.8,7.88-3.93,10.37-4.51C126.64,203.23,127.98,203.16,127.98,203.16s-0.33,0.06-0.98,0.15
						c-0.65,0.1-1.61,0.27-2.87,0.56c-2.48,0.61-6.21,1.75-10.3,4.56c-2.02,1.41-4.12,3.25-6,5.62c-0.47,0.59-0.91,1.23-1.33,1.9
						c-0.41,0.67-0.76,1.41-1.16,2.13c-0.77,1.46-1.58,2.98-2.41,4.56c-3.34,6.31-7.17,13.54-11.44,21.6
						c-4.27,8.06-8.99,16.95-14.1,26.59c-2.56,4.82-5.21,9.82-7.96,15c-2.84,5.11-4.84,10.91-5.59,17.09
						c-0.18,1.54-0.3,3.11-0.33,4.69c-0.03,1.58-0.01,3.18-0.01,4.78c0,3.22,0,6.47,0.01,9.78c0,6.61,0.01,13.39,0.01,20.33
						c0.01,13.88,0.01,28.41,0.02,43.48l-0.24-0.24c16.65,0,34.11-0.01,52.16-0.01c4.51,0,9.06,0,13.65,0l0.43,0h0.21h0.05h0.03
						c0.07-0.05-0.48,0.48-0.25,0.24l0.01-0.11l0.04-0.87l0.09-1.73l0.04-0.87l0.13-0.86l0.26-1.72c0.12-1.16,0.51-2.27,0.78-3.4
						c0.24-1.15,0.73-2.22,1.11-3.32c3.38-8.74,10.41-16.15,19.25-19.93c2.85-1.12,5.77-2.1,8.8-2.46c3.01-0.5,6.06-0.42,9.05-0.43
						c6,0,11.95,0,17.84,0c11.78,0,23.33,0,34.58,0.01l-0.25,0.25c0.01-34.91,0.02-67.58,0.03-96.96
						c0.01-14.69,0.02-28.55,0.03-41.46c0-1.62,0.06-3.22-0.2-4.75c-0.21-1.55-0.73-3.03-1.41-4.4c-1.36-2.75-3.58-4.97-6.15-6.41
						c-1.28-0.73-2.67-1.2-4.07-1.55c-1.41-0.25-2.84-0.44-4.25-0.29c-2.82,0.24-5.6,0.6-8.29,0.89
						c-21.58,2.39-38.83,4.3-50.69,5.62c-5.92,0.65-10.5,1.15-13.6,1.48c-1.54,0.16-2.72,0.29-3.52,0.37
						C128.39,203.13,127.98,203.16,127.98,203.16z"/>
				</g>
			</g>
		</g>
		<g>
			<g>
				<g>
					<g>
						<g>
							<g>
								<g>
									<path style="fill:#263238;" d="M205.83,313.68c0-0.03,0.27-0.02,0.78-0.11c0.5-0.09,1.25-0.29,2.06-0.82
										c0.8-0.52,1.66-1.42,2.09-2.72c0.22-0.65,0.3-1.37,0.27-2.15c-0.02-0.77-0.21-1.57-0.61-2.33
										c-0.78-1.49-2.49-2.75-4.51-2.75c-2.07,0.01-4.28,0.01-6.6,0.02c-4.65,0.01-9.76,0.01-15.12,0.02
										c-1.28,0-2.53,0.5-3.45,1.34c-0.92,0.84-1.51,2-1.64,3.2c-0.12,1.23,0.04,2.44,0.63,3.46c0.56,1.02,1.48,1.79,2.5,2.22
										c1.03,0.46,2.14,0.39,3.26,0.4c1.1,0,2.17,0.01,3.2,0.01c2.06,0.01,3.99,0.02,5.75,0.03c3.48,0.03,6.31,0.06,8.33,0.08
										c0.95,0.02,1.7,0.04,2.26,0.05C205.56,313.64,205.83,313.66,205.83,313.68c0,0.02-0.27,0.03-0.79,0.05
										c-0.56,0.01-1.32,0.03-2.26,0.05c-2.02,0.02-4.85,0.05-8.33,0.08c-1.76,0.01-3.69,0.02-5.75,0.03
										c-1.03,0-2.1,0.01-3.2,0.01c-0.56-0.01-1.09,0.02-1.69-0.01c-0.59-0.04-1.18-0.16-1.74-0.4c-1.12-0.47-2.13-1.3-2.75-2.42
										c-0.65-1.1-0.83-2.47-0.7-3.75c0.14-1.32,0.78-2.6,1.79-3.52c1-0.93,2.38-1.48,3.79-1.48c5.36,0.01,10.47,0.01,15.12,0.02
										c2.32,0.01,4.53,0.02,6.6,0.03c2.18,0.02,4.01,1.39,4.82,3c0.41,0.81,0.61,1.68,0.61,2.49c0.02,0.79-0.07,1.58-0.32,2.25
										c-0.48,1.36-1.41,2.28-2.26,2.8c-0.86,0.52-1.63,0.7-2.15,0.75C206.11,313.72,205.83,313.68,205.83,313.68z"/>
								</g>
							</g>
						</g>
					</g>
				</g>
			</g>
			<g>
				<g>
					<g>
						<g>
							<g>
								<g>
									<path style="fill:#FFFFFF;" d="M203.98,301.12c0,0.14-3.84,0.25-8.57,0.25c-4.74,0-8.57-0.11-8.57-0.25
										c0-0.14,3.84-0.25,8.57-0.25C200.14,300.86,203.98,300.98,203.98,301.12z"/>
								</g>
							</g>
						</g>
					</g>
				</g>
			</g>
		</g>
		<g>
			<g>
				<path style="fill:#263238;" d="M137.67,425.68l-7.98-0.58c2.09-28.65,5.15-45.79,9.36-52.4c8.08-12.7,16.11-14.99,25.02-16.51
					c8.28-1.41,16.64-1.08,24.72-0.75l1.98,0.08c16.68,0.65,51.62,0.07,51.97,0.07l0.13,8c-0.35,0.01-35.52,0.59-52.42-0.07
					l-1.99-0.08c-7.67-0.31-15.6-0.63-23.05,0.64c-7.95,1.36-13.24,2.91-19.62,12.92C143.86,380.03,140.24,390.39,137.67,425.68z"/>
			</g>
		</g>
		<g>
			<g>
				<rect x="247" y="99.32" style="fill:#FFFFFF;" width="393.98" height="262.32"/>
			</g>
		</g>
		<g>
			<g>
				<g>
					<path style="fill:#FAFAFA;" d="M190.96,223.54c0.01,0.01-0.12,0.12-0.36,0.31c-0.3,0.22-0.66,0.48-1.1,0.79
						c-0.96,0.68-2.37,1.65-4.11,2.83c-3.49,2.37-8.35,5.58-13.77,9.05c-5.42,3.47-10.37,6.55-13.98,8.73
						c-1.8,1.09-3.27,1.97-4.29,2.56c-0.47,0.27-0.86,0.49-1.18,0.67c-0.27,0.15-0.42,0.22-0.43,0.2c-0.01-0.02,0.12-0.12,0.38-0.29
						c0.31-0.21,0.68-0.45,1.13-0.75c1.06-0.68,2.48-1.59,4.2-2.7c3.62-2.31,8.5-5.42,13.89-8.86c5.37-3.46,10.24-6.6,13.85-8.92
						c1.72-1.1,3.14-2.01,4.21-2.69c0.46-0.28,0.84-0.52,1.16-0.71C190.8,223.61,190.95,223.53,190.96,223.54z"/>
				</g>
			</g>
		</g>
		<g>
			<g>
				<g>
					<path style="fill:#FAFAFA;" d="M173.91,228.06c0.01,0.01-0.12,0.12-0.36,0.31c-0.3,0.22-0.67,0.48-1.1,0.79
						c-0.96,0.68-2.37,1.65-4.12,2.83c-3.49,2.37-8.35,5.58-13.77,9.05c-5.42,3.47-10.37,6.55-13.98,8.73
						c-1.8,1.09-3.27,1.97-4.29,2.56c-0.47,0.27-0.86,0.49-1.18,0.67c-0.27,0.15-0.42,0.22-0.43,0.2s0.12-0.12,0.38-0.29
						c0.31-0.21,0.68-0.45,1.13-0.75c1.06-0.68,2.48-1.59,4.2-2.7c3.62-2.31,8.5-5.42,13.89-8.86c5.37-3.46,10.24-6.6,13.85-8.92
						c1.72-1.1,3.14-2.01,4.21-2.69c0.46-0.28,0.84-0.52,1.16-0.71C173.75,228.12,173.9,228.05,173.91,228.06z"/>
				</g>
			</g>
		</g>
		<g>
			<g>
				<g>
					<path style="fill:#FAFAFA;" d="M89.72,257.17c-0.03,0.01-0.14-0.31-0.31-0.88c-0.16-0.57-0.38-1.41-0.63-2.45
						c-0.47-2.08-1.08-5-1.06-8.3c0.02-3.3,0.87-6.25,1.91-8.14c0.51-0.95,1.02-1.67,1.42-2.12c0.39-0.46,0.64-0.68,0.67-0.66
						c0.08,0.06-0.84,1.03-1.75,2.94c-0.92,1.89-1.69,4.76-1.71,7.98c-0.02,3.23,0.52,6.13,0.9,8.22
						C89.54,255.86,89.79,257.16,89.72,257.17z"/>
				</g>
			</g>
		</g>
		<g>
			<g>
				<g>
					<path style="fill:#FAFAFA;" d="M49.02,328.07c-0.04,0-0.05-0.4-0.05-1.12c0-0.72,0.02-1.76,0.06-3.04
						c0.08-2.57,0.27-6.11,0.57-10.02c0.31-3.91,0.68-7.44,1-9.99c0.16-1.27,0.3-2.3,0.42-3.01c0.11-0.71,0.19-1.1,0.23-1.1
						c0.04,0,0.02,0.4-0.03,1.12c-0.07,0.83-0.15,1.84-0.25,3.03c-0.23,2.68-0.52,6.15-0.85,9.99c-0.28,3.84-0.53,7.32-0.73,10
						c-0.09,1.19-0.16,2.2-0.23,3.03C49.11,327.67,49.06,328.07,49.02,328.07z"/>
				</g>
			</g>
		</g>
		<g>
			<g>
				<g>
					<path style="fill:#FAFAFA;" d="M158.59,347.48c0.02,0.11-1.92,0.38-4.92,1.35c-1.5,0.47-3.24,1.17-5.11,2.07
						c-1.85,0.93-3.82,2.09-5.76,3.5c-1.92,1.43-3.62,2.96-5.06,4.45c-1.42,1.51-2.61,2.96-3.51,4.25
						c-1.81,2.57-2.66,4.34-2.76,4.29c-0.03-0.02,0.17-0.46,0.56-1.26c0.19-0.4,0.44-0.89,0.77-1.42c0.32-0.54,0.67-1.17,1.13-1.82
						c0.87-1.33,2.04-2.82,3.46-4.37c1.45-1.53,3.15-3.09,5.1-4.54c1.96-1.43,3.97-2.59,5.86-3.51c1.9-0.89,3.68-1.56,5.21-1.99
						c0.75-0.25,1.46-0.39,2.07-0.53c0.61-0.15,1.15-0.24,1.59-0.3C158.1,347.5,158.58,347.45,158.59,347.48z"/>
				</g>
			</g>
		</g>
		<g>
			<g>
				<g>
					<path style="fill:#FAFAFA;" d="M257.07,287.11c-0.01,0-0.02-0.15-0.03-0.43c-0.01-0.31-0.02-0.73-0.03-1.26
						c-0.02-1.14-0.04-2.76-0.07-4.85c-0.06-4.24-0.15-10.33-0.25-17.84c-0.27-15.08-0.64-35.88-1.05-58.85
						c-0.42-22.99-0.77-43.8-0.9-58.86c-0.07-7.53-0.09-13.63-0.09-17.84c0.01-2.09,0.03-3.71,0.03-4.85
						c0.01-0.54,0.02-0.95,0.02-1.26c0.01-0.28,0.02-0.43,0.03-0.43s0.02,0.15,0.03,0.43c0.01,0.31,0.02,0.73,0.03,1.26
						c0.02,1.14,0.04,2.76,0.07,4.85c0.06,4.24,0.15,10.32,0.25,17.84c0.27,15.08,0.64,35.88,1.05,58.86
						c0.42,22.98,0.77,43.79,0.9,58.85c0.07,7.53,0.09,13.63,0.09,17.84c-0.01,2.09-0.03,3.72-0.03,4.85
						c-0.01,0.54-0.02,0.95-0.02,1.26C257.08,286.96,257.08,287.11,257.07,287.11z"/>
				</g>
			</g>
		</g>
		<g>
			<g>
				<g>
					<g>
						<g>
							<g>
								<g>
									<g>
										<g>
											<g>
												<g>
													
														<ellipse transform="matrix(0.9992 -0.0399 0.0399 0.9992 -16.0831 22.0411)" style="fill:#263238;" cx="544.45" cy="414.17" rx="47.94" ry="47.93"/>
												</g>
											</g>
										</g>
									</g>
								</g>
							</g>
						</g>
					</g>
				</g>
				<g>
					<g>
						<g>
							<g>
								<g>
									<g>
										<g>
											<g>
												<g>
													<path style="fill:#263238;" d="M496.53,413.35c0,0.04-0.01,0.08-0.01,0.12c-0.38,26.47,20.77,48.24,47.24,48.62
														c26.47,0.38,48.24-20.77,48.62-47.24c0-0.04,0-0.08,0-0.12L496.53,413.35z"/>
												</g>
											</g>
										</g>
									</g>
								</g>
							</g>
						</g>
					</g>
				</g>
				<g>
					<g>
						<g>
							<g>
								<g>
									<g>
										<g>
											<g>
												<g>
													<path style="fill:#FAFAFA;" d="M510.8,413.68c-0.27,18.58,14.58,33.87,33.16,34.14c18.59,0.27,33.87-14.58,34.14-33.16
														c0.27-18.58-14.58-33.87-33.17-34.14C526.35,380.25,511.07,395.1,510.8,413.68z"/>
												</g>
											</g>
										</g>
									</g>
								</g>
							</g>
						</g>
					</g>
				</g>
				<g>
					<g>
						<g>
							<g>
								<g>
									<g>
										<g>
											<g>
												<g>
													<path style="fill:#E0E0E0;" d="M544.94,380.52c-18.58-0.27-33.87,14.58-34.14,33.16l67.3,0.97
														C578.37,396.07,563.52,380.79,544.94,380.52z"/>
												</g>
											</g>
										</g>
									</g>
								</g>
							</g>
						</g>
					</g>
				</g>
				<g>
					<g>
						<g>
							<g>
								<g>
									<g>
										<g>
											<g>
												<g>
													<path style="fill:#263238;" d="M523.96,413.87c-0.16,11.32,8.88,20.63,20.2,20.79c11.32,0.16,20.63-8.88,20.79-20.2
														c0.16-11.32-8.88-20.63-20.2-20.79C533.43,393.51,524.12,402.55,523.96,413.87z"/>
												</g>
											</g>
										</g>
									</g>
								</g>
							</g>
						</g>
					</g>
				</g>
			</g>
			<g>
				<g>
					<path style="fill:#455A64;" d="M481.44,427.3c0,0-7.3-67.98,63.16-67.98c65.01,0,63.56,58.48,62.95,67.53h-10.2
						c0,0,5.2-57.63-52.75-57.63c-57.95,0-52.9,58.8-52.9,58.8S487.42,427.79,481.44,427.3z"/>
				</g>
			</g>
			<g>
				<g>
					<g>
						<path style="fill:#FAFAFA;" d="M519.18,366.34c0,0.02-0.19,0.09-0.55,0.2c-0.36,0.12-0.91,0.26-1.6,0.49
							c-1.39,0.44-3.37,1.15-5.73,2.24c-4.7,2.14-10.88,6.1-15.98,12.18c-5.11,6.08-7.94,12.85-9.23,17.85
							c-0.66,2.51-1.02,4.59-1.21,6.03c-0.11,0.72-0.15,1.28-0.21,1.66c-0.05,0.38-0.08,0.58-0.1,0.58c-0.02,0-0.02-0.2,0-0.59
							c0.02-0.38,0.03-0.95,0.11-1.68c0.13-1.45,0.43-3.55,1.06-6.1c1.22-5.06,4.02-11.94,9.19-18.09
							c5.16-6.15,11.45-10.11,16.23-12.18c2.4-1.05,4.41-1.72,5.82-2.09c0.7-0.21,1.26-0.31,1.63-0.4
							C518.98,366.36,519.18,366.32,519.18,366.34z"/>
					</g>
				</g>
			</g>
		</g>
	</g>
	<path style="fill:none;stroke:#9E9E9E;stroke-width:5;stroke-miterlimit:10;" d="M629.59,359.32H247v-260h377.58c2.76,0,5,2.24,5,5
		V359.32z"/>
</g>
<g id="Character">
	<g>
		<g>
			<g>
				<g>
					<g>
						<g>
							<path style="fill:#455A64;" d="M692.25,435.54l8.53,12.82l3.82,12.08c0.28,0.87,1.23,1.33,2.08,0.99l0,0
								c0.48-0.19,0.83-0.59,0.95-1.08c0.78-3.16,3.59-14.8,2.92-15.7c-0.78-1.05-8.1-14.12-8.1-14.12L692.25,435.54z"/>
						</g>
					</g>
				</g>
			</g>
			<g style="opacity:0.6;">
				<g>
					<g>
						<g>
							<path style="fill:#FFFFFF;" d="M706.68,461.43l3.31-17.67l0.35,0.55c0.3,0.48,0.43,1.04,0.35,1.6
								c-0.21,1.49-0.89,5.6-3.02,14.4C707.55,460.84,707.17,461.25,706.68,461.43L706.68,461.43z"/>
						</g>
					</g>
				</g>
			</g>
			<g style="opacity:0.6;">
				<g>
					<g>
						<g>
							<g>
								<path style="fill:#FFFFFF;" d="M704.67,441.26c-0.18,0.43,0.02,0.99,0.45,1.19c0.42,0.2,1,0,1.19-0.43
									c0.19-0.43-0.04-1.11-0.48-1.26c-0.44-0.15-1.1,0.12-1.18,0.59"/>
							</g>
						</g>
					</g>
				</g>
			</g>
			<g>
				<g>
					<g>
						<g>
							<g>
								<path style="fill:#263238;" d="M706.05,453.87c-0.05,0.08-0.78-0.41-1.78-0.29c-1.01,0.09-1.61,0.73-1.68,0.66
									c-0.03-0.02,0.07-0.23,0.35-0.47c0.27-0.24,0.74-0.47,1.3-0.53c0.56-0.06,1.06,0.07,1.38,0.24
									C705.94,453.66,706.08,453.84,706.05,453.87z"/>
							</g>
						</g>
					</g>
				</g>
			</g>
			<g>
				<g>
					<g>
						<g>
							<g>
								<path style="fill:#263238;" d="M706.23,456.2c-0.03,0.1-0.71-0.06-1.51,0.17c-0.8,0.22-1.3,0.71-1.37,0.64
									c-0.08-0.04,0.37-0.71,1.28-0.97C705.54,455.78,706.28,456.12,706.23,456.2z"/>
							</g>
						</g>
					</g>
				</g>
			</g>
			<g>
				<g>
					<g>
						<g>
							<g>
								<path style="fill:#263238;" d="M706.37,450.54c-0.02,0.1-1.07-0.15-2.34,0.11c-1.27,0.23-2.16,0.86-2.21,0.77
									c-0.07-0.06,0.79-0.85,2.15-1.1C705.32,450.05,706.41,450.47,706.37,450.54z"/>
							</g>
						</g>
					</g>
				</g>
			</g>
			<g>
				<g>
					<g>
						<g>
							<g>
								<path style="fill:#263238;" d="M704.1,446.43c0.01,0.1-0.89,0.25-1.85,0.81c-0.96,0.55-1.56,1.25-1.63,1.19
									c-0.08-0.04,0.43-0.89,1.47-1.48C703.11,446.35,704.1,446.34,704.1,446.43z"/>
							</g>
						</g>
					</g>
				</g>
			</g>
			<g>
				<g>
					<g>
						<g>
							<g>
								<path style="fill:#263238;" d="M701.69,442.6c0.01,0.1-0.99,0.12-1.95,0.79c-0.97,0.65-1.36,1.57-1.45,1.53
									c-0.04-0.01,0-0.27,0.19-0.63c0.19-0.36,0.55-0.82,1.07-1.17c0.52-0.35,1.08-0.53,1.48-0.57
									C701.44,442.51,701.69,442.56,701.69,442.6z"/>
							</g>
						</g>
					</g>
				</g>
			</g>
			<g>
				<g>
					<g>
						<g>
							<g>
								<path style="fill:#263238;" d="M699.3,442.66c-0.02,0.01-0.16-0.15-0.33-0.48c-0.17-0.33-0.37-0.85-0.42-1.54
									c-0.01-0.33-0.06-0.73,0.19-1.14c0.13-0.2,0.42-0.34,0.68-0.26c0.26,0.07,0.44,0.25,0.58,0.46
									c0.51,0.83,0.31,2.08-0.55,2.79c-0.87,0.69-2.05,0.69-2.87,0.22c-0.2-0.13-0.4-0.32-0.43-0.61
									c-0.04-0.28,0.17-0.54,0.37-0.63c0.42-0.19,0.81-0.12,1.14-0.1c0.68,0.08,1.19,0.28,1.53,0.45
									c0.34,0.17,0.49,0.31,0.48,0.32c-0.02,0.06-0.73-0.43-2.03-0.53c-0.32-0.01-0.7-0.04-0.99,0.11
									c-0.14,0.07-0.23,0.2-0.21,0.34c0.02,0.14,0.15,0.28,0.31,0.38c0.68,0.39,1.76,0.38,2.49-0.22c0.73-0.59,0.9-1.68,0.5-2.36
									c-0.1-0.16-0.24-0.3-0.39-0.34c-0.14-0.04-0.29,0.02-0.38,0.14c-0.19,0.26-0.19,0.64-0.18,0.96
									C698.85,441.93,699.37,442.63,699.3,442.66z"/>
							</g>
						</g>
					</g>
				</g>
			</g>
		</g>
		<g>
			<g>
				<g>
					<g>
						<g>
							<g>
								<g>
									<g>
										<path style="fill:#455A64;" d="M684.15,442.87l-0.98,12.86c0,0,12.77,4.37,12.82,6.77l-25.03-0.06l0.7-20.11
											L684.15,442.87z"/>
									</g>
								</g>
							</g>
						</g>
					</g>
				</g>
				<g style="opacity:0.6;">
					<g>
						<g>
							<g>
								<g>
									<g>
										<g>
											<path style="fill:#FFFFFF;" d="M675.48,454.35c-0.49,0.11-0.85,0.64-0.75,1.14c0.09,0.49,0.63,0.86,1.12,0.76
												c0.49-0.1,0.94-0.73,0.79-1.21c-0.15-0.48-0.8-0.88-1.25-0.66"/>
										</g>
									</g>
								</g>
							</g>
						</g>
					</g>
				</g>
				<g style="opacity:0.6;">
					<g>
						<g>
							<g>
								<g>
									<g>
										<path style="fill:#FFFFFF;" d="M670.96,462.45l0.07-2.03l24.17,0.9c0,0,0.8,0.35,0.92,1.37L670.96,462.45z"/>
									</g>
								</g>
							</g>
						</g>
					</g>
				</g>
				<g>
					<g>
						<g>
							<g>
								<g>
									<g>
										<g>
											<path style="fill:#263238;" d="M683.58,455.63c-0.01,0.12-0.62,0.15-1.24,0.52c-0.63,0.35-0.96,0.87-1.07,0.82
												c-0.11-0.03,0.1-0.75,0.85-1.18C682.88,455.34,683.61,455.52,683.58,455.63z"/>
										</g>
									</g>
								</g>
							</g>
						</g>
					</g>
				</g>
				<g>
					<g>
						<g>
							<g>
								<g>
									<g>
										<g>
											<path style="fill:#263238;" d="M686.16,456.82c0.02,0.12-0.51,0.31-0.95,0.81c-0.45,0.49-0.58,1.04-0.7,1.03
												c-0.12,0.01-0.17-0.7,0.38-1.32C685.44,456.72,686.16,456.7,686.16,456.82z"/>
										</g>
									</g>
								</g>
							</g>
						</g>
					</g>
				</g>
				<g>
					<g>
						<g>
							<g>
								<g>
									<g>
										<g>
											<path style="fill:#263238;" d="M687.53,460.02c-0.11,0.02-0.26-0.6,0.08-1.25c0.34-0.66,0.92-0.9,0.97-0.8
												c0.07,0.1-0.32,0.45-0.59,0.99C687.7,459.49,687.65,460.01,687.53,460.02z"/>
										</g>
									</g>
								</g>
							</g>
						</g>
					</g>
				</g>
				<g>
					<g>
						<g>
							<g>
								<g>
									<g>
										<g>
											<path style="fill:#263238;" d="M683.48,452.67c-0.06,0.11-0.61-0.08-1.3-0.06c-0.69,0.01-1.24,0.22-1.3,0.11
												c-0.07-0.09,0.48-0.52,1.29-0.53C682.99,452.17,683.54,452.58,683.48,452.67z"/>
										</g>
									</g>
								</g>
							</g>
						</g>
					</g>
				</g>
			</g>
			<g style="opacity:0.3;">
				<g>
					<g>
						<g>
							<g>
								<g>
									<polygon points="683.95,445.42 683.78,447.71 671.49,447.11 671.56,445.04 									"/>
								</g>
							</g>
						</g>
					</g>
				</g>
			</g>
			<g>
				<g>
					<g>
						<g>
							<g>
								<g>
									<g>
										<path style="fill:#263238;" d="M683.63,450.07c0,0.05-0.49,0.11-1.25-0.06c-0.38-0.08-0.83-0.23-1.29-0.45
											c-0.23-0.12-0.47-0.25-0.7-0.41c-0.11-0.08-0.25-0.16-0.37-0.31c-0.13-0.13-0.19-0.46-0.03-0.65
											c0.14-0.19,0.37-0.26,0.55-0.26c0.18,0,0.33,0.04,0.47,0.08c0.28,0.08,0.53,0.18,0.77,0.3c0.47,0.24,0.85,0.53,1.12,0.8
											c0.56,0.56,0.74,1.02,0.7,1.05c-0.06,0.04-0.32-0.36-0.9-0.82c-0.29-0.23-0.65-0.48-1.09-0.67
											c-0.22-0.1-0.46-0.18-0.71-0.25c-0.26-0.08-0.49-0.09-0.56,0.02c-0.03,0.04-0.03,0.06,0.02,0.14
											c0.05,0.07,0.16,0.15,0.27,0.23c0.22,0.15,0.43,0.29,0.65,0.4c0.43,0.23,0.84,0.4,1.19,0.51
											C683.16,449.95,683.63,450.01,683.63,450.07z"/>
									</g>
								</g>
							</g>
						</g>
					</g>
				</g>
			</g>
			<g>
				<g>
					<g>
						<g>
							<g>
								<g>
									<g>
										<path style="fill:#263238;" d="M683.46,450.24c-0.04,0.02-0.27-0.43-0.28-1.22c-0.01-0.39,0.05-0.87,0.23-1.36
											c0.09-0.25,0.2-0.5,0.35-0.75c0.16-0.24,0.35-0.57,0.82-0.6c0.25,0,0.45,0.2,0.51,0.37c0.08,0.17,0.09,0.32,0.11,0.46
											c0.03,0.29,0.02,0.58-0.03,0.84c-0.1,0.53-0.34,0.96-0.59,1.27c-0.51,0.63-1.03,0.75-1.04,0.71
											c-0.04-0.06,0.4-0.28,0.8-0.89c0.2-0.3,0.38-0.7,0.44-1.16c0.03-0.23,0.04-0.48,0.01-0.72c-0.03-0.27-0.12-0.49-0.22-0.46
											c-0.12-0.01-0.34,0.18-0.45,0.39c-0.14,0.22-0.25,0.44-0.34,0.67c-0.17,0.45-0.26,0.88-0.29,1.24
											C683.42,449.76,683.53,450.22,683.46,450.24z"/>
									</g>
								</g>
							</g>
						</g>
					</g>
				</g>
			</g>
		</g>
		<g>
			<g>
				<g>
					<g>
						<g>
							<path style="fill:#263238;" d="M693.29,336.95c0,0,4.59,9.41,5.79,16.12c0.34,1.9-13.14,98.36-13.14,98.36l-15.94-0.6
								l7.47-89.76l-2.66-18.01L693.29,336.95z"/>
						</g>
					</g>
				</g>
				<g>
					<g>
						<g>
							<path style="fill:#263238;" d="M654.57,342.83c0,0-0.26,8.96,1.05,19.5c1.18,9.46,3.88,20.23,4.76,26.25
								c1.94,13.32,5.76,15.84,5.76,15.84l30.58,39.13l11.98-10.79l-26.95-43.13c0,0-7.18-47.86-6.93-46.57
								C675.06,344.35,654.57,342.83,654.57,342.83z"/>
						</g>
					</g>
				</g>
				<g>
					<g>
						<g>
							<g>
								<path style="fill:#455A64;" d="M666.73,404.97c-0.01,0.01,0.09,0.15,0.29,0.41c0.22,0.28,0.51,0.66,0.87,1.13
									c0.78,1.01,1.87,2.41,3.21,4.13c2.7,3.54,6.4,8.38,10.48,13.73c4.09,5.37,7.81,10.21,10.57,13.67
									c1.37,1.73,2.51,3.12,3.3,4.07c0.38,0.45,0.69,0.81,0.92,1.09c0.21,0.25,0.33,0.37,0.34,0.36c0.01-0.01-0.09-0.15-0.29-0.41
									c-0.22-0.28-0.51-0.66-0.87-1.13c-0.78-1.01-1.87-2.41-3.21-4.13c-2.7-3.54-6.4-8.38-10.49-13.73
									c-4.09-5.37-7.81-10.21-10.57-13.67c-1.37-1.73-2.51-3.12-3.3-4.07c-0.38-0.45-0.69-0.81-0.92-1.09
									C666.86,405.09,666.74,404.96,666.73,404.97z"/>
							</g>
						</g>
					</g>
				</g>
			</g>
			<g>
				<g>
					<g>
						<path style="fill:#455A64;" d="M663.32,350.16c0.06,0.02-0.03,0.62-0.43,1.52c-0.39,0.9-1.13,2.07-2.22,3.1
							c-1.1,1.03-2.32,1.69-3.24,2.02c-0.92,0.33-1.53,0.39-1.55,0.33c-0.06-0.15,2.33-0.72,4.43-2.73
							C662.45,352.44,663.17,350.1,663.32,350.16z"/>
					</g>
				</g>
			</g>
			<g>
				<g>
					<g>
						<path style="fill:#455A64;" d="M696.32,344.7c0.05,0.13-1.01,0.53-2.34,0.32c-1.34-0.19-2.23-0.88-2.14-0.99
							c0.08-0.13,1,0.3,2.22,0.47C695.28,344.7,696.29,344.56,696.32,344.7z"/>
					</g>
				</g>
			</g>
			<g>
				<g>
					<g>
						<path style="fill:#455A64;" d="M679.11,358c0.02,0,0.05,0.22,0.11,0.64c0.06,0.46,0.13,1.07,0.23,1.84
							c0.19,1.66,0.45,3.98,0.77,6.86c0.62,5.89,1.48,14.04,2.45,23.35l-0.04-0.11c1.43,2.29,2.91,4.65,4.43,7.08
							c6,9.65,11.43,18.39,15.39,24.77c1.93,3.15,3.5,5.71,4.61,7.54c0.52,0.86,0.93,1.55,1.23,2.06c0.28,0.47,0.41,0.73,0.4,0.74
							c-0.02,0.01-0.18-0.23-0.49-0.68c-0.33-0.5-0.76-1.17-1.31-2.01c-1.15-1.8-2.77-4.34-4.75-7.45
							c-3.99-6.35-9.47-15.06-15.52-24.68c-1.52-2.43-2.99-4.8-4.42-7.09l-0.03-0.05l-0.01-0.06c-0.91-9.31-1.7-17.47-2.27-23.36
							c-0.26-2.89-0.47-5.21-0.62-6.88c-0.06-0.77-0.11-1.38-0.14-1.85C679.1,358.22,679.09,358,679.11,358z"/>
					</g>
				</g>
			</g>
		</g>
		<g>
			<g>
				<g>
					<g>
						<path style="fill:#2E9AD6;" d="M674.46,273.94l9.55,3.06l0.73,20.23c0,0,5.13,23.72,6.24,26.74
							c2.17,5.92,2.91,11.08,2.91,11.08s-1.84,13.42-15.25,15s-25.89-6.13-25.89-6.13s-4.48-19.99-8.58-37.93
							c-3.9-17.07-0.73-27.26-0.73-27.26l14.7-5.27L674.46,273.94z"/>
					</g>
				</g>
			</g>
			<g>
				<g>
					
						<rect x="672.89" y="285.72" transform="matrix(0.9928 -0.1201 0.1201 0.9928 -29.5562 83.4485)" style="fill:#FAFAFA;" width="8.83" height="2.27"/>
				</g>
			</g>
		</g>
		<g>
			<g>
				<g>
					<path style="fill:#263238;" d="M683.66,260.95c-0.15-0.98-1.14-1.75-2.13-1.66c0.98-0.61,0.84-2.35-0.21-2.81
						c0.98-1.39,0.65-3.53-0.71-4.55l-10.08,13.88c1.49,1.29,3.59,1.74,5.56,1.52c1.96-0.21,3.82-1.02,5.54-1.98
						c0.45-0.25,0.92-0.54,1.11-1.02c0.19-0.47-0.09-1.15-0.6-1.16C683.11,262.96,683.81,261.93,683.66,260.95z"/>
				</g>
			</g>
			<g>
				<g>
					<path style="fill:#263238;" d="M658.65,253.41c-0.38-0.12-0.83,0.03-1.06,0.35c-0.23,0.32-0.22,0.8,0.02,1.12
						c-0.6-0.09-1.23,0.18-1.59,0.67c-0.35,0.49-0.41,1.17-0.15,1.72c-0.72-0.02-1.46,0.12-2.04,0.55c-0.58,0.42-0.95,1.17-0.8,1.87
						c0.15,0.7,0.92,1.25,1.61,1.04c-0.32,0.62-0.35,1.44,0.1,1.98c0.44,0.54,1.41,0.62,1.82,0.05c-0.37,0.51-0.35,1.28,0.06,1.77
						c0.41,0.49,1.16,0.65,1.73,0.37c-0.16,0.64,0.13,1.36,0.69,1.71c0.56,0.35,1.34,0.29,1.84-0.13L658.65,253.41z"/>
				</g>
			</g>
			<g>
				<g>
					<g>
						<g>
							<g>
								<g>
									<g>
										<g>
											<g>
												<g>
													<g>
														<g>
															<g>
																<g>
																	<g>
																		<g>
																			<g>
																				<g>
																					<g>
																						<g>
																							<g>
																								<path style="fill:#FFBE9D;" d="M659.27,250.75l-0.44,24.59c-0.07,4.01,2.97,7.4,6.97,7.75l0,0
																									c4.4,0.39,8.22-3.03,8.32-7.45c0.05-2.34,0.08-4.26,0.08-4.26s6-0.4,6.59-6.31
																									c0.34-3.41,0.44-11.22,0.46-17.2c0.01-4.05-3.08-7.42-7.1-7.78l-3.57-0.32
																									C664.4,239.6,659.28,244.56,659.27,250.75z"/>
																							</g>
																						</g>
																					</g>
																				</g>
																			</g>
																		</g>
																	</g>
																</g>
															</g>
														</g>
													</g>
												</g>
												<g>
													<g>
														<g>
															<g>
																<g>
																	<g>
																		<g>
																			<g>
																				<g>
																					<g>
																						<g>
																							<g>
																								<path style="fill:#EB996E;" d="M674.21,271.39c0,0-3.75-0.11-7.5-2.96c0,0,1.52,4.47,7.47,4.46
																									L674.21,271.39z"/>
																							</g>
																						</g>
																					</g>
																				</g>
																			</g>
																		</g>
																	</g>
																</g>
															</g>
														</g>
													</g>
												</g>
											</g>
										</g>
									</g>
									<g>
										<g>
											<g>
												<g>
													<g>
														<g>
															<g>
																<g>
																	<g>
																		<g>
																			<g>
																				<g>
																					<g>
																						<g>
																							<g>
																								<g>
																									<g>
																										<g>
																											<g>
																												<path style="fill:#263238;" d="M679.61,253.89c-0.11,0.1-0.71-0.43-1.62-0.51
																													c-0.91-0.09-1.62,0.32-1.7,0.2c-0.04-0.05,0.08-0.24,0.39-0.43c0.3-0.19,0.81-0.35,1.38-0.29
																													c0.57,0.05,1.02,0.3,1.28,0.54C679.59,253.63,679.67,253.84,679.61,253.89z"/>
																											</g>
																										</g>
																									</g>
																								</g>
																							</g>
																						</g>
																					</g>
																				</g>
																			</g>
																		</g>
																	</g>
																</g>
															</g>
														</g>
														<g>
															<g>
																<g>
																	<g>
																		<g>
																			<g>
																				<g>
																					<g>
																						<g>
																							<g>
																								<g>
																									<g>
																										<g>
																											<path style="fill:#263238;" d="M669.96,254.28c-0.02,0.45-0.42,0.8-0.89,0.78
																												c-0.47-0.02-0.83-0.39-0.8-0.84c0.02-0.45,0.42-0.8,0.89-0.78
																												C669.62,253.46,669.98,253.84,669.96,254.28z"/>
																										</g>
																									</g>
																								</g>
																							</g>
																						</g>
																					</g>
																				</g>
																			</g>
																		</g>
																	</g>
																</g>
															</g>
															<g>
																<g>
																	<g>
																		<g>
																			<g>
																				<g>
																					<g>
																						<g>
																							<g>
																								<g>
																									<g>
																										<g>
																											<path style="fill:#263238;" d="M678.8,255.08c-0.02,0.45-0.42,0.8-0.89,0.78
																												c-0.47-0.02-0.83-0.39-0.8-0.84c0.02-0.45,0.42-0.8,0.89-0.78C678.47,254.25,678.83,254.63,678.8,255.08
																												z"/>
																										</g>
																									</g>
																								</g>
																							</g>
																						</g>
																					</g>
																				</g>
																			</g>
																		</g>
																	</g>
																</g>
															</g>
															<g>
																<g>
																	<g>
																		<g>
																			<g>
																				<g>
																					<g>
																						<g>
																							<g>
																								<g>
																									<g>
																										<g>
																											<g>
																												<path style="fill:#263238;" d="M670.77,253.11c-0.11,0.1-0.71-0.43-1.62-0.51
																													c-0.91-0.09-1.62,0.32-1.7,0.2c-0.04-0.05,0.08-0.24,0.39-0.43c0.3-0.19,0.81-0.35,1.38-0.29
																													c0.57,0.05,1.02,0.3,1.28,0.54C670.75,252.85,670.83,253.06,670.77,253.11z"/>
																											</g>
																										</g>
																									</g>
																								</g>
																							</g>
																						</g>
																					</g>
																				</g>
																			</g>
																		</g>
																	</g>
																</g>
															</g>
														</g>
														<g>
															<g>
																<g>
																	<g>
																		<g>
																			<g>
																				<g>
																					<g>
																						<g>
																							<g>
																								<g>
																									<g>
																										<g>
																											<path style="fill:#263238;" d="M673.47,260.14c0-0.05,0.57-0.1,1.5-0.14c0.23,0,0.46-0.03,0.51-0.19
																												c0.07-0.16-0.01-0.42-0.09-0.7c-0.17-0.58-0.35-1.19-0.53-1.83c-0.73-2.6-1.24-4.73-1.13-4.76
																												c0.11-0.03,0.78,2.06,1.51,4.66c0.17,0.64,0.34,1.25,0.5,1.84c0.06,0.27,0.19,0.58,0.04,0.92
																												c-0.08,0.17-0.26,0.28-0.41,0.31c-0.15,0.03-0.28,0.02-0.4,0.02
																												C674.04,260.24,673.47,260.19,673.47,260.14z"/>
																										</g>
																									</g>
																								</g>
																							</g>
																						</g>
																					</g>
																				</g>
																			</g>
																		</g>
																	</g>
																</g>
															</g>
														</g>
														<g>
															<g>
																<g>
																	<g>
																		<g>
																			<g>
																				<g>
																					<g>
																						<g>
																							<g>
																								<g>
																									<g>
																										<g>
																											<path style="fill:#263238;" d="M670.74,260.53c0.15,0,0.06,0.99,0.85,1.77c0.78,0.78,1.84,0.76,1.84,0.9
																												c0.01,0.06-0.25,0.17-0.7,0.14c-0.44-0.02-1.06-0.22-1.54-0.69c-0.48-0.48-0.65-1.07-0.65-1.48
																												C670.54,260.75,670.68,260.52,670.74,260.53z"/>
																										</g>
																									</g>
																								</g>
																							</g>
																						</g>
																					</g>
																				</g>
																			</g>
																		</g>
																	</g>
																</g>
															</g>
														</g>
													</g>
												</g>
											</g>
											<g>
												<g>
													<g>
														<g>
															<g>
																<g>
																	<g>
																		<g>
																			<g>
																				<g>
																					<g>
																						<g>
																							<path style="fill:#263238;" d="M671.27,250.17c-0.11,0.24-1.01,0.04-2.09,0.08
																								c-1.08,0.01-1.97,0.25-2.09,0.01c-0.05-0.11,0.12-0.33,0.49-0.54c0.37-0.21,0.94-0.39,1.58-0.4
																								c0.65-0.01,1.22,0.14,1.6,0.33C671.13,249.85,671.31,250.06,671.27,250.17z"/>
																						</g>
																					</g>
																				</g>
																			</g>
																		</g>
																	</g>
																</g>
															</g>
														</g>
													</g>
												</g>
											</g>
											<g>
												<g>
													<g>
														<g>
															<g>
																<g>
																	<g>
																		<g>
																			<g>
																				<g>
																					<g>
																						<g>
																							<path style="fill:#263238;" d="M679.72,251.27c-0.18,0.19-0.79-0.08-1.54-0.15c-0.75-0.1-1.4,0.02-1.53-0.21
																								c-0.06-0.11,0.06-0.31,0.36-0.48c0.29-0.17,0.77-0.29,1.28-0.23c0.52,0.06,0.95,0.29,1.19,0.52
																								C679.73,250.96,679.8,251.18,679.72,251.27z"/>
																						</g>
																					</g>
																				</g>
																			</g>
																		</g>
																	</g>
																</g>
															</g>
														</g>
													</g>
												</g>
											</g>
										</g>
									</g>
									<g>
										<g>
											<g>
												<g>
													<g>
														<g>
															<g>
																<g>
																	<g>
																		<g>
																			<g>
																				<g>
																					<g>
																						<path style="fill:#FFBE9D;" d="M660.87,255.36c-0.1-0.05-3.96-1.56-4.19,2.49c-0.23,4.06,3.89,3.45,3.9,3.33
																							C660.6,261.07,660.87,255.36,660.87,255.36z"/>
																					</g>
																				</g>
																			</g>
																		</g>
																	</g>
																</g>
															</g>
														</g>
													</g>
												</g>
											</g>
										</g>
										<g>
											<g>
												<g>
													<g>
														<g>
															<g>
																<g>
																	<g>
																		<g>
																			<g>
																				<g>
																					<g>
																						<g>
																							<path style="fill:#EB996E;" d="M659.44,259.58c-0.02-0.01-0.07,0.05-0.2,0.09
																								c-0.12,0.05-0.32,0.07-0.53-0.02c-0.42-0.18-0.74-0.88-0.72-1.61c0.01-0.37,0.11-0.72,0.25-1
																								c0.14-0.29,0.34-0.49,0.56-0.51c0.22-0.04,0.36,0.1,0.41,0.22c0.05,0.12,0.02,0.2,0.04,0.2
																								c0.01,0.01,0.09-0.06,0.07-0.23c-0.01-0.08-0.05-0.18-0.15-0.26c-0.09-0.08-0.23-0.13-0.39-0.13
																								c-0.31,0-0.61,0.28-0.77,0.59c-0.18,0.31-0.3,0.7-0.31,1.12c-0.02,0.82,0.36,1.61,0.93,1.81
																								c0.28,0.09,0.52,0.02,0.65-0.07C659.42,259.68,659.45,259.59,659.44,259.58z"/>
																						</g>
																					</g>
																				</g>
																			</g>
																		</g>
																	</g>
																</g>
															</g>
														</g>
													</g>
												</g>
											</g>
										</g>
									</g>
								</g>
							</g>
							<g>
								<g>
									<g>
										<g>
											<g>
												<g>
													<g>
														<g>
															<path style="fill:#263238;" d="M658.63,255.03c0.63-0.09,1.65,0.57,1.86,1.17c0.21,0.6,0.21,1.26,0.42,1.86
																c0.21,0.6,0.76,1.18,1.39,1.08c0.43-0.06,0.77-0.44,0.92-0.85c0.15-0.41,0.14-0.86,0.13-1.3
																c-0.07-1.91-0.3-3.82-0.21-5.73c0.09-1.91,0.54-3.86,1.68-5.39c1.14-1.53,3.08-2.56,4.97-2.24
																c1.25,0.21,2.34,0.97,3.58,1.25c1.46,0.34,3.07-0.05,4.23-1.01c0.15-0.12,0.82-0.48,0.82-0.48
																c0.01-0.1-0.01-0.95-0.32-1.29c-2.27-2.51-6.68-3.54-10.03-3.01c-3.34,0.53-6.62,2.57-8.29,5.51
																C658.09,247.56,658.13,251.86,658.63,255.03"/>
														</g>
													</g>
												</g>
											</g>
										</g>
									</g>
								</g>
							</g>
						</g>
					</g>
					<g>
						<g>
							<g>
								<path style="fill:#263238;" d="M682,246.87c-0.64,1.18-2.05,1.78-3.4,1.79c-1.34,0.02-2.64-0.45-3.9-0.92
									c-1.26-0.48-4.66-1.36-6-1.43c-0.2-0.01-0.44-0.04-0.53-0.22c-0.12-0.24,0.13-0.49,0.35-0.63c1.89-1.23,6.22-1.7,8.47-1.59
									c2.25,0.1,4.51,1.27,5.56,3.26"/>
							</g>
						</g>
					</g>
					<g>
						<g>
							<g>
								<g>
									<g>
										<path style="fill:#2E9AD6;" d="M681.41,246.98c0,0-1.58-2.26-4.74-2.68c-4.56-0.61-13.35,1.21-18.24,9.14
											c0,0-0.71-3.45-0.55-5.25c0.11-1.2,1.46-8.3,9.03-9.9C666.92,238.29,678.4,235.03,681.41,246.98z"/>
									</g>
								</g>
							</g>
						</g>
					</g>
					<g>
						<g>
							<g>
								<g>
									<path style="fill:#2E9AD6;" d="M659.22,251.93c2.61-3.32,6.04-5.95,9.81-7.86c3.76-1.91,9.86-3.6,14.02-4.32
										c1.25-0.22,2.55-0.39,3.77-0.06c1.23,0.32,2.37,1.26,2.57,2.51c0.25,1.57-2.68,3.69-4.04,4.51
										c-1.36,0.82-4.09,1.95-4.09,1.95s0.29-2.84-4.21-3.83C670.93,243.49,659.22,251.93,659.22,251.93z"/>
								</g>
							</g>
						</g>
					</g>
				</g>
				<g>
					<g>
						<g>
							<path style="fill:#263238;" d="M687.6,239.89c-0.03,0.06-0.45-0.16-1.3-0.2c-0.84-0.04-2.07,0.01-3.57,0.24
								c-2.99,0.47-7.09,1.5-11.39,3.23c-4.32,1.69-7.82,4.1-10,6.2c-1.1,1.04-1.84,2.02-2.28,2.74c-0.44,0.72-0.61,1.16-0.66,1.15
								c-0.02-0.01,0.01-0.12,0.08-0.34c0.06-0.22,0.2-0.52,0.4-0.91c0.4-0.76,1.11-1.81,2.2-2.9c2.14-2.2,5.69-4.7,10.06-6.42
								c4.34-1.75,8.49-2.73,11.54-3.12c1.52-0.19,2.78-0.19,3.64-0.08c0.43,0.06,0.76,0.13,0.97,0.24
								C687.51,239.82,687.61,239.87,687.6,239.89z"/>
						</g>
					</g>
				</g>
				<g>
					<g>
						<g>
							<path style="fill:#FAFAFA;" d="M672.97,241.46c0,0,2.35-1.04,4.62-1.13c-0.43-0.38-0.66-0.56-1.15-0.84
								c-1.17,0.13-2.36,0.32-3.6,0.87L672.97,241.46z"/>
						</g>
					</g>
				</g>
			</g>
			<g>
				<g>
					<path style="fill:#263238;" d="M682.09,248.99c0.37-0.52,0.43-1.23,0.16-1.81c-0.27-0.57-0.86-0.98-1.49-1.03
						c0.88-0.26,1.28-1.43,0.86-2.24c-0.42-0.81-1.48-1.17-2.36-0.92c-0.88,0.25-1.56,1.01-1.85,1.88c-0.37-0.55-1.03-0.89-1.7-0.86
						c-0.66,0.03-1.3,0.42-1.62,1c-0.11-0.52-0.76-0.77-1.28-0.66s-0.94,0.47-1.36,0.8c-0.42,0.33-0.89,0.65-1.42,0.65l-0.36,0.15
						c0.54,0.94,1.86,1.33,2.83,0.85c-0.01,0.68,0.47,1.33,1.11,1.53c0.65,0.19,1.41-0.09,1.77-0.66c0.16,1.05,1.69,1.58,2.47,0.86
						c0.39,1.21,2.14,1.7,3.1,0.87c0.52,0.8,0.66,1.83,0.38,2.74c0.65-0.15,1.2-0.69,1.36-1.34
						C682.85,250.15,682.61,249.42,682.09,248.99z"/>
				</g>
			</g>
			<g>
				<g>
					<path style="fill:#263238;" d="M665.18,248.02c-1.38,0.66-2.78,1.32-4.02,2.21c-1.24,0.89-2.34,2.04-2.95,3.45l1.98,1.91
						c0.54,0.18,0.98,0.38,1.42,0.01c0.44-0.37,0.66-0.97,0.58-1.54c0.55,0.16,1.18-0.04,1.55-0.48s0.44-1.1,0.18-1.61
						c0.39-0.1,0.72-0.41,0.83-0.8c0.11-0.39-0.01-0.83-0.29-1.12c0.46-0.01,0.9-0.33,1.06-0.76
						C665.67,248.85,665.53,248.32,665.18,248.02z"/>
				</g>
			</g>
		</g>
		<g>
			<g>
				<g>
					<g>
						<g>
							<path style="fill:#2E9AD6;" d="M684.02,277c0,0,5.92,3.55,7.69,6.7c1.77,3.16,11.24,26.23,10.85,29.97
								c-0.39,3.75-9.26,6.11-9.26,6.11l-9.27-12.03l4.24-2.53l-4.24-8.12V277z"/>
						</g>
					</g>
				</g>
				<g>
					<g>
						<g>
							<path style="fill:#FFBE9D;" d="M693.29,319.79c0,0-21.49,4.29-29.28-4.95l2.26-7.85c0,0,14.19,3.36,18.63,1.91L693.29,319.79
								z"/>
						</g>
					</g>
				</g>
				<g>
					<g>
						<g>
							<path style="fill:#263238;" d="M695.51,300.71c0.08,0.16-2.52,1.25-5.23,3.32c-2.7,2.08-4.42,4.31-4.56,4.19
								c-0.05-0.04,0.32-0.64,1.04-1.52c0.72-0.88,1.81-2.02,3.2-3.09c1.39-1.06,2.78-1.82,3.81-2.29
								C694.81,300.86,695.48,300.65,695.51,300.71z"/>
						</g>
					</g>
				</g>
				<g>
					<g>
						<g>
							<path style="fill:#263238;" d="M688.62,304.95c-0.14,0.06-0.94-1.69-1.93-3.83c-0.99-2.14-1.88-3.84-1.75-3.91
								c0.12-0.07,1.22,1.53,2.23,3.69C688.16,303.07,688.74,304.9,688.62,304.95z"/>
						</g>
					</g>
				</g>
			</g>
			<g>
				<g>
					<g>
						<g>
							<path style="fill:#263238;" d="M684.72,295.29c0.09-0.02-0.14-1.52-0.53-3.35c-0.38-1.83-0.77-3.3-0.86-3.28
								c-0.09,0.02,0.14,1.52,0.53,3.35C684.25,293.85,684.63,295.31,684.72,295.29z"/>
						</g>
					</g>
				</g>
			</g>
		</g>
		<g>
			<g>
				<g>
					<g>
						<g>
							<g>
								<path style="fill:#2E9AD6;" d="M646.16,279.96c0.41,0.43,6.31,4.34,8.28,11.04c1.97,6.7,4.14,13.61,4.14,13.61l7.69,0.99
									l-4.34,17.75c0,0-9.27-0.99-14.4-9.47c-5.13-8.48-8.28-18.93-8.28-18.93S639.91,273.46,646.16,279.96z"/>
							</g>
						</g>
					</g>
					<g>
						<g>
							<g>
								<path style="fill:#FFBE9D;" d="M663.63,305.26c0,0-3.27-7.3-3.7-7.4c-0.43-0.1-6.74-2.31-6.74-2.31s-0.34,0.87,0,1.59
									l-2.26,0.29c0,0,0.34,1.4,1.11,1.59l-0.82,0.72c0,0,0.68,0.92,1.54,1.3c0.87,0.38,1.49,0,1.49,0s-0.29,0.52,1.01,1.34
									c1.3,0.82,3.51,2.02,3.51,2.02L663.63,305.26z"/>
							</g>
						</g>
						<g>
							<g>
								<path style="fill:#EB996E;" d="M658.77,304.42L658.77,304.42c-0.03-0.01-2.23-1.21-3.52-2.02c-1.1-0.69-1.07-1.18-1.03-1.32
									c-0.15,0.07-0.72,0.3-1.47-0.02c-0.86-0.38-1.54-1.3-1.55-1.31l-0.01-0.01l0.81-0.71c-0.75-0.22-1.08-1.54-1.09-1.59l0-0.02
									l2.26-0.29c-0.32-0.72,0.01-1.57,0.01-1.58l0.01-0.01l0.02,0.01c0.06,0.02,6.31,2.21,6.73,2.31
									c0.44,0.1,3.58,7.11,3.71,7.41l0.01,0.03L658.77,304.42z M653.21,297.13l0.01,0.02l-2.27,0.29
									c0.04,0.16,0.39,1.38,1.09,1.56l0.03,0.01l-0.83,0.73c0.08,0.11,0.73,0.94,1.53,1.29c0.85,0.37,1.47,0.01,1.48,0l0.05-0.03
									l-0.03,0.05c0,0-0.26,0.52,1,1.32c1.26,0.8,3.42,1.97,3.51,2.02l4.82,0.85c-1.13-2.53-3.34-7.29-3.68-7.36
									c-0.42-0.09-6.38-2.18-6.72-2.3C653.16,295.69,652.9,296.47,653.21,297.13z"/>
							</g>
						</g>
					</g>
					<g>
						<g>
							<g>
								<g>
									<path style="fill:#EB996E;" d="M653.4,297.16c-0.03,0.09,1.82,0.81,4.13,1.61c0.57,0.21,1.15,0.36,1.6,0.58
										c0.46,0.21,0.74,0.57,0.94,0.9c0.38,0.68,0.52,1.17,0.57,1.15c0.03-0.01-0.02-0.51-0.36-1.26
										c-0.18-0.37-0.5-0.81-1.01-1.06c-0.5-0.26-1.06-0.41-1.63-0.62C655.32,297.65,653.43,297.08,653.4,297.16z"/>
								</g>
							</g>
						</g>
					</g>
					<g>
						<g>
							<g>
								<g>
									<path style="fill:#EB996E;" d="M651.93,299.02c-0.01,0.04,0.41,0.23,1.14,0.41c0.72,0.19,1.74,0.36,2.82,0.65
										c1.08,0.29,1.99,0.75,2.55,1.2c0.57,0.45,0.83,0.84,0.88,0.8c0.03-0.02-0.15-0.47-0.72-0.99c-0.56-0.53-1.5-1.05-2.62-1.35
										c-1.11-0.3-2.13-0.42-2.86-0.56C652.39,299.07,651.94,298.97,651.93,299.02z"/>
								</g>
							</g>
						</g>
					</g>
					<g>
						<g>
							<g>
								<g>
									<path style="fill:#EB996E;" d="M657.7,302.34c0.06-0.06-0.53-0.68-1.51-1.02c-0.97-0.35-1.83-0.25-1.82-0.16
										c0,0.1,0.8,0.16,1.7,0.49C656.99,301.96,657.64,302.42,657.7,302.34z"/>
								</g>
							</g>
						</g>
					</g>
					<g>
						<g>
							<g>
								<g>
									<path style="fill:#FFBE9D;" d="M665.61,307.5l19.37-9.78l3.55,7.24c0,0-17.87,17.71-26.25,17.48"/>
								</g>
							</g>
						</g>
					</g>
					<g>
						<g>
							<g>
								<g>
									<path style="fill:#263238;" d="M653.83,286.98c-0.05,0.01,0.06,0.56,0.26,1.43c0.2,0.87,0.51,2.08,0.87,3.4
										c0.36,1.32,0.7,2.51,0.96,3.37c0.26,0.86,0.45,1.38,0.5,1.37c0.05-0.01-0.06-0.56-0.26-1.43c-0.2-0.87-0.51-2.07-0.87-3.4
										c-0.36-1.32-0.7-2.51-0.96-3.37C654.06,287.5,653.88,286.97,653.83,286.98z"/>
								</g>
							</g>
						</g>
					</g>
					<g>
						<g>
							<g>
								<g>
									<path style="fill:#263238;" d="M654.67,311.07c0.06,0.02,0.23-0.89,0.68-2.28c0.24-0.69,0.57-1.5,1.16-2.24
										c0.58-0.73,1.45-1.42,2.51-1.59c1.07-0.15,2.12,0.18,3.07,0.35c0.93,0.18,1.79,0.35,2.54,0.5
										c0.36,0.07,0.69,0.12,0.93,0.24c0.25,0.12,0.4,0.3,0.47,0.48c0.14,0.37-0.06,0.57-0.03,0.58c0,0.03,0.27-0.17,0.16-0.63
										c-0.05-0.21-0.23-0.46-0.51-0.61c-0.27-0.16-0.62-0.23-0.97-0.31c-0.75-0.17-1.6-0.36-2.52-0.58
										c-0.94-0.18-2-0.54-3.19-0.38c-1.19,0.19-2.11,0.95-2.71,1.73c-0.61,0.8-0.93,1.65-1.15,2.36
										c-0.21,0.71-0.32,1.3-0.38,1.71C654.67,310.83,654.64,311.06,654.67,311.07z"/>
								</g>
							</g>
						</g>
					</g>
					<g>
						<g>
							<g>
								<g>
									<path style="fill:#263238;" d="M652.03,307.17c0.1,0.05,0.61-1.4,2.1-2.42c1.47-1.03,2.98-1.19,2.95-1.3
										c0-0.04-0.38-0.05-0.98,0.07c-0.59,0.12-1.4,0.41-2.17,0.95c-0.77,0.54-1.3,1.23-1.58,1.77
										C652.06,306.79,651.99,307.16,652.03,307.17z"/>
								</g>
							</g>
						</g>
					</g>
					<g>
						<g>
							<g>
								<g>
									<path style="fill:#263238;" d="M639.26,294.95c-0.01,0,0.03,0.13,0.1,0.38c0.09,0.28,0.21,0.63,0.36,1.06
										c0.33,0.96,0.78,2.28,1.34,3.9c0.58,1.64,1.25,3.61,2.21,5.71c1.01,2.08,2.09,4.36,3.46,6.65
										c1.37,2.29,3.05,4.25,4.83,5.74c1.77,1.5,3.59,2.56,5.2,3.24c1.62,0.68,3.01,0.99,3.98,1.12c0.48,0.06,0.86,0.1,1.12,0.1
										c0.26,0.01,0.39,0.01,0.39,0c0-0.04-0.54-0.06-1.49-0.23c-0.95-0.17-2.32-0.51-3.9-1.21c-3.15-1.37-7.15-4.35-9.83-8.94
										c-1.35-2.26-2.45-4.55-3.47-6.61c-0.97-2.08-1.66-4.03-2.27-5.66c-0.6-1.63-1.09-2.95-1.44-3.86
										c-0.17-0.42-0.31-0.77-0.42-1.04C639.32,295.07,639.27,294.94,639.26,294.95z"/>
								</g>
							</g>
						</g>
					</g>
					<g>
						<g>
							<g>
								<g>
									<path style="fill:#263238;" d="M644.82,280.42c-0.03,0.1,1.48,0.64,3.17,1.64c1.7,0.99,2.9,2.06,2.97,1.98
										c0.06-0.06-1.06-1.26-2.79-2.28C646.43,280.74,644.84,280.34,644.82,280.42z"/>
								</g>
							</g>
						</g>
					</g>
				</g>
				<g>
					<g>
						<g>
							<g>
								<path style="fill:#263238;" d="M659.53,327.54c-0.01,0.02,0.34,0.2,0.99,0.5c0.32,0.15,0.72,0.33,1.2,0.52
									c0.47,0.19,1.01,0.42,1.62,0.61c1.21,0.44,2.67,0.87,4.33,1.25c1.66,0.37,3.5,0.68,5.45,0.86c1.95,0.16,3.82,0.18,5.52,0.11
									c1.69-0.09,3.21-0.26,4.48-0.48c0.64-0.09,1.2-0.22,1.7-0.32c0.5-0.1,0.92-0.2,1.27-0.3c0.69-0.18,1.07-0.3,1.07-0.32
									c-0.01-0.02-0.4,0.05-1.1,0.19c-0.35,0.08-0.78,0.16-1.28,0.24c-0.5,0.08-1.07,0.2-1.7,0.27c-1.26,0.19-2.77,0.33-4.46,0.4
									c-1.68,0.05-3.54,0.03-5.47-0.14c-1.93-0.18-3.76-0.48-5.41-0.83c-1.64-0.37-3.11-0.77-4.32-1.17
									c-0.61-0.18-1.15-0.4-1.63-0.56c-0.48-0.16-0.88-0.33-1.22-0.46C659.91,327.66,659.54,327.52,659.53,327.54z"/>
							</g>
						</g>
					</g>
				</g>
				<g>
					<g>
						<g>
							<g>
								<path style="fill:#263238;" d="M675.28,337.61c0.02,0.09,1.8-0.27,3.93-0.98c2.12-0.71,3.76-1.49,3.73-1.57
									c-0.04-0.09-1.73,0.55-3.84,1.25C676.99,337.02,675.26,337.52,675.28,337.61z"/>
							</g>
						</g>
					</g>
				</g>
				<g style="opacity:0.3;">
					<g>
						<path d="M690.08,320.32c-4.58,0.73-8.89,1.09-13.44,0.2c-1.65-0.32-3.31-0.86-4.96-0.61c-1.36,0.21-2.58,0.93-3.85,1.46
							c-4.57,1.93-10.1,1.35-14.18-1.47c1.29,2.83,4.27,4.62,7.34,5.15c3.06,0.53,6.21-0.03,9.22-0.82c1.8-0.48,3.6-1.05,5.46-1.1
							c2.36-0.07,4.67,0.7,7.03,0.75c2.6,0.05,5.61-0.71,7.66-2.3L690.08,320.32z"/>
					</g>
				</g>
				<g style="opacity:0.3;">
					<g>
						<g>
							<g>
								<path d="M682.4,335.72c-1.97,3.33-5.59,5.62-9.45,5.97c-0.84,0.07-1.69,0.06-2.49-0.2c-0.8-0.26-1.53-0.8-1.88-1.57
									c0.85-0.63,1.91-0.93,2.93-1.21c3.59-0.99,7.18-1.97,10.77-2.96"/>
							</g>
						</g>
					</g>
				</g>
			</g>
			<g>
				<g>
					<g>
						<path style="fill:#EB996E;" d="M688.26,305.24c0.02,0.03-0.29,0.34-0.87,0.9c-0.58,0.56-1.42,1.35-2.41,2.38
							c-1,1.02-2.17,2.28-3.61,3.53c-1.44,1.25-3.07,2.54-4.81,3.88c-1.74,1.34-3.46,2.54-5.11,3.5c-1.65,0.97-3.23,1.67-4.6,2.13
							c-1.37,0.48-2.53,0.67-3.32,0.8c-0.8,0.09-1.25,0.11-1.25,0.08c-0.02-0.1,1.78-0.23,4.45-1.23c1.33-0.5,2.87-1.22,4.48-2.2
							c1.61-0.97,3.31-2.17,5.04-3.5c1.72-1.34,3.37-2.61,4.81-3.83c1.44-1.22,2.63-2.43,3.67-3.43c1.04-1,1.92-1.76,2.54-2.27
							C687.88,305.47,688.24,305.21,688.26,305.24z"/>
					</g>
				</g>
			</g>
		</g>
	</g>
</g>
<g id="Capa_8">
	<path style="fill:#2E9AD6;" d="M441.97,245.33c-1.81,0-3.62-0.48-5.27-1.43c-3.28-1.9-5.24-5.3-5.24-9.09v-43.05
		c0-4.79,2.58-9.25,6.73-11.65l21.08-12.17c2.01-1.16,4.58-0.47,5.74,1.54c1.16,2.01,0.47,4.58-1.54,5.74l-21.08,12.17
		c-1.56,0.9-2.52,2.57-2.52,4.37v43.05c0,1.09,0.73,1.64,1.05,1.82c0.32,0.18,1.15,0.55,2.1,0l37.22-21.36
		c1.56-0.89,2.53-2.56,2.53-4.35l0.1-22.84c0.01-2.32,1.89-4.19,4.2-4.19c0.01,0,0.01,0,0.02,0c2.32,0.01,4.2,1.9,4.19,4.22
		l-0.1,22.84c-0.02,4.78-2.61,9.23-6.76,11.61l-37.22,21.36C445.56,244.86,443.76,245.33,441.97,245.33z"/>
	<path style="fill:#2E9AD6;" d="M427.43,245.23c-0.71,0-1.43-0.18-2.09-0.56l-38.46-22.12c-4.13-2.37-6.71-6.81-6.75-11.57
		l-0.08-12.05c-0.02-2.32,1.85-4.22,4.17-4.23c0.01,0,0.02,0,0.03,0c2.31,0,4.19,1.86,4.2,4.17l0.08,12.05
		c0.01,1.79,0.98,3.45,2.53,4.34l38.46,22.12c2.01,1.16,2.71,3.73,1.55,5.74C430.3,244.48,428.88,245.23,427.43,245.23z"/>
	<path style="fill:#2E9AD6;" d="M473.89,144.09l-31.54-17.95c-4.13-2.37-9.26-2.37-13.39,0l-42.04,24.12
		c-4.17,2.39-6.76,6.86-6.76,11.67v26.17c0,2.32,1.88,4.2,4.2,4.2s4.2-1.88,4.2-4.2v-23.13l36.82,20.38
		c0.65,0.36,1.34,0.53,2.03,0.53c1.48,0,2.91-0.78,3.68-2.17c1.12-2.03,0.39-4.59-1.64-5.71l-37.65-20.84l41.34-23.72
		c1.55-0.89,3.47-0.89,5.03,0.01l31.55,17.96c2.02,1.15,4.58,0.44,5.73-1.57C476.62,147.81,475.91,145.24,473.89,144.09z"/>
	<g>
		<g>
			<path style="fill:#2E9AD6;" d="M324.55,314.51h-2v-14.13h9.88v1.76h-7.88V314.51z M324.35,307.07h7.22v1.74h-7.22V307.07z"/>
			<path style="fill:#2E9AD6;" d="M341.56,314.51v-10.69h1.84v2.91l-0.18-0.73c0.29-0.74,0.79-1.3,1.48-1.69
				c0.69-0.39,1.55-0.59,2.56-0.59v1.88c-0.08-0.01-0.16-0.02-0.23-0.02c-0.07,0-0.14,0-0.21,0c-1.03,0-1.84,0.31-2.44,0.93
				c-0.6,0.62-0.9,1.51-0.9,2.68v5.33H341.56z"/>
			<path style="fill:#2E9AD6;" d="M357.38,301.76c-0.37,0-0.68-0.12-0.93-0.36c-0.25-0.24-0.37-0.54-0.37-0.89
				c0-0.36,0.12-0.67,0.37-0.91c0.25-0.24,0.56-0.36,0.93-0.36s0.68,0.12,0.93,0.35s0.37,0.53,0.37,0.88c0,0.36-0.12,0.67-0.36,0.92
				C358.08,301.64,357.77,301.76,357.38,301.76z M356.42,314.51v-10.69h1.92v10.69H356.42z"/>
			<path style="fill:#2E9AD6;" d="M373.33,314.63c-1.07,0-2.01-0.24-2.84-0.71s-1.48-1.12-1.96-1.95s-0.72-1.77-0.72-2.82
				c0-1.06,0.24-2,0.72-2.82s1.13-1.46,1.96-1.93c0.83-0.46,1.77-0.7,2.84-0.7c1.05,0,2,0.23,2.83,0.7c0.83,0.46,1.49,1.1,1.96,1.92
				c0.47,0.81,0.71,1.76,0.71,2.83c0,1.06-0.24,2-0.71,2.83c-0.47,0.82-1.13,1.47-1.96,1.94
				C375.33,314.4,374.39,314.63,373.33,314.63z M373.33,312.94c0.68,0,1.29-0.15,1.83-0.46c0.54-0.31,0.96-0.75,1.27-1.32
				c0.31-0.57,0.46-1.23,0.46-1.99c0-0.77-0.15-1.43-0.46-1.99c-0.31-0.56-0.73-0.99-1.27-1.3c-0.54-0.31-1.15-0.46-1.83-0.46
				c-0.68,0-1.29,0.16-1.82,0.46c-0.53,0.31-0.96,0.74-1.28,1.3c-0.32,0.56-0.48,1.22-0.48,1.99c0,0.75,0.16,1.42,0.48,1.99
				c0.32,0.57,0.75,1.01,1.28,1.32C372.05,312.78,372.65,312.94,373.33,312.94z"/>
			<path style="fill:#2E9AD6;" d="M391.33,314.63c-0.88,0-1.72-0.12-2.51-0.36s-1.42-0.54-1.87-0.89l0.8-1.53
				c0.45,0.31,1.01,0.57,1.68,0.79c0.67,0.22,1.35,0.32,2.04,0.32c0.89,0,1.54-0.13,1.93-0.38c0.39-0.25,0.59-0.61,0.59-1.07
				c0-0.34-0.12-0.6-0.36-0.79c-0.24-0.19-0.56-0.33-0.95-0.42c-0.39-0.09-0.83-0.18-1.31-0.25c-0.48-0.07-0.96-0.17-1.44-0.28
				c-0.48-0.11-0.92-0.28-1.32-0.48c-0.4-0.21-0.72-0.5-0.96-0.87s-0.36-0.86-0.36-1.48c0-0.65,0.18-1.21,0.54-1.7
				c0.36-0.48,0.87-0.86,1.53-1.12c0.66-0.26,1.44-0.39,2.35-0.39c0.69,0,1.4,0.08,2.11,0.25c0.71,0.17,1.3,0.41,1.75,0.72
				l-0.82,1.53c-0.48-0.32-0.98-0.54-1.5-0.67c-0.52-0.12-1.04-0.18-1.56-0.18c-0.84,0-1.47,0.14-1.88,0.41
				c-0.41,0.28-0.62,0.63-0.62,1.06c0,0.36,0.12,0.64,0.37,0.84c0.25,0.2,0.57,0.35,0.96,0.45s0.83,0.2,1.31,0.27
				c0.48,0.07,0.96,0.17,1.44,0.28c0.48,0.11,0.92,0.27,1.31,0.47c0.39,0.2,0.71,0.48,0.96,0.85c0.25,0.36,0.37,0.85,0.37,1.45
				c0,0.65-0.19,1.2-0.56,1.67s-0.9,0.84-1.58,1.1C393.09,314.5,392.28,314.63,391.33,314.63z"/>
			<path style="fill:#2E9AD6;" d="M421.66,314.63c-1.03,0-1.94-0.23-2.75-0.69c-0.81-0.46-1.44-1.1-1.91-1.92
				c-0.47-0.82-0.7-1.78-0.7-2.87c0-1.09,0.23-2.04,0.7-2.85c0.47-0.81,1.1-1.45,1.91-1.91s1.72-0.69,2.75-0.69
				c0.89,0,1.7,0.2,2.42,0.61c0.72,0.4,1.3,1.01,1.73,1.82c0.43,0.81,0.65,1.82,0.65,3.03c0,1.21-0.21,2.22-0.63,3.03
				c-0.42,0.81-0.99,1.42-1.71,1.83S422.58,314.63,421.66,314.63z M421.82,312.94c0.67,0,1.27-0.15,1.81-0.46s0.97-0.75,1.28-1.32
				c0.31-0.57,0.47-1.23,0.47-1.99c0-0.77-0.16-1.43-0.47-1.99c-0.31-0.56-0.74-0.99-1.28-1.3c-0.54-0.31-1.14-0.46-1.81-0.46
				c-0.68,0-1.29,0.16-1.82,0.46c-0.53,0.31-0.96,0.74-1.28,1.3c-0.32,0.56-0.48,1.22-0.48,1.99c0,0.75,0.16,1.42,0.48,1.99
				c0.32,0.57,0.75,1.01,1.28,1.32S421.14,312.94,421.82,312.94z M425.44,314.51v-2.89l0.12-2.48l-0.2-2.48v-7.12h1.92v14.97H425.44
				z"/>
			<path style="fill:#2E9AD6;" d="M442.44,314.63c-1.13,0-2.13-0.24-2.99-0.71c-0.86-0.47-1.53-1.12-2-1.94
				c-0.47-0.82-0.71-1.76-0.71-2.83c0-1.06,0.23-2,0.69-2.82s1.09-1.46,1.9-1.93c0.81-0.46,1.72-0.7,2.73-0.7
				c1.03,0,1.93,0.23,2.72,0.69s1.4,1.1,1.85,1.93s0.67,1.79,0.67,2.9c0,0.08,0,0.18-0.01,0.28c-0.01,0.11-0.02,0.21-0.03,0.3h-9.02
				v-1.39h8.02l-0.78,0.48c0.01-0.69-0.13-1.3-0.42-1.84c-0.29-0.54-0.7-0.96-1.21-1.26c-0.51-0.3-1.11-0.45-1.79-0.45
				c-0.67,0-1.26,0.15-1.78,0.45s-0.93,0.73-1.22,1.27s-0.44,1.17-0.44,1.87v0.32c0,0.71,0.16,1.35,0.49,1.91
				c0.33,0.56,0.78,0.99,1.37,1.3c0.59,0.31,1.26,0.46,2.02,0.46c0.63,0,1.2-0.11,1.71-0.32c0.51-0.21,0.96-0.54,1.35-0.97
				l1.06,1.25c-0.48,0.57-1.08,1-1.79,1.29C444.11,314.49,443.32,314.63,442.44,314.63z"/>
			<path style="fill:#2E9AD6;" d="M456.76,314.51v-14.97h1.92v14.97H456.76z"/>
			<path style="fill:#2E9AD6;" d="M484.09,314.51l-4.64-10.69h2l4.12,9.69h-0.96l4.2-9.69h1.88l-4.64,10.69H484.09z"/>
			<path style="fill:#2E9AD6;" d="M502.05,314.63c-0.79,0-1.48-0.13-2.07-0.4c-0.59-0.27-1.05-0.64-1.37-1.12
				c-0.32-0.48-0.48-1.02-0.48-1.62c0-0.58,0.14-1.1,0.41-1.57c0.27-0.47,0.72-0.85,1.34-1.13c0.62-0.28,1.46-0.42,2.51-0.42h3.36
				v1.39h-3.28c-0.96,0-1.61,0.16-1.94,0.48c-0.33,0.32-0.5,0.71-0.5,1.17c0,0.52,0.21,0.95,0.62,1.26
				c0.41,0.32,0.99,0.47,1.72,0.47c0.72,0,1.35-0.16,1.89-0.48c0.54-0.32,0.93-0.79,1.17-1.41l0.38,1.33
				c-0.25,0.63-0.7,1.13-1.34,1.5C503.82,314.45,503.02,314.63,502.05,314.63z M505.53,314.51v-2.26l-0.1-0.42v-3.85
				c0-0.82-0.24-1.46-0.71-1.91c-0.47-0.45-1.18-0.68-2.13-0.68c-0.63,0-1.24,0.1-1.84,0.31c-0.6,0.21-1.11,0.49-1.52,0.84
				l-0.8-1.45c0.55-0.44,1.2-0.78,1.97-1.02s1.57-0.35,2.41-0.35c1.45,0,2.57,0.36,3.36,1.07c0.79,0.71,1.18,1.8,1.18,3.27v6.46
				H505.53z"/>
			<path style="fill:#2E9AD6;" d="M517.7,314.51v-14.97h1.92v14.97H517.7z"/>
			<path style="fill:#2E9AD6;" d="M530.08,314.51v-14.97H532v14.97H530.08z"/>
			<path style="fill:#2E9AD6;" d="M547.17,314.63c-1.13,0-2.13-0.24-2.99-0.71c-0.86-0.47-1.53-1.12-2-1.94
				c-0.47-0.82-0.71-1.76-0.71-2.83c0-1.06,0.23-2,0.69-2.82s1.09-1.46,1.9-1.93c0.81-0.46,1.72-0.7,2.73-0.7
				c1.03,0,1.93,0.23,2.72,0.69s1.4,1.1,1.85,1.93s0.67,1.79,0.67,2.9c0,0.08,0,0.18-0.01,0.28c-0.01,0.11-0.02,0.21-0.03,0.3h-9.02
				v-1.39h8.02l-0.78,0.48c0.01-0.69-0.13-1.3-0.42-1.84c-0.29-0.54-0.7-0.96-1.21-1.26c-0.51-0.3-1.11-0.45-1.79-0.45
				c-0.67,0-1.26,0.15-1.78,0.45s-0.93,0.73-1.22,1.27s-0.44,1.17-0.44,1.87v0.32c0,0.71,0.16,1.35,0.49,1.91
				c0.33,0.56,0.78,0.99,1.37,1.3c0.59,0.31,1.26,0.46,2.02,0.46c0.63,0,1.2-0.11,1.71-0.32c0.51-0.21,0.96-0.54,1.35-0.97
				l1.06,1.25c-0.48,0.57-1.08,1-1.79,1.29C548.85,314.49,548.05,314.63,547.17,314.63z"/>
		</g>
	</g>
	<g>
		<path d="M336.8,295.03h-14.29v-42.38h34.44v10.78H336.8V295.03z M335.83,270.69h18.65v10.78h-18.65V270.69z"/>
		<path d="M360.89,295.03v-42.38h20.4c3.96,0,7.38,0.65,10.26,1.94c2.88,1.29,5.12,3.14,6.69,5.54c1.57,2.4,2.36,5.24,2.36,8.5
			c0,3.27-0.79,6.08-2.36,8.45c-1.57,2.36-3.8,4.17-6.69,5.42c-2.89,1.25-6.31,1.88-10.26,1.88h-12.47l6.36-5.87v16.53H360.89z
			 M375.17,280.07l-6.36-6.48h11.56c1.98,0,3.44-0.44,4.39-1.33c0.95-0.89,1.42-2.1,1.42-3.63c0-1.53-0.47-2.74-1.42-3.63
			c-0.95-0.89-2.41-1.33-4.39-1.33h-11.56l6.36-6.48V280.07z M386.25,295.03l-10.41-15.44h15.13l10.53,15.44H386.25z"/>
		<path d="M405.38,295.03v-42.38h14.29v42.38H405.38z"/>
		<path d="M439.28,295.03l-17.92-42.38h15.38l14.59,35.78h-9.14l15.01-35.78h14.04l-17.92,42.38H439.28z"/>
		<path d="M465.92,295.03l18.52-42.38h14.04l18.52,42.38h-14.77l-13.68-35.59h5.57l-13.68,35.59H465.92z M476.93,287.64l3.63-10.29
			h19.49l3.63,10.29H476.93z"/>
		<path d="M518.7,295.03v-42.38h14.29v31.3h19.13v11.08H518.7z"/>
	</g>
</g>
<g>
</g>
<g>
</g>
<g>
</g>
<g>
</g>
<g>
</g>
<g>
</g>
</svg>
