<?xml version="1.0" encoding="utf-8"?>
<!-- Generator: Adobe Illustrator 24.1.1, SVG Export Plug-In . SVG Version: 6.00 Build 0)  -->
<svg version="1.1" id="Capa_7" xmlns="http://www.w3.org/2000/svg" xmlns:xlink="http://www.w3.org/1999/xlink" x="0px" y="0px"
	 viewBox="0 0 750 500" style="enable-background:new 0 0 750 500;" xml:space="preserve">
<style type="text/css">
	.st0{fill:#F5F5F5;}
	.st1{fill:#EBEBEB;}
	.st2{fill:#E0E0E0;}
	.st3{fill:#FAFAFA;}
	.st4{fill:#FFFFFF;}
	.st5{fill:#2E9AD6;}
	.st6{fill:#263238;}
	.st7{fill:#E8505B;}
	.st8{fill:#176884;}
	.st9{opacity:0.4;}
	.st10{fill:#455A64;}
	.st11{fill:none;stroke:#9E9E9E;stroke-width:5;stroke-miterlimit:10;}
	.st12{display:none;}
	.st13{display:inline;}
	.st14{opacity:0.6;}
	.st15{opacity:0.3;}
	.st16{fill:#FFBE9D;}
	.st17{fill:#EB996E;}
</style>
<g id="Background_Complete">
	<g>
		<g>
			<g>
				<path class="st0" d="M173.1,62.7c0.4-2.2-1.2-4.3-3.3-5.2c-2-0.9-4.3-0.9-6.5-1.1s-4.5-0.4-6.3-1.7c-1.8-1.3-2.9-3.6-4.8-4.7
					c-2.7-1.5-5.9-0.4-9-0.5c-3.5-0.2-6.6-2.2-9.7-3.8c-3.1-1.6-6.8-2.8-10-1.4c-4.3,1.8-6.1,7.5-10.5,9c-2,0.7-4.3,0.4-6.4,0.5
					c-4.5,0.4-10.5,3.8-9.9,8.1L173.1,62.7z"/>
			</g>
		</g>
	</g>
	<g>
		<g>
			<g>
				<rect x="578.5" y="137.5" class="st0" width="84.5" height="267.9"/>
			</g>
		</g>
		<g>
			<g>
				<rect x="578.5" y="137.5" class="st1" width="42.3" height="267.1"/>
			</g>
		</g>
		<g>
			<g>
				<rect x="623.5" y="111.2" class="st0" width="29.8" height="26.3"/>
			</g>
		</g>
		<g>
			<g>
				<rect x="623.5" y="111.2" class="st1" width="7.1" height="26.3"/>
			</g>
		</g>
		<g>
			<g>
				<polyline class="st2" points="576,137.5 576,136 670,136 670,137.5 				"/>
			</g>
		</g>
		<g>
			<g>
				<rect x="639.1" y="149" class="st3" width="7.2" height="15.1"/>
			</g>
		</g>
		<g>
			<g>
				<g>
					<path class="st2" d="M641.8,169.7c11.7,0,21.1,0.1,21.1,0.3c0,0.2-9.5,0.3-21.1,0.3c-11.7,0-21.1-0.1-21.1-0.3
						S630.2,169.7,641.8,169.7z"/>
				</g>
			</g>
		</g>
		<g>
			<g>
				<g>
					<rect x="596.5" y="149" class="st2" width="7.1" height="15.1"/>
				</g>
			</g>
			<g>
				<g>
					<g>
						<path class="st2" d="M599.2,169.7c11.7,0,21.1,0.1,21.1,0.3c0,0.2-9.5,0.3-21.1,0.3s-21.1-0.1-21.1-0.3
							S587.5,169.7,599.2,169.7z"/>
					</g>
				</g>
			</g>
		</g>
		<g>
			<g>
				<g>
					<rect x="596.5" y="178.9" class="st2" width="7.1" height="15.1"/>
				</g>
			</g>
			<g>
				<g>
					<g>
						<path class="st2" d="M599.2,199.7c11.7,0,21.1,0.1,21.1,0.3c0,0.2-9.5,0.3-21.1,0.3s-21.1-0.1-21.1-0.3
							S587.5,199.6,599.2,199.7z"/>
					</g>
				</g>
			</g>
		</g>
		<g>
			<g>
				<g>
					<rect x="596.5" y="209.8" class="st2" width="7.1" height="15.1"/>
				</g>
			</g>
			<g>
				<g>
					<g>
						<path class="st2" d="M599.2,230.5c11.7,0,21.1,0.1,21.1,0.3c0,0.2-9.5,0.3-21.1,0.3s-21.1-0.1-21.1-0.3
							C578.1,230.6,587.5,230.5,599.2,230.5z"/>
					</g>
				</g>
			</g>
		</g>
		<g>
			<g>
				<g>
					<rect x="596.5" y="240.6" class="st2" width="7.1" height="15.1"/>
				</g>
			</g>
			<g>
				<g>
					<g>
						<path class="st2" d="M599.2,261.4c11.7,0,21.1,0.1,21.1,0.3s-9.5,0.3-21.1,0.3c-11.7,0-21.1-0.1-21.1-0.3
							S587.5,261.4,599.2,261.4z"/>
					</g>
				</g>
			</g>
		</g>
		<g>
			<g>
				<g>
					<rect x="596.5" y="270.6" class="st2" width="7.1" height="15.1"/>
				</g>
			</g>
			<g>
				<g>
					<g>
						<path class="st2" d="M599.2,291.3c11.7,0,21.1,0.1,21.1,0.3s-9.5,0.3-21.1,0.3c-11.7,0-21.1-0.1-21.1-0.3
							C578.1,291.5,587.5,291.3,599.2,291.3z"/>
					</g>
				</g>
			</g>
		</g>
		<g>
			<g>
				<g>
					<rect x="596.5" y="300.7" class="st2" width="7.1" height="15.1"/>
				</g>
			</g>
			<g>
				<g>
					<rect x="596.5" y="331.2" class="st2" width="7.1" height="15.1"/>
				</g>
			</g>
			<g>
				<g>
					<g>
						<path class="st2" d="M599.2,321.4c11.7,0,21.1,0.1,21.1,0.3s-9.5,0.3-21.1,0.3c-11.7,0-21.1-0.1-21.1-0.3
							C578.1,321.5,587.5,321.4,599.2,321.4z"/>
					</g>
				</g>
			</g>
		</g>
		<g>
			<g>
				<rect x="639.1" y="179.4" class="st3" width="7.2" height="15.1"/>
			</g>
		</g>
		<g>
			<g>
				<g>
					<path class="st2" d="M641.8,200.1c11.7,0,21.1,0.1,21.1,0.3c0,0.2-9.5,0.3-21.1,0.3c-11.7,0-21.1-0.1-21.1-0.3
						S630.2,200.1,641.8,200.1z"/>
				</g>
			</g>
		</g>
		<g>
			<g>
				<rect x="639.1" y="209.8" class="st3" width="7.2" height="15.1"/>
			</g>
		</g>
		<g>
			<g>
				<g>
					<path class="st2" d="M641.8,230.5c11.7,0,21.1,0.1,21.1,0.3c0,0.2-9.5,0.3-21.1,0.3c-11.7,0-21.1-0.1-21.1-0.3
						S630.2,230.5,641.8,230.5z"/>
				</g>
			</g>
		</g>
		<g>
			<g>
				<rect x="639.1" y="240.2" class="st3" width="7.2" height="15.1"/>
			</g>
		</g>
		<g>
			<g>
				<g>
					<path class="st2" d="M641.8,260.9c11.7,0,21.1,0.1,21.1,0.3s-9.5,0.3-21.1,0.3c-11.7,0-21.1-0.1-21.1-0.3
						S630.2,260.9,641.8,260.9z"/>
				</g>
			</g>
		</g>
		<g>
			<g>
				<rect x="639.1" y="270.6" class="st3" width="7.2" height="15.1"/>
			</g>
		</g>
		<g>
			<g>
				<g>
					<path class="st2" d="M641.8,291.3c11.7,0,21.1,0.1,21.1,0.3s-9.5,0.3-21.1,0.3c-11.7,0-21.1-0.1-21.1-0.3
						C620.7,291.5,630.2,291.3,641.8,291.3z"/>
				</g>
			</g>
		</g>
		<g>
			<g>
				<rect x="639.1" y="301" class="st3" width="7.2" height="15.1"/>
			</g>
		</g>
		<g>
			<g>
				<g>
					<path class="st2" d="M641.8,321.7c11.7,0,21.1,0.1,21.1,0.3s-9.5,0.3-21.1,0.3c-11.7,0-21.1-0.1-21.1-0.3
						S630.2,321.7,641.8,321.7z"/>
				</g>
			</g>
		</g>
		<g>
			<g>
				<g>
					<rect x="639.1" y="331.4" class="st3" width="7.2" height="15.1"/>
				</g>
			</g>
		</g>
	</g>
	<g>
		<g>
			<g>
				<rect x="245" y="76.4" class="st0" width="121.8" height="386.1"/>
			</g>
		</g>
		<g>
			<g>
				<rect x="245" y="76.4" class="st1" width="60.9" height="385"/>
			</g>
		</g>
		<g>
			<g>
				<rect x="309.9" y="38.5" class="st0" width="43" height="37.9"/>
			</g>
		</g>
		<g>
			<g>
				<rect x="309.9" y="38.5" class="st1" width="10.3" height="37.9"/>
			</g>
		</g>
		<g>
			<g>
				<polyline class="st2" points="241.4,76.4 241.4,74.2 376.9,74.2 376.9,76.4 				"/>
			</g>
		</g>
		<g>
			<g>
				<rect x="332.4" y="93" class="st3" width="10.3" height="21.7"/>
			</g>
		</g>
		<g>
			<g>
				<g>
					<path class="st2" d="M336.3,122.8c16.8,0,30.5,0.2,30.5,0.4s-13.6,0.4-30.5,0.4c-16.8,0-30.5-0.2-30.5-0.4
						C305.9,123,319.5,122.8,336.3,122.8z"/>
				</g>
			</g>
		</g>
		<g>
			<g>
				<g>
					<rect x="271" y="93" class="st2" width="10.3" height="21.7"/>
				</g>
			</g>
			<g>
				<g>
					<g>
						<path class="st2" d="M274.9,122.8c16.8,0,30.5,0.2,30.5,0.4s-13.6,0.4-30.5,0.4c-16.8,0-30.5-0.2-30.5-0.4
							C244.4,123,258.1,122.8,274.9,122.8z"/>
					</g>
				</g>
			</g>
		</g>
		<g>
			<g>
				<g>
					<rect x="271" y="136.1" class="st2" width="10.3" height="21.7"/>
				</g>
			</g>
			<g>
				<g>
					<g>
						<path class="st2" d="M274.9,166c16.8,0,30.5,0.2,30.5,0.4s-13.6,0.4-30.5,0.4c-16.8,0-30.5-0.2-30.5-0.4
							C244.4,166.2,258.1,166,274.9,166z"/>
					</g>
				</g>
			</g>
		</g>
		<g>
			<g>
				<g>
					<rect x="271" y="180.6" class="st2" width="10.3" height="21.7"/>
				</g>
			</g>
			<g>
				<g>
					<g>
						<path class="st2" d="M274.9,210.5c16.8,0,30.5,0.2,30.5,0.4s-13.6,0.4-30.5,0.4c-16.8,0-30.5-0.2-30.5-0.4
							C244.4,210.6,258.1,210.5,274.9,210.5z"/>
					</g>
				</g>
			</g>
		</g>
		<g>
			<g>
				<g>
					<rect x="271" y="225.1" class="st2" width="10.3" height="21.7"/>
				</g>
			</g>
			<g>
				<g>
					<g>
						<path class="st2" d="M274.9,254.9c16.8,0,30.5,0.2,30.5,0.4s-13.6,0.4-30.5,0.4c-16.8,0-30.5-0.2-30.5-0.4
							C244.4,255.1,258.1,254.9,274.9,254.9z"/>
					</g>
				</g>
			</g>
		</g>
		<g>
			<g>
				<g>
					<rect x="271" y="268.3" class="st2" width="10.3" height="21.7"/>
				</g>
			</g>
			<g>
				<g>
					<g>
						<path class="st2" d="M274.9,298.1c16.8,0,30.5,0.2,30.5,0.4s-13.6,0.4-30.5,0.4c-16.8,0-30.5-0.2-30.5-0.4
							S258.1,298.1,274.9,298.1z"/>
					</g>
				</g>
			</g>
		</g>
		<g>
			<g>
				<g>
					<rect x="271" y="311.6" class="st2" width="10.3" height="21.7"/>
				</g>
			</g>
			<g>
				<g>
					<rect x="271" y="355.6" class="st2" width="10.3" height="21.7"/>
				</g>
			</g>
			<g>
				<g>
					<g>
						<path class="st2" d="M274.9,341.5c16.8,0,30.5,0.2,30.5,0.4s-13.6,0.4-30.5,0.4c-16.8,0-30.5-0.2-30.5-0.4
							C244.4,341.7,258.1,341.5,274.9,341.5z"/>
					</g>
				</g>
			</g>
		</g>
		<g>
			<g>
				<rect x="332.4" y="136.8" class="st3" width="10.3" height="21.7"/>
			</g>
		</g>
		<g>
			<g>
				<g>
					<path class="st2" d="M336.3,166.7c16.8,0,30.5,0.2,30.5,0.4s-13.6,0.4-30.5,0.4c-16.8,0-30.5-0.2-30.5-0.4
						C305.9,166.8,319.5,166.6,336.3,166.7z"/>
				</g>
			</g>
		</g>
		<g>
			<g>
				<rect x="332.4" y="180.6" class="st3" width="10.3" height="21.7"/>
			</g>
		</g>
		<g>
			<g>
				<g>
					<path class="st2" d="M336.3,210.5c16.8,0,30.5,0.2,30.5,0.4s-13.6,0.4-30.5,0.4c-16.8,0-30.5-0.2-30.5-0.4
						S319.5,210.5,336.3,210.5z"/>
				</g>
			</g>
		</g>
		<g>
			<g>
				<rect x="332.4" y="224.4" class="st3" width="10.3" height="21.7"/>
			</g>
		</g>
		<g>
			<g>
				<g>
					<path class="st2" d="M336.3,254.3c16.8,0,30.5,0.2,30.5,0.4s-13.6,0.4-30.5,0.4c-16.8,0-30.5-0.2-30.5-0.4
						S319.5,254.3,336.3,254.3z"/>
				</g>
			</g>
		</g>
		<g>
			<g>
				<rect x="332.4" y="268.3" class="st3" width="10.3" height="21.7"/>
			</g>
		</g>
		<g>
			<g>
				<g>
					<path class="st2" d="M336.3,298.1c16.8,0,30.5,0.2,30.5,0.4s-13.6,0.4-30.5,0.4c-16.8,0-30.5-0.2-30.5-0.4
						S319.5,298.1,336.3,298.1z"/>
				</g>
			</g>
		</g>
		<g>
			<g>
				<rect x="332.4" y="312.1" class="st3" width="10.3" height="21.7"/>
			</g>
		</g>
		<g>
			<g>
				<g>
					<path class="st2" d="M336.3,342c16.8,0,30.5,0.2,30.5,0.4s-13.6,0.4-30.5,0.4c-16.8,0-30.5-0.2-30.5-0.4S319.5,342,336.3,342z"
						/>
				</g>
			</g>
		</g>
		<g>
			<g>
				<g>
					<rect x="332.4" y="355.9" class="st3" width="10.3" height="21.7"/>
				</g>
			</g>
		</g>
	</g>
	<g>
		<g>
			<g>
				<rect x="202" y="251.6" class="st0" width="66.6" height="210.9"/>
			</g>
		</g>
		<g>
			<g>
				<rect x="202" y="251.6" class="st1" width="33.3" height="210.4"/>
			</g>
		</g>
		<g>
			<g>
				<rect x="237.4" y="230.9" class="st0" width="23.5" height="20.7"/>
			</g>
		</g>
		<g>
			<g>
				<rect x="237.4" y="230.9" class="st1" width="5.6" height="20.7"/>
			</g>
		</g>
		<g>
			<g>
				<polyline class="st2" points="200,251.6 200,250.4 274.1,250.4 274.1,251.6 				"/>
			</g>
		</g>
		<g>
			<g>
				<rect x="249.8" y="260.6" class="st3" width="5.6" height="11.9"/>
			</g>
		</g>
		<g>
			<g>
				<g>
					<path class="st2" d="M251.9,276.9c9.2,0,16.6,0.1,16.6,0.2s-7.5,0.2-16.6,0.2s-16.6-0.1-16.6-0.2S242.7,276.9,251.9,276.9z"/>
				</g>
			</g>
		</g>
		<g>
			<g>
				<g>
					<rect x="216.2" y="260.6" class="st2" width="5.6" height="11.9"/>
				</g>
			</g>
			<g>
				<g>
					<g>
						<path class="st2" d="M218.3,276.9c9.2,0,16.6,0.1,16.6,0.2s-7.5,0.2-16.6,0.2s-16.6-0.1-16.6-0.2S209.1,276.9,218.3,276.9z"/>
					</g>
				</g>
			</g>
		</g>
		<g>
			<g>
				<g>
					<rect x="216.2" y="284.2" class="st2" width="5.6" height="11.9"/>
				</g>
			</g>
			<g>
				<g>
					<g>
						<path class="st2" d="M218.3,300.5c9.2,0,16.6,0.1,16.6,0.2s-7.5,0.2-16.6,0.2s-16.6-0.1-16.6-0.2
							C201.7,300.6,209.1,300.5,218.3,300.5z"/>
					</g>
				</g>
			</g>
		</g>
		<g>
			<g>
				<g>
					<rect x="216.2" y="308.5" class="st2" width="5.6" height="11.9"/>
				</g>
			</g>
			<g>
				<g>
					<g>
						<path class="st2" d="M218.3,324.8c9.2,0,16.6,0.1,16.6,0.2s-7.5,0.2-16.6,0.2s-16.6-0.1-16.6-0.2S209.1,324.8,218.3,324.8z"/>
					</g>
				</g>
			</g>
		</g>
		<g>
			<g>
				<g>
					<rect x="216.2" y="332.8" class="st2" width="5.6" height="11.9"/>
				</g>
			</g>
			<g>
				<g>
					<g>
						<path class="st2" d="M218.3,349.1c9.2,0,16.6,0.1,16.6,0.2s-7.5,0.2-16.6,0.2s-16.6-0.1-16.6-0.2
							C201.7,349.2,209.1,349.1,218.3,349.1z"/>
					</g>
				</g>
			</g>
		</g>
		<g>
			<g>
				<g>
					<rect x="216.2" y="356.4" class="st2" width="5.6" height="11.9"/>
				</g>
			</g>
			<g>
				<g>
					<g>
						<path class="st2" d="M218.3,372.7c9.2,0,16.6,0.1,16.6,0.2s-7.5,0.2-16.6,0.2s-16.6-0.1-16.6-0.2S209.1,372.7,218.3,372.7z"/>
					</g>
				</g>
			</g>
		</g>
		<g>
			<g>
				<g>
					<rect x="216.2" y="380.1" class="st2" width="5.6" height="11.9"/>
				</g>
			</g>
			<g>
				<g>
					<rect x="216.2" y="404.1" class="st2" width="5.6" height="11.9"/>
				</g>
			</g>
			<g>
				<g>
					<g>
						<path class="st2" d="M218.3,396.4c9.2,0,16.6,0.1,16.6,0.2s-7.5,0.2-16.6,0.2s-16.6-0.1-16.6-0.2S209.1,396.4,218.3,396.4z"/>
					</g>
				</g>
			</g>
		</g>
		<g>
			<g>
				<rect x="249.8" y="284.5" class="st3" width="5.6" height="11.9"/>
			</g>
		</g>
		<g>
			<g>
				<g>
					<path class="st2" d="M251.9,300.9c9.2,0,16.6,0.1,16.6,0.2s-7.5,0.2-16.6,0.2s-16.6-0.1-16.6-0.2
						C235.2,301,242.7,300.9,251.9,300.9z"/>
				</g>
			</g>
		</g>
		<g>
			<g>
				<rect x="249.8" y="308.5" class="st3" width="5.6" height="11.9"/>
			</g>
		</g>
		<g>
			<g>
				<g>
					<path class="st2" d="M251.9,324.8c9.2,0,16.6,0.1,16.6,0.2s-7.5,0.2-16.6,0.2s-16.6-0.1-16.6-0.2S242.7,324.8,251.9,324.8z"/>
				</g>
			</g>
		</g>
		<g>
			<g>
				<rect x="249.8" y="332.4" class="st3" width="5.6" height="11.9"/>
			</g>
		</g>
		<g>
			<g>
				<g>
					<path class="st2" d="M251.9,348.8c9.2,0,16.6,0.1,16.6,0.2s-7.5,0.2-16.6,0.2s-16.6-0.1-16.6-0.2
						C235.2,348.9,242.7,348.8,251.9,348.8z"/>
				</g>
			</g>
		</g>
		<g>
			<g>
				<rect x="249.8" y="356.4" class="st3" width="5.6" height="11.9"/>
			</g>
		</g>
		<g>
			<g>
				<g>
					<path class="st2" d="M251.9,372.7c9.2,0,16.6,0.1,16.6,0.2s-7.5,0.2-16.6,0.2s-16.6-0.1-16.6-0.2S242.7,372.7,251.9,372.7z"/>
				</g>
			</g>
		</g>
		<g>
			<g>
				<rect x="249.8" y="380.3" class="st3" width="5.6" height="11.9"/>
			</g>
		</g>
		<g>
			<g>
				<g>
					<path class="st2" d="M251.9,396.6c9.2,0,16.6,0.1,16.6,0.2s-7.5,0.2-16.6,0.2s-16.6-0.1-16.6-0.2S242.7,396.6,251.9,396.6z"/>
				</g>
			</g>
		</g>
		<g>
			<g>
				<g>
					<rect x="249.8" y="404.3" class="st3" width="5.6" height="11.9"/>
				</g>
			</g>
		</g>
	</g>
	<g>
		<g>
			<g>
				<g>
					<rect x="535.8" y="326.5" class="st2" width="71.7" height="136"/>
				</g>
			</g>
			<g>
				<g>
					<rect x="535.8" y="326.5" class="st1" width="33.6" height="136"/>
				</g>
			</g>
		</g>
		<g>
			<g>
				<g>
					<rect x="586" y="339.3" class="st0" width="6.4" height="15.6"/>
				</g>
			</g>
			<g>
				<g>
					<rect x="586" y="400.6" class="st0" width="6.4" height="15.6"/>
				</g>
			</g>
			<g>
				<g>
					<g>
						<path class="st0" d="M588.4,360.9c10.5,0,19,0.1,19,0.2s-8.5,0.2-19,0.2c-10.5,0-19-0.1-19-0.2
							C569.4,361,577.9,360.9,588.4,360.9z"/>
					</g>
				</g>
			</g>
		</g>
		<g>
			<g>
				<g>
					<rect x="586" y="370.2" class="st0" width="6.4" height="15.6"/>
				</g>
			</g>
			<g>
				<g>
					<g>
						<path class="st0" d="M588.4,391.7c10.5,0,19,0.1,19,0.2s-8.5,0.2-19,0.2c-10.5,0-19-0.1-19-0.2
							C569.4,391.8,577.9,391.7,588.4,391.7z"/>
					</g>
				</g>
			</g>
		</g>
		<g>
			<g>
				<rect x="555.8" y="339.3" class="st2" width="6.4" height="15.6"/>
			</g>
		</g>
		<g>
			<g>
				<rect x="541.8" y="339.3" class="st2" width="6.4" height="15.6"/>
			</g>
		</g>
		<g>
			<g>
				<rect x="555.8" y="369" class="st2" width="6.4" height="15.6"/>
			</g>
		</g>
		<g>
			<g>
				<rect x="541.8" y="369" class="st2" width="6.4" height="15.6"/>
			</g>
		</g>
		<g>
			<g>
				<rect x="555.8" y="398.7" class="st2" width="6.4" height="15.6"/>
			</g>
		</g>
		<g>
			<g>
				<rect x="541.8" y="398.7" class="st2" width="6.4" height="15.6"/>
			</g>
		</g>
		<g>
			<g>
				<rect x="530.4" y="323.2" class="st2" width="82.4" height="3.4"/>
			</g>
		</g>
		<g>
			<g>
				<g>
					<path class="st1" d="M571,326.7c19.8,0,35.8,0.1,35.8,0.2s-16,0.2-35.8,0.2c-19.8,0-35.8-0.1-35.8-0.2
						C535.3,326.8,551.3,326.7,571,326.7z"/>
				</g>
			</g>
		</g>
	</g>
	<g>
		<g>
			<g>
				<g>
					<polygon class="st1" points="607.1,280 722.5,280 722,462.4 606.6,462.4 					"/>
				</g>
			</g>
			<g>
				<g>
					<rect x="607.1" y="280" class="st2" width="57.7" height="182.4"/>
				</g>
			</g>
			<g>
				<g>
					<rect x="668.6" y="244.1" class="st1" width="40.7" height="35.9"/>
				</g>
			</g>
			<g>
				<g>
					<rect x="668.6" y="244.1" class="st2" width="9.7" height="35.9"/>
				</g>
			</g>
			<g>
				<g>
					<rect x="603.7" y="277.9" class="st2" width="128.4" height="2.1"/>
				</g>
			</g>
			<g>
				<g>
					<rect x="690" y="295.7" class="st4" width="9.8" height="20.6"/>
				</g>
			</g>
			<g>
				<g>
					<g>
						<path class="st2" d="M693.7,324c15.9,0,28.9,0.2,28.9,0.4c0,0.2-12.9,0.4-28.9,0.4c-15.9,0-28.8-0.2-28.8-0.4
							S677.7,324,693.7,324z"/>
					</g>
				</g>
			</g>
			<g>
				<g>
					<g>
						<rect x="631.8" y="295.7" class="st0" width="9.8" height="20.6"/>
					</g>
				</g>
				<g>
					<g>
						<g>
							<path class="st1" d="M635.5,324c15.9,0,28.8,0.2,28.8,0.4c0,0.2-12.9,0.4-28.8,0.4c-15.9,0-28.9-0.2-28.9-0.4
								S619.5,324,635.5,324z"/>
						</g>
					</g>
				</g>
			</g>
			<g>
				<g>
					<g>
						<rect x="631.8" y="336.6" class="st0" width="9.8" height="20.6"/>
					</g>
				</g>
				<g>
					<g>
						<g>
							<path class="st1" d="M635.5,364.9c15.9,0,28.8,0.2,28.8,0.4c0,0.2-12.9,0.4-28.8,0.4c-15.9,0-28.9-0.2-28.9-0.4
								S619.5,364.9,635.5,364.9z"/>
						</g>
					</g>
				</g>
			</g>
			<g>
				<g>
					<g>
						<rect x="631.8" y="378.7" class="st0" width="9.8" height="20.6"/>
					</g>
				</g>
				<g>
					<g>
						<g>
							<path class="st1" d="M635.5,407c15.9,0,28.8,0.2,28.8,0.4s-12.9,0.4-28.8,0.4c-15.9,0-28.9-0.2-28.9-0.4S619.5,407,635.5,407
								z"/>
						</g>
					</g>
				</g>
			</g>
			<g>
				<g>
					<g>
						<rect x="631.8" y="420.8" class="st0" width="9.8" height="20.6"/>
					</g>
				</g>
				<g>
					<g>
						<g>
							<path class="st1" d="M635.5,449.1c15.9,0,28.8,0.2,28.8,0.4c0,0.2-12.9,0.4-28.8,0.4c-15.9,0-28.9-0.2-28.9-0.4
								C606.6,449.3,619.5,449.1,635.5,449.1z"/>
						</g>
					</g>
				</g>
			</g>
			<g>
				<g>
					<rect x="690" y="337.2" class="st4" width="9.8" height="20.6"/>
				</g>
			</g>
			<g>
				<g>
					<g>
						<path class="st2" d="M693.7,365.5c15.9,0,28.9,0.2,28.9,0.4c0,0.2-12.9,0.4-28.9,0.4c-15.9,0-28.8-0.2-28.8-0.4
							S677.7,365.5,693.7,365.5z"/>
					</g>
				</g>
			</g>
			<g>
				<g>
					<rect x="690" y="378.7" class="st4" width="9.8" height="20.6"/>
				</g>
			</g>
			<g>
				<g>
					<g>
						<path class="st2" d="M693.7,407c15.9,0,28.9,0.2,28.9,0.4c0,0.2-12.9,0.4-28.9,0.4c-15.9,0-28.8-0.2-28.8-0.4
							S677.7,407,693.7,407z"/>
					</g>
				</g>
			</g>
			<g>
				<g>
					<rect x="690" y="420.3" class="st4" width="9.8" height="20.6"/>
				</g>
			</g>
			<g>
				<g>
					<g>
						<path class="st2" d="M693.7,448.5c15.9,0,28.9,0.2,28.9,0.4c0,0.2-12.9,0.4-28.9,0.4c-15.9,0-28.8-0.2-28.8-0.4
							S677.7,448.5,693.7,448.5z"/>
					</g>
				</g>
			</g>
		</g>
	</g>
	<g>
		<g>
			<g>
				<path class="st0" d="M168.6,181.1c0.6-3.1-1.8-6.1-4.7-7.4c-2.9-1.3-6.1-1.4-9.3-1.5s-6.5-0.6-9-2.4c-2.6-1.9-4.1-5.2-6.9-6.7
					c-3.8-2.1-8.5-0.5-12.8-0.8c-5-0.3-9.4-3.1-13.8-5.4s-9.7-4-14.3-2c-6.1,2.6-8.7,10.7-14.9,12.9c-2.9,1-6.1,0.5-9.2,0.8
					c-6.4,0.5-15,5.5-14.2,11.6L168.6,181.1z"/>
			</g>
		</g>
	</g>
	<g>
		<g>
			<g>
				<g>
					<g>
						<rect x="34" y="395.8" class="st1" width="92.8" height="66.7"/>
					</g>
				</g>
				<g>
					<g>
						<path class="st0" d="M108.8,395.8v14.1h-6.9c0,0-0.1-14.1,0-14.1H108.8z"/>
					</g>
				</g>
			</g>
			<g>
				<g>
					<rect x="34" y="395.8" class="st2" width="46.4" height="66.7"/>
				</g>
			</g>
		</g>
		<g>
			<g>
				<rect x="111.6" y="449.5" class="st4" width="12.4" height="8.8"/>
			</g>
		</g>
		<g>
			<g>
				<rect x="103" y="449.5" class="st4" width="6.2" height="8.8"/>
			</g>
		</g>
	</g>
	<g>
		<g>
			<g>
				<g>
					<g>
						<rect x="42.8" y="352.3" class="st1" width="60.5" height="43.5"/>
					</g>
				</g>
				<g>
					<g>
						<path class="st0" d="M91.5,352.3v9.2H87c0,0-0.1-9.2,0-9.2H91.5z"/>
					</g>
				</g>
			</g>
			<g>
				<g>
					<rect x="42.8" y="352.3" class="st2" width="30.2" height="43.5"/>
				</g>
			</g>
		</g>
		<g>
			<g>
				<rect x="93.3" y="387.3" class="st4" width="8.1" height="5.7"/>
			</g>
		</g>
		<g>
			<g>
				<rect x="87.8" y="387.3" class="st4" width="4" height="5.7"/>
			</g>
		</g>
	</g>
	<g>
		<g>
			<g>
				<path class="st1" d="M722.4,64.1c0.3-1.8-1-3.5-2.6-4.2s-3.5-0.8-5.3-0.9c-1.8-0.1-3.7-0.3-5.1-1.4c-1.5-1.1-2.3-2.9-3.9-3.8
					c-2.1-1.2-4.8-0.3-7.3-0.4c-2.8-0.2-5.3-1.8-7.8-3s-5.5-2.3-8.1-1.2c-3.5,1.5-4.9,6.1-8.5,7.3c-1.6,0.6-3.4,0.3-5.2,0.5
					c-3.6,0.3-8.5,3.1-8,6.5L722.4,64.1z"/>
			</g>
		</g>
	</g>
	<g>
		<g>
			<g>
				<path class="st1" d="M102.9,133.8c0.3-1.7-1-3.4-2.6-4.1c-1.6-0.7-3.4-0.8-5.1-0.8c-1.7-0.1-3.6-0.3-5-1.3
					c-1.4-1.1-2.3-2.8-3.8-3.7c-2.1-1.2-4.7-0.3-7.1-0.4c-2.7-0.2-5.2-1.7-7.6-3c-2.5-1.2-5.4-2.2-7.9-1.1c-3.4,1.4-4.8,5.9-8.3,7.1
					c-1.6,0.6-3.4,0.3-5.1,0.4c-3.5,0.3-8.3,3-7.8,6.4L102.9,133.8z"/>
			</g>
		</g>
	</g>
	<g>
		<g>
			<g>
				<path class="st0" d="M667.1,85.9c0.6-3.2-1.8-6.3-4.8-7.7c-3-1.4-6.4-1.4-9.6-1.6c-3.3-0.2-6.7-0.6-9.3-2.5
					c-2.7-2-4.2-5.3-7.1-7c-3.9-2.2-8.8-0.5-13.2-0.8c-5.1-0.3-9.7-3.2-14.3-5.6c-4.6-2.3-10.1-4.1-14.8-2.1
					c-6.3,2.7-9,11.1-15.5,13.3c-3,1.1-6.3,0.6-9.5,0.8c-6.7,0.5-15.5,5.7-14.6,12L667.1,85.9z"/>
			</g>
		</g>
	</g>
</g>
<g id="Plants">
	<g>
		<g>
			<g>
				<g>
					<g>
						<g>
							<path class="st5" d="M443.5,420.6c3.7,0.1,3.9,8.5,2.6,12.6c-0.8,2.6-2.8,7.7-6.9,9.9c-1.8-3.8-3.2-8.5-2.8-12.6
								c0.2-2.2,0.8-4.3,1.9-6.2C439.6,422.5,441.4,421.1,443.5,420.6"/>
						</g>
					</g>
				</g>
			</g>
		</g>
		<g>
			<g>
				<g>
					<g>
						<g>
							<path class="st5" d="M433.8,449.1c-3.6,0.3-6.5-1.7-9.1-4.2c-0.8-0.7-1.4-1.6-1.7-2.6c-0.3-1-0.1-2.2,0.7-2.9
								c0.8-0.8,2.1-0.8,3.2-0.7c2.4,0.3,4.7,1.5,6.2,3.5C434.4,444.1,434.8,446.9,433.8,449.1"/>
						</g>
					</g>
				</g>
			</g>
		</g>
		<g>
			<g>
				<g>
					<g>
						<g>
							<g>
								<path class="st6" d="M435.4,461.7c0-0.6,0-1.4,0-2.4c0-2,0.1-4.8-0.8-7.7c-0.9-2.9-2.4-5.3-3.8-6.6
									c-1.4-1.4-2.6-1.9-2.6-1.9c0,0,0.1,0,0.2,0.1c0.1,0.1,0.3,0.1,0.6,0.3c0.5,0.3,1.2,0.7,1.9,1.4c1.5,1.3,3.1,3.7,4,6.7
									c0.9,3,0.8,5.8,0.8,7.8c0,0.9-0.1,1.8-0.1,2.4c0,0.6,0,0.9-0.1,0.9S435.4,462.3,435.4,461.7z"/>
							</g>
						</g>
					</g>
				</g>
			</g>
		</g>
		<g>
			<g>
				<g>
					<g>
						<g>
							<g>
								<path class="st6" d="M443.1,427.4c-0.1,0.3-0.1,0.6-0.2,1c-0.2,0.9-0.5,2.3-0.9,3.9c-0.8,3.3-1.8,7.8-2.9,12.8
									c-1.1,5-2,9.5-2.6,12.8c-0.3,1.6-0.6,2.9-0.8,3.9c-0.1,0.4-0.2,0.8-0.2,1.1c-0.1,0.3-0.1,0.4-0.1,0.4c0,0,0-0.1,0-0.4
									c0-0.3,0.1-0.6,0.2-1.1c0.1-0.9,0.4-2.3,0.7-3.9c0.6-3.3,1.5-7.8,2.5-12.9c1.1-5,2.2-9.5,3-12.8c0.4-1.6,0.8-2.9,1-3.8
									C442.8,427.9,442.9,427.6,443.1,427.4c0-0.3,0-0.4,0.1-0.4S443.1,427.1,443.1,427.4z"/>
							</g>
						</g>
					</g>
				</g>
			</g>
		</g>
		<g>
			<g>
				<g>
					<g>
						<g>
							<path class="st5" d="M439.2,453.2c5.3,1.2,11.2-1.1,14.3-5.6c0.7-1.1,1.3-2.6,0.5-3.6c-0.8-1.1-2.3-1-3.6-0.7
								c-5,1.2-9.3,4.9-11.2,9.7"/>
						</g>
					</g>
				</g>
			</g>
		</g>
		<g>
			<g>
				<g>
					<g>
						<g>
							<g>
								<path class="st6" d="M446.1,448c-0.4,0.2-0.9,0.4-1.4,0.7c-0.5,0.2-1,0.6-1.5,0.9c-1,0.7-2.1,1.5-3,2.6
									c-1,1-1.8,2.1-2.4,3.2c-0.3,0.5-0.6,1-0.8,1.5c-0.2,0.5-0.4,1-0.6,1.4c-0.6,1.8-0.7,2.9-0.8,2.9c0,0,0-0.3,0.1-0.8
									c0-0.3,0.1-0.6,0.2-0.9c0.1-0.4,0.2-0.8,0.3-1.2c0.1-0.5,0.3-1,0.5-1.5c0.2-0.5,0.5-1,0.8-1.6c0.6-1.1,1.4-2.2,2.4-3.3
									c1-1,2.1-1.9,3.1-2.6c0.5-0.3,1-0.6,1.5-0.9c0.5-0.3,1-0.5,1.4-0.6c0.4-0.2,0.9-0.3,1.2-0.4s0.7-0.2,0.9-0.3
									c0.5-0.1,0.8-0.2,0.8-0.2C449,447,447.8,447.2,446.1,448z"/>
							</g>
						</g>
					</g>
				</g>
			</g>
		</g>
	</g>
	<g>
		<g>
			<g>
				<g>
					<g>
						<g>
							<path class="st7" d="M122.1,462.4l4.5-0.2c3.7,0.1,6-1.8,7.7-4.5c0.5-0.8,0.9-1.6,0.9-2.5c0.1-2.1-1.7-4-1.6-6.1
								c0.1-2.5,2.9-4.1,3.5-6.6c0.5-2.1-0.7-4.4-0.3-6.5c0.2-1.3,1-2.5,1.6-3.7c1.6-3,2.3-6.4,2.1-9.7c-2.7,2.8-4.6,6.3-5.4,10.1
								c-0.2,0.7-0.3,1.5-0.7,2.1c-0.8,1.2-2.5,1.6-3.4,2.7c-1.5,1.9-0.3,4.9-1.2,7.1c-0.6,1.4-1.9,2.4-2.9,3.4s-2,2.5-1.7,4
								L122.1,462.4z"/>
						</g>
					</g>
				</g>
			</g>
		</g>
		<g>
			<g>
				<g>
					<g>
						<g>
							<g>
								<path class="st6" d="M122.1,462.4l4.5-0.2c3.7,0.1,6-1.8,7.7-4.5c0.5-0.8,0.9-1.6,0.9-2.5c0.1-2.1-1.7-4-1.6-6.1
									c0.1-2.5,2.9-4.1,3.5-6.6c0.5-2.1-0.7-4.4-0.3-6.5c0.2-1.3,1-2.5,1.6-3.7c1.6-3,2.3-6.4,2.1-9.7c-2.7,2.8-4.6,6.3-5.4,10.1
									c-0.2,0.7-0.3,1.5-0.7,2.1c-0.8,1.2-2.5,1.6-3.4,2.7c-1.5,1.9-0.3,4.9-1.2,7.1c-0.6,1.4-1.9,2.4-2.9,3.4s-2,2.5-1.7,4
									L122.1,462.4z"/>
							</g>
						</g>
					</g>
				</g>
			</g>
		</g>
		<g>
			<g>
				<g>
					<g>
						<g>
							<g>
								<g>
									<g>
										<path class="st6" d="M120.9,462.5c-0.2,0-0.5,0-0.9-0.1c-0.4-0.1-0.9-0.2-1.4-0.4s-1.2-0.5-1.8-1
											c-0.3-0.3-0.5-0.5-0.7-0.9c-0.1-0.4-0.2-0.8-0.2-1.3s0-0.9-0.1-1.5c-0.1-0.5-0.3-1-0.5-1.5c-0.5-0.9-1.4-1.8-1.6-3
											c-0.3-1.2-0.1-2.5,0.1-3.8c0.2-1.3,0.4-2.8-0.1-4.3c-0.5-1.4-1.5-2.7-1.9-4.2c-0.5-1.5-0.2-3.2-0.3-4.9
											c0-0.9-0.2-1.8-0.6-2.6c-0.4-0.8-0.9-1.6-1.3-2.4c-0.8-1.6-0.9-3.5-1.1-5.4c-0.1-0.9-0.2-1.9-0.3-2.9
											c-0.1-0.9-0.2-1.9-0.5-2.9c-0.3-1-0.7-1.9-1.1-2.8c-0.2-0.5-0.4-0.9-0.5-1.4c-0.1-0.5-0.1-1-0.1-1.5c0-1,0-2,0.1-3
											c0.1-1,0.3-2,0.4-3.1c0-0.1,0-0.1,0-0.2l-0.2,0.1c0.9,0.5,1.7,1.1,2.3,2c0.6,0.8,1.1,1.7,1.4,2.6c0.7,1.9,1,3.9,1.4,5.8
											c0.4,1.9,0.9,3.8,1.9,5.5c0.5,0.8,1.1,1.5,1.6,2.3c0.5,0.8,0.9,1.6,1.1,2.4c0.3,1.8-0.8,3.4-0.5,5.2
											c0.1,0.9,0.4,1.7,0.8,2.4c0.4,0.7,0.9,1.4,1.3,2s0.9,1.3,1.2,2c0.3,0.7,0.5,1.4,0.5,2.2c0.1,1.5-0.1,2.9,0,4.3
											c0.1,1.4,0.6,2.6,1.1,3.7c0.6,1.1,1.2,2.1,1.7,3c0.3,0.5,0.5,0.9,0.7,1.4s0.3,0.9,0.4,1.4c0.2,0.9,0.2,1.8,0.1,2.5
											c-0.2,1.5-0.7,2.6-1.2,3.2c-0.5,0.6-0.9,0.8-0.9,0.9c0,0,0.1-0.1,0.3-0.2c0.1-0.1,0.2-0.1,0.3-0.3
											c0.1-0.1,0.2-0.2,0.4-0.4c0.5-0.6,1.1-1.7,1.3-3.3c0.1-0.8,0.1-1.6,0-2.5c-0.1-0.5-0.2-0.9-0.4-1.4
											c-0.2-0.5-0.4-0.9-0.7-1.4c-0.5-1-1.1-2-1.6-3.1c-0.5-1.1-1-2.3-1.1-3.7c-0.1-1.4,0.1-2.8,0-4.3c0-0.8-0.2-1.5-0.5-2.2
											s-0.8-1.4-1.2-2.1c-0.5-0.7-0.9-1.3-1.3-2c-0.4-0.7-0.7-1.5-0.8-2.3c-0.2-1.7,0.8-3.3,0.6-5.2c-0.1-0.9-0.6-1.8-1.1-2.5
											c-0.5-0.8-1.1-1.5-1.6-2.3c-1-1.6-1.5-3.5-1.8-5.4c-0.4-1.9-0.6-3.9-1.4-5.9c-0.4-1-0.8-1.9-1.5-2.7
											c-0.6-0.8-1.4-1.5-2.4-2l-0.2-0.1l0,0.2c0,0.1,0,0.1,0,0.2c-0.1,1-0.3,2-0.4,3.1c-0.1,1-0.2,2.1-0.1,3.1
											c0,0.5,0,1,0.1,1.5c0.1,0.5,0.3,1,0.5,1.4c0.4,0.9,0.8,1.8,1.1,2.8c0.3,0.9,0.4,1.9,0.5,2.9c0.1,1,0.2,1.9,0.3,2.9
											c0.2,1.9,0.4,3.8,1.2,5.5c0.4,0.8,0.9,1.6,1.3,2.4c0.4,0.8,0.5,1.6,0.6,2.5c0.1,1.7-0.1,3.4,0.4,5c0.5,1.6,1.5,2.8,2,4.2
											c0.5,1.4,0.3,2.9,0.1,4.2s-0.4,2.7-0.1,3.9c0.3,1.3,1.1,2.1,1.7,3.1c0.3,0.5,0.5,1,0.5,1.4c0.1,0.5,0.1,1,0.1,1.4
											c0,0.5,0.1,0.9,0.2,1.3c0.2,0.4,0.5,0.7,0.7,1c0.6,0.5,1.2,0.8,1.8,1c0.6,0.2,1,0.3,1.5,0.4c0.8,0.1,1.2,0,1.2,0
											S121.1,462.5,120.9,462.5z"/>
									</g>
								</g>
							</g>
						</g>
					</g>
				</g>
				<g>
					<g>
						<g>
							<g>
								<g>
									<g>
										<path class="st6" d="M107,410c0,0.1,0,0.2,0.1,0.4c0.1,0.4,0.2,0.9,0.3,1.6c0.2,0.7,0.6,1.4,0.9,2.4c0.4,0.9,0.7,2,1,3.2
											c0.3,1.2,0.6,2.5,0.9,3.9c0.3,1.4,0.6,3,1.4,4.4c0.4,0.7,0.8,1.5,1.1,2.3s0.5,1.6,0.6,2.5c0.2,1.8,0.5,3.6,1,5.4
											c0.9,3.7,1.8,7.1,2.5,10.3c0.8,3.2,1.6,6,2.2,8.4c0.6,2.4,1.1,4.3,1.5,5.7c0.2,0.6,0.3,1.2,0.4,1.5c0,0.2,0.1,0.3,0.1,0.4
											c0,0.1,0,0.1,0,0.1c0,0,0-0.1,0-0.1c0-0.1-0.1-0.2-0.1-0.4c-0.1-0.4-0.2-0.9-0.4-1.5c-0.3-1.4-0.8-3.3-1.4-5.7
											c-0.6-2.4-1.3-5.3-2.1-8.4c-0.8-3.2-1.6-6.7-2.5-10.3c-0.4-1.8-0.8-3.6-1-5.4c-0.1-0.9-0.3-1.8-0.6-2.6
											c-0.3-0.8-0.7-1.5-1.1-2.3c-0.8-1.4-1.1-2.9-1.4-4.4c-0.3-1.4-0.6-2.7-1-3.9c-0.3-1.2-0.7-2.3-1.1-3.2
											c-0.3-0.9-0.8-1.7-0.9-2.3c-0.2-0.7-0.3-1.2-0.4-1.5C107.2,410.3,107.1,410.1,107,410c0-0.1,0-0.1,0-0.1
											S107.1,409.9,107,410z"/>
									</g>
								</g>
							</g>
						</g>
					</g>
				</g>
			</g>
			<g>
				<g>
					<g>
						<g>
							<g>
								<g>
									<path class="st5" d="M120.4,462.3c2.1,0.1,5.9-1.4,6.3-3.5c0.3-1.3-0.1-2.6,0.2-3.8c0.4-1.6,1.6-2.9,2.2-4.4
										c1.1-3.1-1-6.5-0.6-9.8c0.3-2.3,1.9-4.3,2.4-6.6c0.6-2.7-0.4-5.6,0.4-8.3c0.4-1.4,1.2-2.7,1.8-4.1c0.7-1.8,0.8-3.8,0.9-5.7
										c0.1-2,0.2-4,0.4-5.9c0.2-3.3,2-6.2,2.1-7.7c0.3-4.2-0.6-6.3-1-9.4c-3.2,1.8-4.6,5.7-5.2,9.4s-0.7,7.5-2.5,10.8
										c-1.2,2.1-3,4-3.1,6.5c-0.1,2,1,3.8,1.1,5.8c0,3.5-3.3,6.2-4.1,9.6c-0.6,2.5,0.2,5.2,0,7.8c-0.3,3.4-2.5,6.3-3.7,9.4
										c-1.2,3.2-0.4,8.4,2.5,10.2"/>
								</g>
							</g>
						</g>
					</g>
				</g>
				<g>
					<g>
						<g>
							<g>
								<g>
									<g>
										<path class="st6" d="M134.6,396.3c0,0.1-0.1,0.3-0.1,0.5c-0.1,0.4-0.2,1.1-0.3,1.9s-0.6,1.8-1,3c-0.4,1.2-0.8,2.5-1.1,4
											c-0.3,1.5-0.6,3.2-0.9,4.9c-0.3,1.8-0.6,3.7-1.5,5.5c-0.4,0.9-0.9,1.9-1.2,2.9c-0.4,1-0.5,2.1-0.6,3.2
											c-0.2,2.2-0.5,4.5-0.9,6.8c-0.9,4.6-1.7,9-2.5,13c-0.8,4-1.5,7.6-2.1,10.6c-0.6,3-1.1,5.4-1.4,7.1
											c-0.2,0.8-0.3,1.5-0.4,1.9c0,0.2-0.1,0.4-0.1,0.5c0,0.1,0,0.2,0,0.2c0,0,0-0.1,0-0.2c0-0.1,0.1-0.3,0.1-0.5
											c0.1-0.5,0.2-1.1,0.4-1.9c0.4-1.7,0.9-4.1,1.5-7.1c0.6-3,1.3-6.6,2.2-10.6c0.8-4,1.6-8.4,2.5-13c0.4-2.3,0.7-4.6,0.9-6.8
											c0.1-1.1,0.3-2.2,0.6-3.1c0.3-1,0.8-1.9,1.2-2.9c0.9-1.9,1.2-3.8,1.5-5.6c0.3-1.8,0.6-3.4,0.9-4.9c0.3-1.5,0.7-2.8,1.1-4
											c0.4-1.2,0.8-2.1,1-3c0.1-0.9,0.2-1.5,0.3-2C134.6,396.6,134.6,396.5,134.6,396.3c0-0.1,0-0.2,0-0.2
											C134.6,396.1,134.6,396.2,134.6,396.3z"/>
									</g>
								</g>
							</g>
						</g>
					</g>
				</g>
			</g>
		</g>
	</g>
</g>
<g id="Vehicle">
	<g>
		<g>
			<g>
				<rect x="205.5" y="330.5" class="st8" width="444.1" height="44.4"/>
			</g>
		</g>
		<g class="st9">
			<g>
				<rect x="205.5" y="330.5" class="st8" width="444.1" height="44.4"/>
			</g>
		</g>
	</g>
	<g>
		<g>
			<g>
				<rect x="301.7" y="380.5" class="st10" width="131.1" height="41.1"/>
			</g>
		</g>
		<g>
			<g>
				<polygon class="st6" points="134.9,361.9 134.9,390.3 461.7,390.3 479.7,416.3 524.4,416.3 524.4,361.9 				"/>
			</g>
		</g>
		<g>
			<g>
				<path class="st5" d="M523.3,259.9v99.7h75.6c13.9,0,26.3,8.5,31.3,21.5l7.6,19.8h76.1l4.6-60c0.2-11.4-1.5-34.2-4.3-45.2
					c-3.3-13-19.4-38.5-26.8-49.9c-10.2-16-24.7-39.7-37.9-46.1c-17.3-8.3-101.3-12.2-118.9-12.9c-1.8-0.1-3.4,1.3-3.5,3.1
					L523.3,259.9z"/>
			</g>
		</g>
		<g>
			<g>
				<g>
					<path class="st10" d="M676.4,231.3c26.5,43.1,28.6,54.5,30.3,57.8c1.1,2.2,4.7,3.5,7,4.1c-0.1-0.3-0.2-0.5-0.2-0.7
						c-4.7-13.6-19-36.2-25.8-46.8c-7.9-12.4-18.4-29.4-28.9-39.4C660.4,210.5,668.3,218.2,676.4,231.3z"/>
				</g>
			</g>
		</g>
		<g>
			<g>
				<g>
					<path class="st6" d="M556.3,211.3v45.5c0,4.4,2.7,8.3,6.8,9.8l90.3,33.6c1.2,0.5,2.5,0.7,3.8,0.7h34.3c1,0,1.7-1,1.4-2
						l-13.3-34c-0.9-2-20.6-48.5-38.2-54.5c-13.5-4.6-55.7-7.5-75.1-8.6C560.9,201.5,556.3,205.8,556.3,211.3z"/>
				</g>
			</g>
			<g>
				<g>
					<path class="st10" d="M656.9,297.5c-0.7,0-1.4-0.1-2.1-0.4l-11.6-17.6c-3-4.6-7.8-7.6-13.2-8.2l-66.7-8.2
						c-2.2-0.8-3.7-2.9-3.7-5.3v-46.5c0-3.4,2.8-6.1,6.1-6.1c0.1,0,0.2,0,0.4,0c37.9,2.2,64.9,5.6,74.2,8.4
						c10.2,3.1,25.3,32,31.7,46.1c4.3,9.3,17,37.9,17,37.9H656.9z"/>
				</g>
			</g>
			<g>
				<g>
					<path class="st6" d="M643.1,276.1c1.3,0.5,2.6-0.5,2.5-1.9l-6.2-62.1l3.1,1.1l12.5,83.9l-22.7-25.3L643.1,276.1z"/>
				</g>
			</g>
		</g>
		<g>
			<g>
				<path class="st1" d="M719,360.1c-0.1,1.1-0.6,1.9-1.2,1.8l-12.4-2.1c-0.7-0.1-1.1-1.4-1-2.9l0.5-9.3c0.1-2.3,1-4.1,2.1-4
					l12.2,1.1c0.5,0,0.9,0.9,0.8,2L719,360.1z"/>
			</g>
		</g>
		<g>
			<g>
				<rect x="632.4" y="390.3" class="st6" width="87.6" height="35.1"/>
			</g>
		</g>
		<g>
			<g>
				<g>
					<g>
						<g>
							<g>
								<g>
									<g>
										<g>
											<g>
												
													<ellipse transform="matrix(3.839856e-02 -0.9993 0.9993 3.839856e-02 139.7555 973.6129)" class="st6" cx="575.7" cy="414.2" rx="47.9" ry="47.9"/>
											</g>
										</g>
									</g>
								</g>
							</g>
						</g>
					</g>
				</g>
			</g>
			<g>
				<g>
					<g>
						<g>
							<g>
								<g>
									<g>
										<g>
											<g>
												<path class="st6" d="M527.8,414.7c0,0,0,0.1,0,0.1c0.4,26.5,22.1,47.6,48.6,47.2c26.5-0.4,47.6-22.1,47.2-48.6
													c0,0,0-0.1,0-0.1L527.8,414.7z"/>
											</g>
										</g>
									</g>
								</g>
							</g>
						</g>
					</g>
				</g>
			</g>
			<g>
				<g>
					<g>
						<g>
							<g>
								<g>
									<g>
										<g>
											<g>
												<path class="st3" d="M575.3,380.5c-18.6,0.3-33.4,15.6-33.2,34.1c0.3,18.6,15.6,33.4,34.1,33.2
													c18.6-0.3,33.4-15.6,33.2-34.1C609.1,395.1,593.8,380.3,575.3,380.5z"/>
											</g>
										</g>
									</g>
								</g>
							</g>
						</g>
					</g>
				</g>
			</g>
			<g>
				<g>
					<g>
						<g>
							<g>
								<g>
									<g>
										<g>
											<g>
												<path class="st2" d="M542.1,414.6l67.3-1c-0.3-18.6-15.5-33.4-34.1-33.2C556.7,380.8,541.8,396.1,542.1,414.6z"/>
											</g>
										</g>
									</g>
								</g>
							</g>
						</g>
					</g>
				</g>
			</g>
			<g>
				<g>
					<g>
						<g>
							<g>
								<g>
									<g>
										<g>
											<g>
												<path class="st6" d="M575.4,393.7c-11.3,0.2-20.4,9.5-20.2,20.8c0.2,11.3,9.5,20.4,20.8,20.2s20.4-9.5,20.2-20.8
													C596.1,402.5,586.8,393.5,575.4,393.7z"/>
											</g>
										</g>
									</g>
								</g>
							</g>
						</g>
					</g>
				</g>
			</g>
		</g>
		<g>
			<g>
				<g>
					<path class="st6" d="M660.7,272v-31.7c0-4.4,3.6-8,8-8h3.9c4.4,0,8,3.6,8,8V272c0,4.4-3.6,8-8,8h-3.9
						C664.3,280,660.7,276.4,660.7,272z"/>
				</g>
			</g>
			<g>
				<g>
					<path class="st6" d="M688.8,259c0-4.5-3.6-8.1-8.1-8.1h-2.4v-1h2.4c5,0,9.1,4.1,9.1,9.1v50.4h-1V259z"/>
				</g>
			</g>
			<g>
				<g>
					<path class="st6" d="M681,309.4l2.8-47.1c0.1-1.4-0.4-2.7-1.3-3.7c-0.9-1-2.2-1.5-3.6-1.5v-1c1.7,0,3.2,0.7,4.3,1.9
						c1.1,1.2,1.7,2.8,1.6,4.4l-2.8,47.1L681,309.4z"/>
				</g>
			</g>
			<g>
				<g>
					<rect x="678.9" y="304.9" class="st6" width="13.5" height="15.6"/>
				</g>
			</g>
			<g>
				<g>
					<rect x="683.9" y="275.3" class="st6" width="5.5" height="1"/>
				</g>
			</g>
		</g>
		<g>
			<g>
				<g>
					<path class="st6" d="M636.9,203.1c-0.8-0.1-2-0.2-3.5-0.4c-3.1-0.3-7.7-0.8-13.6-1.5c-11.9-1.3-29.1-3.2-50.7-5.6
						c-2.7-0.3-5.5-0.6-8.3-0.9c-1.4-0.2-2.8,0-4.3,0.3c-1.4,0.4-2.8,0.8-4.1,1.6c-2.6,1.4-4.8,3.7-6.1,6.4
						c-0.7,1.4-1.2,2.8-1.4,4.4c-0.3,1.5-0.2,3.1-0.2,4.8c0,12.9,0,26.8,0,41.5c0,29.4,0,62,0,97l-0.3-0.3c11.3,0,22.8,0,34.6,0
						c5.9,0,11.8,0,17.8,0c3,0,6-0.1,9.1,0.4c3,0.4,5.9,1.3,8.8,2.5c8.8,3.8,15.9,11.2,19.3,19.9c0.4,1.1,0.9,2.2,1.1,3.3
						c0.3,1.1,0.7,2.2,0.8,3.4l0.3,1.7l0.1,0.9l0,0.9l0.1,1.7l0,0.9l0,0.1c0.2,0.2-0.3-0.3-0.3-0.2h0h0h0.2h0.4c4.6,0,9.1,0,13.6,0
						c18,0,35.5,0,52.2,0l-0.2,0.2c0-15.1,0-29.6,0-43.5c0-6.9,0-13.7,0-20.3c0-3.3,0-6.6,0-9.8c0-1.6,0-3.2,0-4.8
						c0-1.6-0.2-3.1-0.3-4.7c-0.8-6.2-2.8-12-5.6-17.1c-2.8-5.2-5.4-10.2-8-15c-5.1-9.6-9.8-18.5-14.1-26.6
						c-4.3-8.1-8.1-15.3-11.4-21.6c-0.8-1.6-1.6-3.1-2.4-4.6c-0.4-0.7-0.8-1.5-1.2-2.1c-0.4-0.7-0.9-1.3-1.3-1.9
						c-1.9-2.4-4-4.2-6-5.6c-4.1-2.8-7.8-3.9-10.3-4.6c-1.3-0.3-2.2-0.5-2.9-0.6c-0.7-0.1-1-0.1-1-0.1s1.3,0.1,3.9,0.6
						c2.5,0.6,6.2,1.7,10.4,4.5c2,1.4,4.2,3.3,6.1,5.6c0.5,0.6,0.9,1.2,1.4,1.9c0.4,0.7,0.8,1.4,1.2,2.1c0.8,1.5,1.6,3,2.4,4.6
						c3.4,6.3,7.2,13.5,11.5,21.6s9,16.9,14.2,26.6c2.6,4.8,5.2,9.8,8,15c2.9,5.1,4.9,11,5.7,17.2c0.2,1.6,0.3,3.1,0.3,4.7
						c0,1.6,0,3.2,0,4.8c0,3.2,0,6.5,0,9.8c0,6.6,0,13.4,0,20.3c0,13.9,0,28.4,0,43.5v0.2h-0.2c-16.7,0-34.1,0-52.2,0
						c-4.5,0-9.1,0-13.6,0h-0.4h-0.2h0h0c0,0.1-0.5-0.5-0.3-0.3l0-0.1l0-0.9l-0.1-1.7l0-0.9l-0.1-0.9l-0.3-1.7
						c-0.1-1.1-0.5-2.2-0.8-3.4c-0.2-1.1-0.7-2.2-1.1-3.3c-3.3-8.6-10.3-15.9-19-19.6c-2.8-1.1-5.7-2.1-8.7-2.4c-3-0.5-6-0.4-9-0.4
						c-6,0-11.9,0-17.8,0c-11.8,0-23.3,0-34.6,0h-0.3v-0.3c0-34.9,0-67.6,0-97c0-14.7,0-28.5,0-41.5c0-0.8,0-1.6,0-2.4
						c0.1-0.8,0-1.6,0.2-2.4c0.2-1.6,0.8-3.1,1.5-4.5c1.4-2.8,3.7-5.1,6.3-6.6c1.3-0.8,2.7-1.2,4.2-1.6c1.5-0.3,2.9-0.4,4.4-0.3
						c2.8,0.3,5.6,0.6,8.3,0.9c21.6,2.5,38.8,4.4,50.7,5.8c5.9,0.7,10.5,1.2,13.6,1.6C635,202.8,636.1,202.9,636.9,203.1
						c0.8,0,1.2,0.1,1.2,0.1S637.7,203.1,636.9,203.1z"/>
				</g>
			</g>
		</g>
		<g>
			<g>
				<g>
					<g>
						<g>
							<g>
								<g>
									<path class="st6" d="M559.5,313.7c-0.5,0-1.3-0.2-2.1-0.8c-0.9-0.5-1.8-1.4-2.3-2.8c-0.3-0.7-0.3-1.5-0.3-2.3
										c0-0.8,0.2-1.7,0.6-2.5c0.8-1.6,2.6-3,4.8-3c2.1,0,4.3,0,6.6,0c4.6,0,9.8,0,15.1,0c1.4,0,2.8,0.6,3.8,1.5
										c1,0.9,1.6,2.2,1.8,3.5c0.1,1.3,0,2.6-0.7,3.8c-0.6,1.1-1.6,2-2.8,2.4c-0.6,0.2-1.1,0.4-1.7,0.4c-0.6,0-1.1,0-1.7,0
										c-1.1,0-2.2,0-3.2,0c-2.1,0-4,0-5.8,0c-3.5,0-6.3-0.1-8.3-0.1c-0.9,0-1.7,0-2.3,0c-0.5,0-0.8,0-0.8,0s0.3,0,0.8-0.1
										c0.6,0,1.3,0,2.3,0c2,0,4.8,0,8.3-0.1c1.8,0,3.7,0,5.8,0c1,0,2.1,0,3.2,0c1.1,0,2.2,0.1,3.3-0.4c1-0.4,1.9-1.2,2.5-2.2
										c0.6-1,0.8-2.2,0.6-3.5c-0.1-1.2-0.7-2.4-1.6-3.2s-2.2-1.3-3.5-1.3c-5.4,0-10.5,0-15.1,0c-2.3,0-4.5,0-6.6,0
										c-2,0-3.7,1.3-4.5,2.8c-0.4,0.8-0.6,1.6-0.6,2.3c0,0.8,0,1.5,0.3,2.1c0.4,1.3,1.3,2.2,2.1,2.7
										C558.2,313.3,559,313.5,559.5,313.7c0.5,0,0.8,0,0.8,0C560.3,313.7,560,313.7,559.5,313.7z"/>
								</g>
							</g>
						</g>
					</g>
				</g>
			</g>
			<g>
				<g>
					<g>
						<g>
							<g>
								<g>
									<path class="st4" d="M570.7,300.9c4.7,0,8.6,0.1,8.6,0.3s-3.8,0.3-8.6,0.3c-4.7,0-8.6-0.1-8.6-0.3
										C562.1,301,566,300.9,570.7,300.9z"/>
								</g>
							</g>
						</g>
					</g>
				</g>
			</g>
		</g>
		<g>
			<g>
				<path class="st6" d="M620.3,377c-6.4-10-11.7-11.6-19.6-12.9c-7.5-1.3-15.4-1-23-0.6l-2,0.1c-16.9,0.7-52.1,0.1-52.4,0.1l0.1-8
					c0.4,0,35.3,0.6,52-0.1l2-0.1c8.1-0.3,16.4-0.7,24.7,0.8c8.9,1.5,16.9,3.8,25,16.5c4.2,6.6,7.3,23.8,9.4,52.4l-8,0.6
					C625.9,390.4,622.2,380,620.3,377z"/>
			</g>
		</g>
		<g>
			<g>
				<rect x="125.1" y="99.3" class="st4" width="394" height="262.3"/>
			</g>
		</g>
		<g>
			<g>
				<g>
					<path class="st3" d="M575.5,223.8c0.3,0.2,0.7,0.4,1.2,0.7c1.1,0.7,2.5,1.6,4.2,2.7c3.6,2.3,8.5,5.5,13.9,8.9
						c5.4,3.4,10.3,6.6,13.9,8.9c1.7,1.1,3.1,2,4.2,2.7c0.5,0.3,0.8,0.5,1.1,0.8c0.3,0.2,0.4,0.3,0.4,0.3s-0.2-0.1-0.4-0.2
						c-0.3-0.2-0.7-0.4-1.2-0.7c-1-0.6-2.5-1.5-4.3-2.6c-3.6-2.2-8.6-5.3-14-8.7c-5.4-3.5-10.3-6.7-13.8-9.1
						c-1.7-1.2-3.2-2.2-4.1-2.8C576.2,224.3,575.8,224.1,575.5,223.8c-0.3-0.1-0.4-0.2-0.4-0.2S575.3,223.6,575.5,223.8z"/>
				</g>
			</g>
		</g>
		<g>
			<g>
				<g>
					<path class="st3" d="M592.6,228.3c0.3,0.2,0.7,0.4,1.2,0.7c1.1,0.7,2.5,1.6,4.2,2.7c3.6,2.3,8.5,5.5,13.9,8.9
						c5.4,3.4,10.3,6.6,13.9,8.9c1.7,1.1,3.1,2,4.2,2.7c0.5,0.3,0.8,0.5,1.1,0.8c0.3,0.2,0.4,0.3,0.4,0.3s-0.2-0.1-0.4-0.2
						c-0.3-0.2-0.7-0.4-1.2-0.7c-1-0.6-2.5-1.5-4.3-2.6c-3.6-2.2-8.6-5.3-14-8.7c-5.4-3.5-10.3-6.7-13.8-9.1
						c-1.8-1.2-3.2-2.2-4.1-2.8C593.2,228.8,592.8,228.6,592.6,228.3c-0.3-0.1-0.4-0.2-0.4-0.2S592.3,228.1,592.6,228.3z"/>
				</g>
			</g>
		</g>
		<g>
			<g>
				<g>
					<path class="st3" d="M676.9,253.8c0.4-2.1,0.9-5,0.9-8.2c0-3.2-0.8-6.1-1.7-8c-0.9-1.9-1.8-2.9-1.8-2.9c0,0,0.3,0.2,0.7,0.7
						c0.4,0.4,0.9,1.2,1.4,2.1c1,1.9,1.9,4.8,1.9,8.1s-0.6,6.2-1.1,8.3c-0.3,1-0.5,1.9-0.6,2.4c-0.2,0.6-0.3,0.9-0.3,0.9
						C676.3,257.2,676.6,255.9,676.9,253.8z"/>
				</g>
			</g>
		</g>
		<g>
			<g>
				<g>
					<path class="st3" d="M716.9,327c-0.1-0.8-0.1-1.8-0.2-3c-0.2-2.7-0.5-6.2-0.7-10c-0.3-3.8-0.6-7.3-0.8-10
						c-0.1-1.2-0.2-2.2-0.3-3c0-0.7-0.1-1.1,0-1.1c0,0,0.1,0.4,0.2,1.1c0.1,0.7,0.3,1.7,0.4,3c0.3,2.5,0.7,6.1,1,10
						c0.3,3.9,0.5,7.4,0.6,10c0,1.3,0.1,2.3,0.1,3s0,1.1,0,1.1C717,328.1,717,327.7,716.9,327z"/>
				</g>
			</g>
		</g>
		<g>
			<g>
				<g>
					<path class="st3" d="M608.9,347.7c0.4,0.1,1,0.1,1.6,0.3c0.6,0.1,1.3,0.3,2.1,0.5c1.5,0.4,3.3,1.1,5.2,2
						c1.9,0.9,3.9,2.1,5.9,3.5c2,1.5,3.6,3,5.1,4.5c1.4,1.5,2.6,3,3.5,4.4c0.5,0.6,0.8,1.3,1.1,1.8c0.3,0.5,0.6,1,0.8,1.4
						c0.4,0.8,0.6,1.2,0.6,1.3c-0.1,0-1-1.7-2.8-4.3c-0.9-1.3-2.1-2.7-3.5-4.3c-1.4-1.5-3.1-3-5.1-4.5c-1.9-1.4-3.9-2.6-5.8-3.5
						c-1.9-0.9-3.6-1.6-5.1-2.1c-3-1-4.9-1.2-4.9-1.4C607.5,347.5,608,347.5,608.9,347.7z"/>
				</g>
			</g>
		</g>
		<g>
			<g>
				<g>
					<path class="st3" d="M509,286.7c0-0.3,0-0.7,0-1.3c0-1.1,0-2.8,0-4.9c0-4.2,0-10.3,0.1-17.8c0.1-15.1,0.5-35.9,0.9-58.9
						c0.4-23,0.8-43.8,1-58.9c0.1-7.5,0.2-13.6,0.3-17.8c0-2.1,0.1-3.7,0.1-4.8c0-0.5,0-1,0-1.3c0-0.3,0-0.4,0-0.4c0,0,0,0.2,0,0.4
						c0,0.3,0,0.7,0,1.3c0,1.1,0,2.8,0,4.8c0,4.2,0,10.3-0.1,17.8c-0.1,15.1-0.5,35.9-0.9,58.9c-0.4,23-0.8,43.8-1.1,58.9
						c-0.1,7.5-0.2,13.6-0.3,17.8c0,2.1-0.1,3.7-0.1,4.9C509.1,285.9,509.1,286.4,509,286.7c0,0.3,0,0.4,0,0.4
						C509,287.1,509,287,509,286.7z"/>
				</g>
			</g>
		</g>
		<g>
			<g>
				<g>
					<g>
						<g>
							<g>
								<g>
									<g>
										<g>
											<g>
												<g>
													
														<ellipse transform="matrix(3.990015e-02 -0.9992 0.9992 3.990015e-02 -201.0317 619.0929)" class="st6" cx="221.6" cy="414.2" rx="47.9" ry="47.9"/>
												</g>
											</g>
										</g>
									</g>
								</g>
							</g>
						</g>
					</g>
				</g>
				<g>
					<g>
						<g>
							<g>
								<g>
									<g>
										<g>
											<g>
												<g>
													<path class="st6" d="M173.7,414.7c0,0,0,0.1,0,0.1c0.4,26.5,22.2,47.6,48.6,47.2c26.5-0.4,47.6-22.1,47.2-48.6
														c0,0,0-0.1,0-0.1L173.7,414.7z"/>
												</g>
											</g>
										</g>
									</g>
								</g>
							</g>
						</g>
					</g>
				</g>
				<g>
					<g>
						<g>
							<g>
								<g>
									<g>
										<g>
											<g>
												<g>
													<path class="st3" d="M221.2,380.5c-18.6,0.3-33.4,15.6-33.2,34.1c0.3,18.6,15.5,33.4,34.1,33.2
														c18.6-0.3,33.4-15.6,33.2-34.1C255,395.1,239.7,380.3,221.2,380.5z"/>
												</g>
											</g>
										</g>
									</g>
								</g>
							</g>
						</g>
					</g>
				</g>
				<g>
					<g>
						<g>
							<g>
								<g>
									<g>
										<g>
											<g>
												<g>
													<path class="st2" d="M188,414.6l67.3-1c-0.3-18.6-15.6-33.4-34.1-33.2C202.6,380.8,187.7,396.1,188,414.6z"/>
												</g>
											</g>
										</g>
									</g>
								</g>
							</g>
						</g>
					</g>
				</g>
				<g>
					<g>
						<g>
							<g>
								<g>
									<g>
										<g>
											<g>
												<g>
													<path class="st6" d="M221.3,393.7c-11.3,0.2-20.4,9.5-20.2,20.8s9.5,20.4,20.8,20.2s20.4-9.5,20.2-20.8
														S232.7,393.5,221.3,393.7z"/>
												</g>
											</g>
										</g>
									</g>
								</g>
							</g>
						</g>
					</g>
				</g>
			</g>
			<g>
				<g>
					<path class="st10" d="M274.4,428c0,0,5.1-58.8-52.9-58.8s-52.8,57.6-52.8,57.6h-10.2c-0.6-9-2.1-67.5,63-67.5
						c70.5,0,63.2,68,63.2,68C278.7,427.8,274.4,428,274.4,428z"/>
				</g>
			</g>
			<g>
				<g>
					<g>
						<path class="st3" d="M247.5,366.4c0.4,0.1,0.9,0.2,1.6,0.4c1.4,0.4,3.4,1,5.8,2.1c4.8,2.1,11.1,6,16.2,12.2
							c5.2,6.1,8,13,9.2,18.1c0.6,2.6,0.9,4.6,1.1,6.1c0.1,0.7,0.1,1.3,0.1,1.7c0,0.4,0,0.6,0,0.6c0,0-0.1-0.2-0.1-0.6
							c-0.1-0.4-0.1-0.9-0.2-1.7c-0.2-1.4-0.5-3.5-1.2-6c-1.3-5-4.1-11.8-9.2-17.9c-5.1-6.1-11.3-10-16-12.2
							c-2.4-1.1-4.3-1.8-5.7-2.2c-0.7-0.2-1.2-0.4-1.6-0.5c-0.4-0.1-0.5-0.2-0.5-0.2S247.1,366.4,247.5,366.4z"/>
					</g>
				</g>
			</g>
		</g>
	</g>
	<path class="st11" d="M136.5,359.3v-255c0-2.8,2.2-5,5-5h377.6l0,260H136.5L136.5,359.3z"/>
</g>
<g id="Character" class="st12">
	<g class="st13">
		<g>
			<g>
				<g>
					<g>
						<g>
							<path class="st10" d="M692.3,435.5l8.5,12.8l3.8,12.1c0.3,0.9,1.2,1.3,2.1,1l0,0c0.5-0.2,0.8-0.6,1-1.1
								c0.8-3.2,3.6-14.8,2.9-15.7c-0.8-1-8.1-14.1-8.1-14.1L692.3,435.5z"/>
						</g>
					</g>
				</g>
			</g>
			<g class="st14">
				<g>
					<g>
						<g>
							<path class="st4" d="M706.7,461.4l3.3-17.7l0.3,0.5c0.3,0.5,0.4,1,0.3,1.6c-0.2,1.5-0.9,5.6-3,14.4
								C707.5,460.8,707.2,461.3,706.7,461.4L706.7,461.4z"/>
						</g>
					</g>
				</g>
			</g>
			<g class="st14">
				<g>
					<g>
						<g>
							<g>
								<path class="st4" d="M704.7,441.3c-0.2,0.4,0,1,0.5,1.2c0.4,0.2,1,0,1.2-0.4s0-1.1-0.5-1.3
									C705.4,440.6,704.7,440.9,704.7,441.3"/>
							</g>
						</g>
					</g>
				</g>
			</g>
			<g>
				<g>
					<g>
						<g>
							<g>
								<path class="st6" d="M706,453.9c0,0.1-0.8-0.4-1.8-0.3c-1,0.1-1.6,0.7-1.7,0.7c0,0,0.1-0.2,0.3-0.5c0.3-0.2,0.7-0.5,1.3-0.5
									s1.1,0.1,1.4,0.2C705.9,453.7,706.1,453.8,706,453.9z"/>
							</g>
						</g>
					</g>
				</g>
			</g>
			<g>
				<g>
					<g>
						<g>
							<g>
								<path class="st6" d="M706.2,456.2c0,0.1-0.7-0.1-1.5,0.2c-0.8,0.2-1.3,0.7-1.4,0.6c-0.1,0,0.4-0.7,1.3-1
									C705.5,455.8,706.3,456.1,706.2,456.2z"/>
							</g>
						</g>
					</g>
				</g>
			</g>
			<g>
				<g>
					<g>
						<g>
							<g>
								<path class="st6" d="M706.4,450.5c0,0.1-1.1-0.1-2.3,0.1c-1.3,0.2-2.2,0.9-2.2,0.8c-0.1-0.1,0.8-0.9,2.2-1.1
									C705.3,450,706.4,450.5,706.4,450.5z"/>
							</g>
						</g>
					</g>
				</g>
			</g>
			<g>
				<g>
					<g>
						<g>
							<g>
								<path class="st6" d="M704.1,446.4c0,0.1-0.9,0.3-1.8,0.8c-1,0.5-1.6,1.3-1.6,1.2c-0.1,0,0.4-0.9,1.5-1.5
									C703.1,446.4,704.1,446.3,704.1,446.4z"/>
							</g>
						</g>
					</g>
				</g>
			</g>
			<g>
				<g>
					<g>
						<g>
							<g>
								<path class="st6" d="M701.7,442.6c0,0.1-1,0.1-2,0.8c-1,0.6-1.4,1.6-1.5,1.5c0,0,0-0.3,0.2-0.6c0.2-0.4,0.5-0.8,1.1-1.2
									s1.1-0.5,1.5-0.6C701.4,442.5,701.7,442.6,701.7,442.6z"/>
							</g>
						</g>
					</g>
				</g>
			</g>
			<g>
				<g>
					<g>
						<g>
							<g>
								<path class="st6" d="M699.3,442.7c0,0-0.2-0.1-0.3-0.5c-0.2-0.3-0.4-0.9-0.4-1.5c0-0.3-0.1-0.7,0.2-1.1
									c0.1-0.2,0.4-0.3,0.7-0.3c0.3,0.1,0.4,0.3,0.6,0.5c0.5,0.8,0.3,2.1-0.5,2.8c-0.9,0.7-2,0.7-2.9,0.2
									c-0.2-0.1-0.4-0.3-0.4-0.6c0-0.3,0.2-0.5,0.4-0.6c0.4-0.2,0.8-0.1,1.1-0.1c0.7,0.1,1.2,0.3,1.5,0.5s0.5,0.3,0.5,0.3
									c0,0.1-0.7-0.4-2-0.5c-0.3,0-0.7,0-1,0.1c-0.1,0.1-0.2,0.2-0.2,0.3c0,0.1,0.2,0.3,0.3,0.4c0.7,0.4,1.8,0.4,2.5-0.2
									c0.7-0.6,0.9-1.7,0.5-2.4c-0.1-0.2-0.2-0.3-0.4-0.3c-0.1,0-0.3,0-0.4,0.1c-0.2,0.3-0.2,0.6-0.2,1
									C698.8,441.9,699.4,442.6,699.3,442.7z"/>
							</g>
						</g>
					</g>
				</g>
			</g>
		</g>
		<g>
			<g>
				<g>
					<g>
						<g>
							<g>
								<g>
									<g>
										<path class="st10" d="M684.2,442.9l-1,12.9c0,0,12.8,4.4,12.8,6.8l-25-0.1l0.7-20.1L684.2,442.9z"/>
									</g>
								</g>
							</g>
						</g>
					</g>
				</g>
				<g class="st14">
					<g>
						<g>
							<g>
								<g>
									<g>
										<g>
											<path class="st4" d="M675.5,454.4c-0.5,0.1-0.8,0.6-0.8,1.1c0.1,0.5,0.6,0.9,1.1,0.8c0.5-0.1,0.9-0.7,0.8-1.2
												C676.5,454.6,675.8,454.2,675.5,454.4"/>
										</g>
									</g>
								</g>
							</g>
						</g>
					</g>
				</g>
				<g class="st14">
					<g>
						<g>
							<g>
								<g>
									<g>
										<path class="st4" d="M671,462.5l0.1-2l24.2,0.9c0,0,0.8,0.4,0.9,1.4L671,462.5z"/>
									</g>
								</g>
							</g>
						</g>
					</g>
				</g>
				<g>
					<g>
						<g>
							<g>
								<g>
									<g>
										<g>
											<path class="st6" d="M683.6,455.6c0,0.1-0.6,0.1-1.2,0.5c-0.6,0.4-1,0.9-1.1,0.8c-0.1,0,0.1-0.8,0.8-1.2
												C682.9,455.3,683.6,455.5,683.6,455.6z"/>
										</g>
									</g>
								</g>
							</g>
						</g>
					</g>
				</g>
				<g>
					<g>
						<g>
							<g>
								<g>
									<g>
										<g>
											<path class="st6" d="M686.2,456.8c0,0.1-0.5,0.3-1,0.8c-0.5,0.5-0.6,1-0.7,1c-0.1,0-0.2-0.7,0.4-1.3
												C685.4,456.7,686.2,456.7,686.2,456.8z"/>
										</g>
									</g>
								</g>
							</g>
						</g>
					</g>
				</g>
				<g>
					<g>
						<g>
							<g>
								<g>
									<g>
										<g>
											<path class="st6" d="M687.5,460c-0.1,0-0.3-0.6,0.1-1.3c0.3-0.7,0.9-0.9,1-0.8c0.1,0.1-0.3,0.5-0.6,1
												C687.7,459.5,687.7,460,687.5,460z"/>
										</g>
									</g>
								</g>
							</g>
						</g>
					</g>
				</g>
				<g>
					<g>
						<g>
							<g>
								<g>
									<g>
										<g>
											<path class="st6" d="M683.5,452.7c-0.1,0.1-0.6-0.1-1.3-0.1c-0.7,0-1.2,0.2-1.3,0.1c-0.1-0.1,0.5-0.5,1.3-0.5
												C683,452.2,683.5,452.6,683.5,452.7z"/>
										</g>
									</g>
								</g>
							</g>
						</g>
					</g>
				</g>
			</g>
			<g class="st15">
				<g>
					<g>
						<g>
							<g>
								<g>
									<polygon points="684,445.4 683.8,447.7 671.5,447.1 671.6,445 									"/>
								</g>
							</g>
						</g>
					</g>
				</g>
			</g>
			<g>
				<g>
					<g>
						<g>
							<g>
								<g>
									<g>
										<path class="st6" d="M683.6,450.1c0,0-0.5,0.1-1.3-0.1c-0.4-0.1-0.8-0.2-1.3-0.5c-0.2-0.1-0.5-0.3-0.7-0.4
											c-0.1-0.1-0.3-0.2-0.4-0.3c-0.1-0.1-0.2-0.5,0-0.6c0.1-0.2,0.4-0.3,0.5-0.3s0.3,0,0.5,0.1c0.3,0.1,0.5,0.2,0.8,0.3
											c0.5,0.2,0.8,0.5,1.1,0.8C683.5,449.7,683.6,450.1,683.6,450.1c-0.1,0.1-0.4-0.3-0.9-0.7c-0.3-0.2-0.7-0.5-1.1-0.7
											c-0.2-0.1-0.5-0.2-0.7-0.3c-0.3-0.1-0.5-0.1-0.6,0c0,0,0,0.1,0,0.1c0,0.1,0.2,0.1,0.3,0.2c0.2,0.1,0.4,0.3,0.7,0.4
											c0.4,0.2,0.8,0.4,1.2,0.5C683.2,450,683.6,450,683.6,450.1z"/>
									</g>
								</g>
							</g>
						</g>
					</g>
				</g>
			</g>
			<g>
				<g>
					<g>
						<g>
							<g>
								<g>
									<g>
										<path class="st6" d="M683.5,450.2c0,0-0.3-0.4-0.3-1.2c0-0.4,0-0.9,0.2-1.4c0.1-0.3,0.2-0.5,0.3-0.8
											c0.2-0.2,0.3-0.6,0.8-0.6c0.3,0,0.5,0.2,0.5,0.4c0.1,0.2,0.1,0.3,0.1,0.5c0,0.3,0,0.6,0,0.8c-0.1,0.5-0.3,1-0.6,1.3
											c-0.5,0.6-1,0.8-1,0.7c0-0.1,0.4-0.3,0.8-0.9c0.2-0.3,0.4-0.7,0.4-1.2c0-0.2,0-0.5,0-0.7c0-0.3-0.1-0.5-0.2-0.5
											c-0.1,0-0.3,0.2-0.5,0.4c-0.1,0.2-0.3,0.4-0.3,0.7c-0.2,0.5-0.3,0.9-0.3,1.2C683.4,449.8,683.5,450.2,683.5,450.2z"/>
									</g>
								</g>
							</g>
						</g>
					</g>
				</g>
			</g>
		</g>
		<g>
			<g>
				<g>
					<g>
						<g>
							<path class="st6" d="M693.3,337c0,0,4.6,9.4,5.8,16.1c0.3,1.9-13.1,98.4-13.1,98.4l-15.9-0.6l7.5-89.8l-2.7-18L693.3,337z"/>
						</g>
					</g>
				</g>
				<g>
					<g>
						<g>
							<path class="st6" d="M654.6,342.8c0,0-0.3,9,1,19.5c1.2,9.5,3.9,20.2,4.8,26.3c1.9,13.3,5.8,15.8,5.8,15.8l30.6,39.1l12-10.8
								l-27-43.1c0,0-7.2-47.9-6.9-46.6C675.1,344.4,654.6,342.8,654.6,342.8z"/>
						</g>
					</g>
				</g>
				<g>
					<g>
						<g>
							<g>
								<path class="st10" d="M666.7,405c0,0,0.1,0.1,0.3,0.4c0.2,0.3,0.5,0.7,0.9,1.1c0.8,1,1.9,2.4,3.2,4.1
									c2.7,3.5,6.4,8.4,10.5,13.7c4.1,5.4,7.8,10.2,10.6,13.7c1.4,1.7,2.5,3.1,3.3,4.1c0.4,0.5,0.7,0.8,0.9,1.1
									c0.2,0.3,0.3,0.4,0.3,0.4s-0.1-0.1-0.3-0.4c-0.2-0.3-0.5-0.7-0.9-1.1c-0.8-1-1.9-2.4-3.2-4.1c-2.7-3.5-6.4-8.4-10.5-13.7
									c-4.1-5.4-7.8-10.2-10.6-13.7c-1.4-1.7-2.5-3.1-3.3-4.1c-0.4-0.5-0.7-0.8-0.9-1.1C666.9,405.1,666.7,405,666.7,405z"/>
							</g>
						</g>
					</g>
				</g>
			</g>
			<g>
				<g>
					<g>
						<path class="st10" d="M663.3,350.2c0.1,0,0,0.6-0.4,1.5c-0.4,0.9-1.1,2.1-2.2,3.1c-1.1,1-2.3,1.7-3.2,2s-1.5,0.4-1.5,0.3
							c-0.1-0.1,2.3-0.7,4.4-2.7C662.5,352.4,663.2,350.1,663.3,350.2z"/>
					</g>
				</g>
			</g>
			<g>
				<g>
					<g>
						<path class="st10" d="M696.3,344.7c0,0.1-1,0.5-2.3,0.3c-1.3-0.2-2.2-0.9-2.1-1c0.1-0.1,1,0.3,2.2,0.5
							C695.3,344.7,696.3,344.6,696.3,344.7z"/>
					</g>
				</g>
			</g>
			<g>
				<g>
					<g>
						<path class="st10" d="M679.1,358c0,0,0,0.2,0.1,0.6c0.1,0.5,0.1,1.1,0.2,1.8c0.2,1.7,0.5,4,0.8,6.9c0.6,5.9,1.5,14,2.5,23.4
							l0-0.1c1.4,2.3,2.9,4.6,4.4,7.1c6,9.6,11.4,18.4,15.4,24.8c1.9,3.1,3.5,5.7,4.6,7.5c0.5,0.9,0.9,1.5,1.2,2.1
							c0.3,0.5,0.4,0.7,0.4,0.7c0,0-0.2-0.2-0.5-0.7c-0.3-0.5-0.8-1.2-1.3-2c-1.2-1.8-2.8-4.3-4.8-7.5c-4-6.4-9.5-15.1-15.5-24.7
							c-1.5-2.4-3-4.8-4.4-7.1l0,0l0-0.1c-0.9-9.3-1.7-17.5-2.3-23.4c-0.3-2.9-0.5-5.2-0.6-6.9c-0.1-0.8-0.1-1.4-0.1-1.9
							C679.1,358.2,679.1,358,679.1,358z"/>
					</g>
				</g>
			</g>
		</g>
		<g>
			<g>
				<g>
					<g>
						<path class="st5" d="M674.5,273.9l9.5,3.1l0.7,20.2c0,0,5.1,23.7,6.2,26.7c2.2,5.9,2.9,11.1,2.9,11.1s-1.8,13.4-15.3,15
							s-25.9-6.1-25.9-6.1s-4.5-20-8.6-37.9c-3.9-17.1-0.7-27.3-0.7-27.3l14.7-5.3L674.5,273.9z"/>
					</g>
				</g>
			</g>
			<g>
				<g>
					
						<rect x="672.9" y="285.8" transform="matrix(0.9928 -0.1201 0.1201 0.9928 -29.5524 83.4199)" class="st3" width="8.8" height="2.3"/>
				</g>
			</g>
		</g>
		<g>
			<g>
				<g>
					<path class="st6" d="M683.7,261c-0.2-1-1.1-1.8-2.1-1.7c1-0.6,0.8-2.4-0.2-2.8c1-1.4,0.7-3.5-0.7-4.6l-10.1,13.9
						c1.5,1.3,3.6,1.7,5.6,1.5c2-0.2,3.8-1,5.5-2c0.5-0.3,0.9-0.5,1.1-1c0.2-0.5-0.1-1.1-0.6-1.2C683.1,263,683.8,261.9,683.7,261z"
						/>
				</g>
			</g>
			<g>
				<g>
					<path class="st6" d="M658.7,253.4c-0.4-0.1-0.8,0-1.1,0.4s-0.2,0.8,0,1.1c-0.6-0.1-1.2,0.2-1.6,0.7c-0.3,0.5-0.4,1.2-0.2,1.7
						c-0.7,0-1.5,0.1-2,0.5c-0.6,0.4-1,1.2-0.8,1.9c0.2,0.7,0.9,1.3,1.6,1c-0.3,0.6-0.3,1.4,0.1,2c0.4,0.5,1.4,0.6,1.8,0
						c-0.4,0.5-0.3,1.3,0.1,1.8s1.2,0.6,1.7,0.4c-0.2,0.6,0.1,1.4,0.7,1.7s1.3,0.3,1.8-0.1L658.7,253.4z"/>
				</g>
			</g>
			<g>
				<g>
					<g>
						<g>
							<g>
								<g>
									<g>
										<g>
											<g>
												<g>
													<g>
														<g>
															<g>
																<g>
																	<g>
																		<g>
																			<g>
																				<g>
																					<g>
																						<g>
																							<g>
																								<path class="st16" d="M659.3,250.8l-0.4,24.6c-0.1,4,3,7.4,7,7.8l0,0c4.4,0.4,8.2-3,8.3-7.5
																									c0-2.3,0.1-4.3,0.1-4.3s6-0.4,6.6-6.3c0.3-3.4,0.4-11.2,0.5-17.2c0-4.1-3.1-7.4-7.1-7.8l-3.6-0.3
																									C664.4,239.6,659.3,244.6,659.3,250.8z"/>
																							</g>
																						</g>
																					</g>
																				</g>
																			</g>
																		</g>
																	</g>
																</g>
															</g>
														</g>
													</g>
												</g>
												<g>
													<g>
														<g>
															<g>
																<g>
																	<g>
																		<g>
																			<g>
																				<g>
																					<g>
																						<g>
																							<g>
																								<path class="st17" d="M674.2,271.4c0,0-3.8-0.1-7.5-3c0,0,1.5,4.5,7.5,4.5L674.2,271.4z"/>
																							</g>
																						</g>
																					</g>
																				</g>
																			</g>
																		</g>
																	</g>
																</g>
															</g>
														</g>
													</g>
												</g>
											</g>
										</g>
									</g>
									<g>
										<g>
											<g>
												<g>
													<g>
														<g>
															<g>
																<g>
																	<g>
																		<g>
																			<g>
																				<g>
																					<g>
																						<g>
																							<g>
																								<g>
																									<g>
																										<g>
																											<g>
																												<path class="st6" d="M679.6,253.9c-0.1,0.1-0.7-0.4-1.6-0.5c-0.9-0.1-1.6,0.3-1.7,0.2
																													c0-0.1,0.1-0.2,0.4-0.4c0.3-0.2,0.8-0.4,1.4-0.3c0.6,0.1,1,0.3,1.3,0.5
																													C679.6,253.6,679.7,253.8,679.6,253.9z"/>
																											</g>
																										</g>
																									</g>
																								</g>
																							</g>
																						</g>
																					</g>
																				</g>
																			</g>
																		</g>
																	</g>
																</g>
															</g>
														</g>
														<g>
															<g>
																<g>
																	<g>
																		<g>
																			<g>
																				<g>
																					<g>
																						<g>
																							<g>
																								<g>
																									<g>
																										<g>
																											<path class="st6" d="M670,254.3c0,0.4-0.4,0.8-0.9,0.8c-0.5,0-0.8-0.4-0.8-0.8c0-0.4,0.4-0.8,0.9-0.8
																												C669.6,253.5,670,253.8,670,254.3z"/>
																										</g>
																									</g>
																								</g>
																							</g>
																						</g>
																					</g>
																				</g>
																			</g>
																		</g>
																	</g>
																</g>
															</g>
															<g>
																<g>
																	<g>
																		<g>
																			<g>
																				<g>
																					<g>
																						<g>
																							<g>
																								<g>
																									<g>
																										<g>
																											<path class="st6" d="M678.8,255.1c0,0.4-0.4,0.8-0.9,0.8c-0.5,0-0.8-0.4-0.8-0.8c0-0.4,0.4-0.8,0.9-0.8
																												C678.5,254.3,678.8,254.6,678.8,255.1z"/>
																										</g>
																									</g>
																								</g>
																							</g>
																						</g>
																					</g>
																				</g>
																			</g>
																		</g>
																	</g>
																</g>
															</g>
															<g>
																<g>
																	<g>
																		<g>
																			<g>
																				<g>
																					<g>
																						<g>
																							<g>
																								<g>
																									<g>
																										<g>
																											<g>
																												<path class="st6" d="M670.8,253.1c-0.1,0.1-0.7-0.4-1.6-0.5c-0.9-0.1-1.6,0.3-1.7,0.2
																													c0-0.1,0.1-0.2,0.4-0.4c0.3-0.2,0.8-0.4,1.4-0.3c0.6,0.1,1,0.3,1.3,0.5
																													C670.8,252.9,670.8,253.1,670.8,253.1z"/>
																											</g>
																										</g>
																									</g>
																								</g>
																							</g>
																						</g>
																					</g>
																				</g>
																			</g>
																		</g>
																	</g>
																</g>
															</g>
														</g>
														<g>
															<g>
																<g>
																	<g>
																		<g>
																			<g>
																				<g>
																					<g>
																						<g>
																							<g>
																								<g>
																									<g>
																										<g>
																											<path class="st6" d="M673.5,260.1c0,0,0.6-0.1,1.5-0.1c0.2,0,0.5,0,0.5-0.2c0.1-0.2,0-0.4-0.1-0.7
																												c-0.2-0.6-0.3-1.2-0.5-1.8c-0.7-2.6-1.2-4.7-1.1-4.8s0.8,2.1,1.5,4.7c0.2,0.6,0.3,1.3,0.5,1.8
																												c0.1,0.3,0.2,0.6,0,0.9c-0.1,0.2-0.3,0.3-0.4,0.3c-0.2,0-0.3,0-0.4,0C674,260.2,673.5,260.2,673.5,260.1
																												z"/>
																										</g>
																									</g>
																								</g>
																							</g>
																						</g>
																					</g>
																				</g>
																			</g>
																		</g>
																	</g>
																</g>
															</g>
														</g>
														<g>
															<g>
																<g>
																	<g>
																		<g>
																			<g>
																				<g>
																					<g>
																						<g>
																							<g>
																								<g>
																									<g>
																										<g>
																											<path class="st6" d="M670.7,260.5c0.2,0,0.1,1,0.8,1.8c0.8,0.8,1.8,0.8,1.8,0.9c0,0.1-0.3,0.2-0.7,0.1
																												c-0.4,0-1.1-0.2-1.5-0.7c-0.5-0.5-0.7-1.1-0.7-1.5C670.5,260.8,670.7,260.5,670.7,260.5z"/>
																										</g>
																									</g>
																								</g>
																							</g>
																						</g>
																					</g>
																				</g>
																			</g>
																		</g>
																	</g>
																</g>
															</g>
														</g>
													</g>
												</g>
											</g>
											<g>
												<g>
													<g>
														<g>
															<g>
																<g>
																	<g>
																		<g>
																			<g>
																				<g>
																					<g>
																						<g>
																							<path class="st6" d="M671.3,250.2c-0.1,0.2-1,0-2.1,0.1c-1.1,0-2,0.3-2.1,0c0-0.1,0.1-0.3,0.5-0.5
																								c0.4-0.2,0.9-0.4,1.6-0.4c0.7,0,1.2,0.1,1.6,0.3C671.1,249.9,671.3,250.1,671.3,250.2z"/>
																						</g>
																					</g>
																				</g>
																			</g>
																		</g>
																	</g>
																</g>
															</g>
														</g>
													</g>
												</g>
											</g>
											<g>
												<g>
													<g>
														<g>
															<g>
																<g>
																	<g>
																		<g>
																			<g>
																				<g>
																					<g>
																						<g>
																							<path class="st6" d="M679.7,251.3c-0.2,0.2-0.8-0.1-1.5-0.1c-0.8-0.1-1.4,0-1.5-0.2
																								c-0.1-0.1,0.1-0.3,0.4-0.5c0.3-0.2,0.8-0.3,1.3-0.2c0.5,0.1,1,0.3,1.2,0.5
																								C679.7,251,679.8,251.2,679.7,251.3z"/>
																						</g>
																					</g>
																				</g>
																			</g>
																		</g>
																	</g>
																</g>
															</g>
														</g>
													</g>
												</g>
											</g>
										</g>
									</g>
									<g>
										<g>
											<g>
												<g>
													<g>
														<g>
															<g>
																<g>
																	<g>
																		<g>
																			<g>
																				<g>
																					<g>
																						<path class="st16" d="M660.9,255.4c-0.1-0.1-4-1.6-4.2,2.5c-0.2,4.1,3.9,3.5,3.9,3.3
																							C660.6,261.1,660.9,255.4,660.9,255.4z"/>
																					</g>
																				</g>
																			</g>
																		</g>
																	</g>
																</g>
															</g>
														</g>
													</g>
												</g>
											</g>
										</g>
										<g>
											<g>
												<g>
													<g>
														<g>
															<g>
																<g>
																	<g>
																		<g>
																			<g>
																				<g>
																					<g>
																						<g>
																							<path class="st17" d="M659.4,259.6c0,0-0.1,0-0.2,0.1c-0.1,0-0.3,0.1-0.5,0c-0.4-0.2-0.7-0.9-0.7-1.6
																								c0-0.4,0.1-0.7,0.3-1c0.1-0.3,0.3-0.5,0.6-0.5c0.2,0,0.4,0.1,0.4,0.2s0,0.2,0,0.2c0,0,0.1-0.1,0.1-0.2
																								c0-0.1,0-0.2-0.2-0.3c-0.1-0.1-0.2-0.1-0.4-0.1c-0.3,0-0.6,0.3-0.8,0.6c-0.2,0.3-0.3,0.7-0.3,1.1
																								c0,0.8,0.4,1.6,0.9,1.8c0.3,0.1,0.5,0,0.7-0.1C659.4,259.7,659.5,259.6,659.4,259.6z"/>
																						</g>
																					</g>
																				</g>
																			</g>
																		</g>
																	</g>
																</g>
															</g>
														</g>
													</g>
												</g>
											</g>
										</g>
									</g>
								</g>
							</g>
							<g>
								<g>
									<g>
										<g>
											<g>
												<g>
													<g>
														<g>
															<path class="st6" d="M658.6,255c0.6-0.1,1.7,0.6,1.9,1.2c0.2,0.6,0.2,1.3,0.4,1.9c0.2,0.6,0.8,1.2,1.4,1.1
																c0.4-0.1,0.8-0.4,0.9-0.9c0.2-0.4,0.1-0.9,0.1-1.3c-0.1-1.9-0.3-3.8-0.2-5.7c0.1-1.9,0.5-3.9,1.7-5.4s3.1-2.6,5-2.2
																c1.3,0.2,2.3,1,3.6,1.3c1.5,0.3,3.1-0.1,4.2-1c0.2-0.1,0.8-0.5,0.8-0.5c0-0.1,0-0.9-0.3-1.3c-2.3-2.5-6.7-3.5-10-3
																c-3.3,0.5-6.6,2.6-8.3,5.5C658.1,247.6,658.1,251.9,658.6,255"/>
														</g>
													</g>
												</g>
											</g>
										</g>
									</g>
								</g>
							</g>
						</g>
					</g>
					<g>
						<g>
							<g>
								<path class="st6" d="M682,246.9c-0.6,1.2-2,1.8-3.4,1.8c-1.3,0-2.6-0.4-3.9-0.9c-1.3-0.5-4.7-1.4-6-1.4
									c-0.2,0-0.4,0-0.5-0.2c-0.1-0.2,0.1-0.5,0.3-0.6c1.9-1.2,6.2-1.7,8.5-1.6c2.3,0.1,4.5,1.3,5.6,3.3"/>
							</g>
						</g>
					</g>
					<g>
						<g>
							<g>
								<g>
									<g>
										<path class="st5" d="M681.4,247c0,0-1.6-2.3-4.7-2.7c-4.6-0.6-13.3,1.2-18.2,9.1c0,0-0.7-3.4-0.5-5.3
											c0.1-1.2,1.5-8.3,9-9.9C666.9,238.3,678.4,235,681.4,247z"/>
									</g>
								</g>
							</g>
						</g>
					</g>
					<g>
						<g>
							<g>
								<g>
									<path class="st5" d="M659.2,251.9c2.6-3.3,6-5.9,9.8-7.9c3.8-1.9,9.9-3.6,14-4.3c1.3-0.2,2.5-0.4,3.8-0.1
										c1.2,0.3,2.4,1.3,2.6,2.5c0.3,1.6-2.7,3.7-4,4.5c-1.4,0.8-4.1,1.9-4.1,1.9s0.3-2.8-4.2-3.8
										C670.9,243.5,659.2,251.9,659.2,251.9z"/>
								</g>
							</g>
						</g>
					</g>
				</g>
				<g>
					<g>
						<g>
							<path class="st6" d="M687.6,239.9c0,0.1-0.5-0.2-1.3-0.2c-0.8,0-2.1,0-3.6,0.2c-3,0.5-7.1,1.5-11.4,3.2
								c-4.3,1.7-7.8,4.1-10,6.2c-1.1,1-1.8,2-2.3,2.7s-0.6,1.2-0.7,1.1c0,0,0-0.1,0.1-0.3c0.1-0.2,0.2-0.5,0.4-0.9
								c0.4-0.8,1.1-1.8,2.2-2.9c2.1-2.2,5.7-4.7,10.1-6.4c4.3-1.8,8.5-2.7,11.5-3.1c1.5-0.2,2.8-0.2,3.6-0.1c0.4,0.1,0.8,0.1,1,0.2
								C687.5,239.8,687.6,239.9,687.6,239.9z"/>
						</g>
					</g>
				</g>
				<g>
					<g>
						<g>
							<path class="st3" d="M673,241.5c0,0,2.3-1,4.6-1.1c-0.4-0.4-0.7-0.6-1.2-0.8c-1.2,0.1-2.4,0.3-3.6,0.9L673,241.5z"/>
						</g>
					</g>
				</g>
			</g>
			<g>
				<g>
					<path class="st6" d="M682.1,249c0.4-0.5,0.4-1.2,0.2-1.8c-0.3-0.6-0.9-1-1.5-1c0.9-0.3,1.3-1.4,0.9-2.2
						c-0.4-0.8-1.5-1.2-2.4-0.9s-1.6,1-1.8,1.9c-0.4-0.6-1-0.9-1.7-0.9c-0.7,0-1.3,0.4-1.6,1c-0.1-0.5-0.8-0.8-1.3-0.7
						s-0.9,0.5-1.4,0.8s-0.9,0.6-1.4,0.6l-0.4,0.1c0.5,0.9,1.9,1.3,2.8,0.9c0,0.7,0.5,1.3,1.1,1.5c0.7,0.2,1.4-0.1,1.8-0.7
						c0.2,1.1,1.7,1.6,2.5,0.9c0.4,1.2,2.1,1.7,3.1,0.9c0.5,0.8,0.7,1.8,0.4,2.7c0.7-0.1,1.2-0.7,1.4-1.3
						C682.8,250.1,682.6,249.4,682.1,249z"/>
				</g>
			</g>
			<g>
				<g>
					<path class="st6" d="M665.2,248c-1.4,0.7-2.8,1.3-4,2.2s-2.3,2-3,3.4l2,1.9c0.5,0.2,1,0.4,1.4,0c0.4-0.4,0.7-1,0.6-1.5
						c0.5,0.2,1.2,0,1.5-0.5s0.4-1.1,0.2-1.6c0.4-0.1,0.7-0.4,0.8-0.8c0.1-0.4,0-0.8-0.3-1.1c0.5,0,0.9-0.3,1.1-0.8
						C665.7,248.9,665.5,248.3,665.2,248z"/>
				</g>
			</g>
		</g>
		<g>
			<g>
				<g>
					<g>
						<g>
							<path class="st5" d="M684,277c0,0,5.9,3.5,7.7,6.7c1.8,3.2,11.2,26.2,10.8,30c-0.4,3.8-9.3,6.1-9.3,6.1l-9.3-12l4.2-2.5
								l-4.2-8.1L684,277L684,277z"/>
						</g>
					</g>
				</g>
				<g>
					<g>
						<g>
							<path class="st16" d="M693.3,319.8c0,0-21.5,4.3-29.3-5l2.3-7.9c0,0,14.2,3.4,18.6,1.9L693.3,319.8z"/>
						</g>
					</g>
				</g>
				<g>
					<g>
						<g>
							<path class="st6" d="M695.5,300.7c0.1,0.2-2.5,1.3-5.2,3.3c-2.7,2.1-4.4,4.3-4.6,4.2c0,0,0.3-0.6,1-1.5
								c0.7-0.9,1.8-2,3.2-3.1c1.4-1.1,2.8-1.8,3.8-2.3C694.8,300.9,695.5,300.6,695.5,300.7z"/>
						</g>
					</g>
				</g>
				<g>
					<g>
						<g>
							<path class="st6" d="M688.6,305c-0.1,0.1-0.9-1.7-1.9-3.8c-1-2.1-1.9-3.8-1.8-3.9c0.1-0.1,1.2,1.5,2.2,3.7
								C688.2,303.1,688.7,304.9,688.6,305z"/>
						</g>
					</g>
				</g>
			</g>
			<g>
				<g>
					<g>
						<g>
							<path class="st6" d="M684.7,295.3c0.1,0-0.1-1.5-0.5-3.4c-0.4-1.8-0.8-3.3-0.9-3.3c-0.1,0,0.1,1.5,0.5,3.4
								C684.3,293.9,684.6,295.3,684.7,295.3z"/>
						</g>
					</g>
				</g>
			</g>
		</g>
		<g>
			<g>
				<g>
					<g>
						<g>
							<g>
								<path class="st5" d="M646.2,280c0.4,0.4,6.3,4.3,8.3,11c2,6.7,4.1,13.6,4.1,13.6l7.7,1l-4.3,17.8c0,0-9.3-1-14.4-9.5
									s-8.3-18.9-8.3-18.9S639.9,273.5,646.2,280z"/>
							</g>
						</g>
					</g>
					<g>
						<g>
							<g>
								<path class="st16" d="M663.6,305.3c0,0-3.3-7.3-3.7-7.4s-6.7-2.3-6.7-2.3s-0.3,0.9,0,1.6l-2.3,0.3c0,0,0.3,1.4,1.1,1.6
									l-0.8,0.7c0,0,0.7,0.9,1.5,1.3c0.9,0.4,1.5,0,1.5,0s-0.3,0.5,1,1.3s3.5,2,3.5,2L663.6,305.3z"/>
							</g>
						</g>
						<g>
							<g>
								<path class="st17" d="M658.8,304.4L658.8,304.4c0,0-2.2-1.2-3.5-2c-1.1-0.7-1.1-1.2-1-1.3c-0.2,0.1-0.7,0.3-1.5,0
									c-0.9-0.4-1.5-1.3-1.5-1.3l0,0l0.8-0.7c-0.8-0.2-1.1-1.5-1.1-1.6v0l2.3-0.3c-0.3-0.7,0-1.6,0-1.6l0,0l0,0
									c0.1,0,6.3,2.2,6.7,2.3c0.4,0.1,3.6,7.1,3.7,7.4l0,0L658.8,304.4z M653.2,297.1L653.2,297.1l-2.3,0.3c0,0.2,0.4,1.4,1.1,1.6
									l0,0l-0.8,0.7c0.1,0.1,0.7,0.9,1.5,1.3c0.8,0.4,1.5,0,1.5,0l0,0l0,0c0,0-0.3,0.5,1,1.3c1.3,0.8,3.4,2,3.5,2l4.8,0.9
									c-1.1-2.5-3.3-7.3-3.7-7.4c-0.4-0.1-6.4-2.2-6.7-2.3C653.2,295.7,652.9,296.5,653.2,297.1z"/>
							</g>
						</g>
					</g>
					<g>
						<g>
							<g>
								<g>
									<path class="st17" d="M653.4,297.2c0,0.1,1.8,0.8,4.1,1.6c0.6,0.2,1.2,0.4,1.6,0.6c0.5,0.2,0.7,0.6,0.9,0.9
										c0.4,0.7,0.5,1.2,0.6,1.1c0,0,0-0.5-0.4-1.3c-0.2-0.4-0.5-0.8-1-1.1c-0.5-0.3-1.1-0.4-1.6-0.6
										C655.3,297.6,653.4,297.1,653.4,297.2z"/>
								</g>
							</g>
						</g>
					</g>
					<g>
						<g>
							<g>
								<g>
									<path class="st17" d="M651.9,299c0,0,0.4,0.2,1.1,0.4c0.7,0.2,1.7,0.4,2.8,0.6s2,0.8,2.5,1.2c0.6,0.5,0.8,0.8,0.9,0.8
										c0,0-0.2-0.5-0.7-1c-0.6-0.5-1.5-1-2.6-1.4c-1.1-0.3-2.1-0.4-2.9-0.6C652.4,299.1,651.9,299,651.9,299z"/>
								</g>
							</g>
						</g>
					</g>
					<g>
						<g>
							<g>
								<g>
									<path class="st17" d="M657.7,302.3c0.1-0.1-0.5-0.7-1.5-1c-1-0.4-1.8-0.3-1.8-0.2c0,0.1,0.8,0.2,1.7,0.5
										C657,302,657.6,302.4,657.7,302.3z"/>
								</g>
							</g>
						</g>
					</g>
					<g>
						<g>
							<g>
								<g>
									<path class="st16" d="M665.6,307.5l19.4-9.8l3.5,7.2c0,0-17.9,17.7-26.3,17.5"/>
								</g>
							</g>
						</g>
					</g>
					<g>
						<g>
							<g>
								<g>
									<path class="st6" d="M653.8,287c0,0,0.1,0.6,0.3,1.4s0.5,2.1,0.9,3.4s0.7,2.5,1,3.4s0.5,1.4,0.5,1.4s-0.1-0.6-0.3-1.4
										s-0.5-2.1-0.9-3.4c-0.4-1.3-0.7-2.5-1-3.4C654.1,287.5,653.9,287,653.8,287z"/>
								</g>
							</g>
						</g>
					</g>
					<g>
						<g>
							<g>
								<g>
									<path class="st6" d="M654.7,311.1c0.1,0,0.2-0.9,0.7-2.3c0.2-0.7,0.6-1.5,1.2-2.2c0.6-0.7,1.5-1.4,2.5-1.6
										c1.1-0.1,2.1,0.2,3.1,0.4c0.9,0.2,1.8,0.4,2.5,0.5c0.4,0.1,0.7,0.1,0.9,0.2c0.3,0.1,0.4,0.3,0.5,0.5c0.1,0.4-0.1,0.6,0,0.6
										c0,0,0.3-0.2,0.2-0.6c0-0.2-0.2-0.5-0.5-0.6c-0.3-0.2-0.6-0.2-1-0.3c-0.8-0.2-1.6-0.4-2.5-0.6c-0.9-0.2-2-0.5-3.2-0.4
										c-1.2,0.2-2.1,1-2.7,1.7c-0.6,0.8-0.9,1.6-1.2,2.4c-0.2,0.7-0.3,1.3-0.4,1.7C654.7,310.8,654.6,311.1,654.7,311.1z"/>
								</g>
							</g>
						</g>
					</g>
					<g>
						<g>
							<g>
								<g>
									<path class="st6" d="M652,307.2c0.1,0,0.6-1.4,2.1-2.4c1.5-1,3-1.2,3-1.3c0,0-0.4,0-1,0.1c-0.6,0.1-1.4,0.4-2.2,1
										c-0.8,0.5-1.3,1.2-1.6,1.8C652.1,306.8,652,307.2,652,307.2z"/>
								</g>
							</g>
						</g>
					</g>
					<g>
						<g>
							<g>
								<g>
									<path class="st6" d="M639.3,295c0,0,0,0.1,0.1,0.4c0.1,0.3,0.2,0.6,0.4,1.1c0.3,1,0.8,2.3,1.3,3.9c0.6,1.6,1.3,3.6,2.2,5.7
										c1,2.1,2.1,4.4,3.5,6.6s3,4.3,4.8,5.7c1.8,1.5,3.6,2.6,5.2,3.2c1.6,0.7,3,1,4,1.1c0.5,0.1,0.9,0.1,1.1,0.1
										c0.3,0,0.4,0,0.4,0c0,0-0.5-0.1-1.5-0.2s-2.3-0.5-3.9-1.2c-3.2-1.4-7.2-4.4-9.8-8.9c-1.3-2.3-2.5-4.5-3.5-6.6
										c-1-2.1-1.7-4-2.3-5.7c-0.6-1.6-1.1-3-1.4-3.9c-0.2-0.4-0.3-0.8-0.4-1C639.3,295.1,639.3,294.9,639.3,295z"/>
								</g>
							</g>
						</g>
					</g>
					<g>
						<g>
							<g>
								<g>
									<path class="st6" d="M644.8,280.4c0,0.1,1.5,0.6,3.2,1.6c1.7,1,2.9,2.1,3,2c0.1-0.1-1.1-1.3-2.8-2.3
										C646.4,280.7,644.8,280.3,644.8,280.4z"/>
								</g>
							</g>
						</g>
					</g>
				</g>
				<g>
					<g>
						<g>
							<g>
								<path class="st6" d="M659.5,327.5c0,0,0.3,0.2,1,0.5c0.3,0.1,0.7,0.3,1.2,0.5c0.5,0.2,1,0.4,1.6,0.6
									c1.2,0.4,2.7,0.9,4.3,1.3c1.7,0.4,3.5,0.7,5.5,0.9c2,0.2,3.8,0.2,5.5,0.1c1.7-0.1,3.2-0.3,4.5-0.5c0.6-0.1,1.2-0.2,1.7-0.3
									s0.9-0.2,1.3-0.3c0.7-0.2,1.1-0.3,1.1-0.3c0,0-0.4,0-1.1,0.2c-0.3,0.1-0.8,0.2-1.3,0.2s-1.1,0.2-1.7,0.3
									c-1.3,0.2-2.8,0.3-4.5,0.4c-1.7,0-3.5,0-5.5-0.1c-1.9-0.2-3.8-0.5-5.4-0.8c-1.6-0.4-3.1-0.8-4.3-1.2
									c-0.6-0.2-1.2-0.4-1.6-0.6s-0.9-0.3-1.2-0.5C659.9,327.7,659.5,327.5,659.5,327.5z"/>
							</g>
						</g>
					</g>
				</g>
				<g>
					<g>
						<g>
							<g>
								<path class="st6" d="M675.3,337.6c0,0.1,1.8-0.3,3.9-1c2.1-0.7,3.8-1.5,3.7-1.6c0-0.1-1.7,0.5-3.8,1.3
									C677,337,675.3,337.5,675.3,337.6z"/>
							</g>
						</g>
					</g>
				</g>
				<g class="st15">
					<g>
						<path d="M690.1,320.3c-4.6,0.7-8.9,1.1-13.4,0.2c-1.7-0.3-3.3-0.9-5-0.6c-1.4,0.2-2.6,0.9-3.8,1.5c-4.6,1.9-10.1,1.4-14.2-1.5
							c1.3,2.8,4.3,4.6,7.3,5.1c3.1,0.5,6.2,0,9.2-0.8c1.8-0.5,3.6-1,5.5-1.1c2.4-0.1,4.7,0.7,7,0.8c2.6,0,5.6-0.7,7.7-2.3
							L690.1,320.3z"/>
					</g>
				</g>
				<g class="st15">
					<g>
						<g>
							<g>
								<path d="M682.4,335.7c-2,3.3-5.6,5.6-9.5,6c-0.8,0.1-1.7,0.1-2.5-0.2s-1.5-0.8-1.9-1.6c0.8-0.6,1.9-0.9,2.9-1.2
									c3.6-1,7.2-2,10.8-3"/>
							</g>
						</g>
					</g>
				</g>
			</g>
			<g>
				<g>
					<g>
						<path class="st17" d="M688.3,305.2c0,0-0.3,0.3-0.9,0.9s-1.4,1.4-2.4,2.4c-1,1-2.2,2.3-3.6,3.5s-3.1,2.5-4.8,3.9
							s-3.5,2.5-5.1,3.5c-1.7,1-3.2,1.7-4.6,2.1c-1.4,0.5-2.5,0.7-3.3,0.8c-0.8,0.1-1.3,0.1-1.3,0.1c0-0.1,1.8-0.2,4.5-1.2
							c1.3-0.5,2.9-1.2,4.5-2.2c1.6-1,3.3-2.2,5-3.5c1.7-1.3,3.4-2.6,4.8-3.8s2.6-2.4,3.7-3.4s1.9-1.8,2.5-2.3
							C687.9,305.5,688.2,305.2,688.3,305.2z"/>
					</g>
				</g>
			</g>
		</g>
	</g>
</g>
<g id="Capa_8">
	<path class="st5" d="M342,245.3c-1.8,0-3.6-0.5-5.3-1.4c-3.3-1.9-5.2-5.3-5.2-9.1v-43.1c0-4.8,2.6-9.3,6.7-11.6l21.1-12.2
		c2-1.2,4.6-0.5,5.7,1.5s0.5,4.6-1.5,5.7l-21.1,12.2c-1.6,0.9-2.5,2.6-2.5,4.4v43.1c0,1.1,0.7,1.6,1,1.8c0.3,0.2,1.1,0.6,2.1,0
		l37.2-21.4c1.6-0.9,2.5-2.6,2.5-4.4l0.1-22.8c0-2.3,1.9-4.2,4.2-4.2c0,0,0,0,0,0c2.3,0,4.2,1.9,4.2,4.2l-0.1,22.8
		c0,4.8-2.6,9.2-6.8,11.6l-37.2,21.4C345.6,244.9,343.8,245.3,342,245.3z"/>
	<path class="st5" d="M327.4,245.2c-0.7,0-1.4-0.2-2.1-0.6l-38.5-22.1c-4.1-2.4-6.7-6.8-6.8-11.6l-0.1-12.1c0-2.3,1.9-4.2,4.2-4.2
		c0,0,0,0,0,0c2.3,0,4.2,1.9,4.2,4.2l0.1,12.1c0,1.8,1,3.4,2.5,4.3l38.5,22.1c2,1.2,2.7,3.7,1.5,5.7
		C330.3,244.5,328.9,245.2,327.4,245.2z"/>
	<path class="st5" d="M373.9,144.1l-31.5-17.9c-4.1-2.4-9.3-2.4-13.4,0l-42,24.1c-4.2,2.4-6.8,6.9-6.8,11.7v26.2
		c0,2.3,1.9,4.2,4.2,4.2s4.2-1.9,4.2-4.2V165l36.8,20.4c0.6,0.4,1.3,0.5,2,0.5c1.5,0,2.9-0.8,3.7-2.2c1.1-2,0.4-4.6-1.6-5.7
		l-37.6-20.8l41.3-23.7c1.5-0.9,3.5-0.9,5,0l31.5,18c2,1.1,4.6,0.4,5.7-1.6C376.6,147.8,375.9,145.2,373.9,144.1z"/>
	<g>
		<g>
			<path class="st5" d="M224.5,314.5h-2v-14.1h9.9v1.8h-7.9V314.5z M224.4,307.1h7.2v1.7h-7.2V307.1z"/>
			<path class="st5" d="M241.6,314.5v-10.7h1.8v2.9l-0.2-0.7c0.3-0.7,0.8-1.3,1.5-1.7s1.5-0.6,2.6-0.6v1.9c-0.1,0-0.2,0-0.2,0
				s-0.1,0-0.2,0c-1,0-1.8,0.3-2.4,0.9s-0.9,1.5-0.9,2.7v5.3L241.6,314.5L241.6,314.5z"/>
			<path class="st5" d="M257.4,301.8c-0.4,0-0.7-0.1-0.9-0.4s-0.4-0.5-0.4-0.9c0-0.4,0.1-0.7,0.4-0.9s0.6-0.4,0.9-0.4
				s0.7,0.1,0.9,0.4s0.4,0.5,0.4,0.9c0,0.4-0.1,0.7-0.4,0.9C258.1,301.6,257.8,301.8,257.4,301.8z M256.4,314.5v-10.7h1.9v10.7
				H256.4z"/>
			<path class="st5" d="M273.3,314.6c-1.1,0-2-0.2-2.8-0.7s-1.5-1.1-2-2s-0.7-1.8-0.7-2.8c0-1.1,0.2-2,0.7-2.8s1.1-1.5,2-1.9
				c0.8-0.5,1.8-0.7,2.8-0.7c1,0,2,0.2,2.8,0.7c0.8,0.5,1.5,1.1,2,1.9c0.5,0.8,0.7,1.8,0.7,2.8c0,1.1-0.2,2-0.7,2.8
				c-0.5,0.8-1.1,1.5-2,1.9C275.3,314.4,274.4,314.6,273.3,314.6z M273.3,312.9c0.7,0,1.3-0.1,1.8-0.5c0.5-0.3,1-0.8,1.3-1.3
				s0.5-1.2,0.5-2c0-0.8-0.1-1.4-0.5-2s-0.7-1-1.3-1.3c-0.5-0.3-1.1-0.5-1.8-0.5s-1.3,0.2-1.8,0.5c-0.5,0.3-1,0.7-1.3,1.3
				s-0.5,1.2-0.5,2c0,0.8,0.2,1.4,0.5,2c0.3,0.6,0.8,1,1.3,1.3C272,312.8,272.6,312.9,273.3,312.9z"/>
			<path class="st5" d="M291.3,314.6c-0.9,0-1.7-0.1-2.5-0.4s-1.4-0.5-1.9-0.9l0.8-1.5c0.5,0.3,1,0.6,1.7,0.8c0.7,0.2,1.4,0.3,2,0.3
				c0.9,0,1.5-0.1,1.9-0.4c0.4-0.3,0.6-0.6,0.6-1.1c0-0.3-0.1-0.6-0.4-0.8s-0.6-0.3-1-0.4c-0.4-0.1-0.8-0.2-1.3-0.3s-1-0.2-1.4-0.3
				s-0.9-0.3-1.3-0.5c-0.4-0.2-0.7-0.5-1-0.9s-0.4-0.9-0.4-1.5c0-0.6,0.2-1.2,0.5-1.7c0.4-0.5,0.9-0.9,1.5-1.1s1.4-0.4,2.4-0.4
				c0.7,0,1.4,0.1,2.1,0.3s1.3,0.4,1.8,0.7l-0.8,1.5c-0.5-0.3-1-0.5-1.5-0.7c-0.5-0.1-1-0.2-1.6-0.2c-0.8,0-1.5,0.1-1.9,0.4
				c-0.4,0.3-0.6,0.6-0.6,1.1c0,0.4,0.1,0.6,0.4,0.8c0.3,0.2,0.6,0.4,1,0.5s0.8,0.2,1.3,0.3c0.5,0.1,1,0.2,1.4,0.3s0.9,0.3,1.3,0.5
				c0.4,0.2,0.7,0.5,1,0.9c0.3,0.4,0.4,0.9,0.4,1.5c0,0.6-0.2,1.2-0.6,1.7s-0.9,0.8-1.6,1.1C293.1,314.5,292.3,314.6,291.3,314.6z"
				/>
			<path class="st5" d="M321.7,314.6c-1,0-1.9-0.2-2.8-0.7s-1.4-1.1-1.9-1.9s-0.7-1.8-0.7-2.9s0.2-2,0.7-2.9s1.1-1.5,1.9-1.9
				s1.7-0.7,2.8-0.7c0.9,0,1.7,0.2,2.4,0.6c0.7,0.4,1.3,1,1.7,1.8c0.4,0.8,0.6,1.8,0.6,3s-0.2,2.2-0.6,3s-1,1.4-1.7,1.8
				S322.6,314.6,321.7,314.6z M321.8,312.9c0.7,0,1.3-0.1,1.8-0.5s1-0.8,1.3-1.3s0.5-1.2,0.5-2c0-0.8-0.2-1.4-0.5-2s-0.7-1-1.3-1.3
				s-1.1-0.5-1.8-0.5c-0.7,0-1.3,0.2-1.8,0.5c-0.5,0.3-1,0.7-1.3,1.3s-0.5,1.2-0.5,2c0,0.8,0.2,1.4,0.5,2c0.3,0.6,0.8,1,1.3,1.3
				S321.1,312.9,321.8,312.9z M325.4,314.5v-2.9l0.1-2.5l-0.2-2.5v-7.1h1.9v15L325.4,314.5L325.4,314.5z"/>
			<path class="st5" d="M342.4,314.6c-1.1,0-2.1-0.2-3-0.7s-1.5-1.1-2-1.9s-0.7-1.8-0.7-2.8c0-1.1,0.2-2,0.7-2.8s1.1-1.5,1.9-1.9
				c0.8-0.5,1.7-0.7,2.7-0.7c1,0,1.9,0.2,2.7,0.7s1.4,1.1,1.9,1.9s0.7,1.8,0.7,2.9c0,0.1,0,0.2,0,0.3c0,0.1,0,0.2,0,0.3h-9v-1.4h8
				l-0.8,0.5c0-0.7-0.1-1.3-0.4-1.8s-0.7-1-1.2-1.3c-0.5-0.3-1.1-0.5-1.8-0.5c-0.7,0-1.3,0.1-1.8,0.5s-0.9,0.7-1.2,1.3
				s-0.4,1.2-0.4,1.9v0.3c0,0.7,0.2,1.4,0.5,1.9s0.8,1,1.4,1.3s1.3,0.5,2,0.5c0.6,0,1.2-0.1,1.7-0.3c0.5-0.2,1-0.5,1.4-1l1.1,1.3
				c-0.5,0.6-1.1,1-1.8,1.3C344.1,314.5,343.3,314.6,342.4,314.6z"/>
			<path class="st5" d="M356.8,314.5v-15h1.9v15H356.8z"/>
			<path class="st5" d="M384.1,314.5l-4.6-10.7h2l4.1,9.7h-1l4.2-9.7h1.9l-4.6,10.7H384.1z"/>
			<path class="st5" d="M402,314.6c-0.8,0-1.5-0.1-2.1-0.4s-1-0.6-1.4-1.1c-0.3-0.5-0.5-1-0.5-1.6c0-0.6,0.1-1.1,0.4-1.6
				s0.7-0.9,1.3-1.1s1.5-0.4,2.5-0.4h3.4v1.4h-3.3c-1,0-1.6,0.2-1.9,0.5c-0.3,0.3-0.5,0.7-0.5,1.2c0,0.5,0.2,1,0.6,1.3
				c0.4,0.3,1,0.5,1.7,0.5c0.7,0,1.4-0.2,1.9-0.5s0.9-0.8,1.2-1.4l0.4,1.3c-0.3,0.6-0.7,1.1-1.3,1.5
				C403.8,314.5,403,314.6,402,314.6z M405.5,314.5v-2.3l-0.1-0.4V308c0-0.8-0.2-1.5-0.7-1.9s-1.2-0.7-2.1-0.7
				c-0.6,0-1.2,0.1-1.8,0.3s-1.1,0.5-1.5,0.8l-0.8-1.5c0.5-0.4,1.2-0.8,2-1s1.6-0.4,2.4-0.4c1.5,0,2.6,0.4,3.4,1.1
				c0.8,0.7,1.2,1.8,1.2,3.3v6.5L405.5,314.5L405.5,314.5z"/>
			<path class="st5" d="M417.7,314.5v-15h1.9v15H417.7z"/>
			<path class="st5" d="M430.1,314.5v-15h1.9v15H430.1z"/>
			<path class="st5" d="M447.2,314.6c-1.1,0-2.1-0.2-3-0.7s-1.5-1.1-2-1.9s-0.7-1.8-0.7-2.8c0-1.1,0.2-2,0.7-2.8s1.1-1.5,1.9-1.9
				c0.8-0.5,1.7-0.7,2.7-0.7c1,0,1.9,0.2,2.7,0.7s1.4,1.1,1.8,1.9s0.7,1.8,0.7,2.9c0,0.1,0,0.2,0,0.3c0,0.1,0,0.2,0,0.3h-9v-1.4h8
				l-0.8,0.5c0-0.7-0.1-1.3-0.4-1.8s-0.7-1-1.2-1.3c-0.5-0.3-1.1-0.5-1.8-0.5c-0.7,0-1.3,0.1-1.8,0.5s-0.9,0.7-1.2,1.3
				s-0.4,1.2-0.4,1.9v0.3c0,0.7,0.2,1.4,0.5,1.9s0.8,1,1.4,1.3c0.6,0.3,1.3,0.5,2,0.5c0.6,0,1.2-0.1,1.7-0.3c0.5-0.2,1-0.5,1.3-1
				l1.1,1.3c-0.5,0.6-1.1,1-1.8,1.3C448.8,314.5,448,314.6,447.2,314.6z"/>
		</g>
	</g>
	<g>
		<path d="M236.8,295h-14.3v-42.4h34.4v10.8h-20.1V295z M235.8,270.7h18.6v10.8h-18.6V270.7z"/>
		<path d="M260.9,295v-42.4h20.4c4,0,7.4,0.6,10.3,1.9c2.9,1.3,5.1,3.1,6.7,5.5s2.4,5.2,2.4,8.5c0,3.3-0.8,6.1-2.4,8.5
			c-1.6,2.4-3.8,4.2-6.7,5.4s-6.3,1.9-10.3,1.9h-12.5l6.4-5.9V295L260.9,295L260.9,295z M275.2,280.1l-6.4-6.5h11.6
			c2,0,3.4-0.4,4.4-1.3c1-0.9,1.4-2.1,1.4-3.6s-0.5-2.7-1.4-3.6s-2.4-1.3-4.4-1.3h-11.6l6.4-6.5V280.1z M286.3,295l-10.4-15.4H291
			l10.5,15.4H286.3z"/>
		<path d="M305.4,295v-42.4h14.3V295H305.4z"/>
		<path d="M339.3,295l-17.9-42.4h15.4l14.6,35.8h-9.1l15-35.8h14L353.3,295H339.3z"/>
		<path d="M365.9,295l18.5-42.4h14L417,295h-14.8l-13.7-35.6h5.6L380.4,295H365.9z M376.9,287.6l3.6-10.3H400l3.6,10.3H376.9z"/>
		<path d="M418.7,295v-42.4H433v31.3h19.1V295L418.7,295L418.7,295z"/>
	</g>
</g>
</svg>
