<?xml version="1.0" encoding="utf-8"?>
<!-- Generator: Adobe Illustrator 24.1.1, SVG Export Plug-In . SVG Version: 6.00 Build 0)  -->
<svg version="1.1" id="Capa_2" xmlns="http://www.w3.org/2000/svg" xmlns:xlink="http://www.w3.org/1999/xlink" x="0px" y="0px"
	 viewBox="0 0 266 289" style="enable-background:new 0 0 266 289;" xml:space="preserve">
<style type="text/css">
	.st0{fill:#2E9AD6;}
	.st1{display:none;}
	.st2{display:none;fill:#FFFFFF;}
	.st3{font-family:'Montserrat-Black';}
	.st4{font-size:144px;}
	.st5{letter-spacing:-1;}
</style>
<g id="Capa_3">
	<g>
		<path class="st0" d="M148,288.14c-4.31,0-8.61-1.14-12.53-3.41c-7.81-4.52-12.47-12.61-12.47-21.63V160.7
			c0-11.4,6.13-22.02,16-27.71l50.14-28.95c4.78-2.76,10.9-1.12,13.66,3.66c2.76,4.78,1.12,10.9-3.66,13.66L149,150.31
			c-3.7,2.14-6,6.12-6,10.39v102.4c0,2.6,1.74,3.89,2.49,4.33s2.74,1.3,4.99,0.01l88.54-50.8c3.7-2.12,6.01-6.09,6.03-10.36
			l0.23-54.32c0.02-5.51,4.5-9.96,10-9.96c0.01,0,0.03,0,0.04,0c5.52,0.02,9.98,4.52,9.96,10.04l-0.23,54.32
			c-0.05,11.38-6.21,21.96-16.08,27.62l-88.54,50.8C156.54,287.02,152.27,288.14,148,288.14z"/>
		<path class="st0" d="M113.42,287.91c-1.69,0-3.4-0.43-4.98-1.33l-91.48-52.61c-9.82-5.65-15.97-16.19-16.05-27.52l-0.2-28.67
			c-0.04-5.52,4.41-10.03,9.93-10.07c0.02,0,0.05,0,0.07,0c5.49,0,9.96,4.43,10,9.93l0.2,28.67c0.03,4.25,2.33,8.2,6.02,10.32
			l91.48,52.61c4.79,2.75,6.44,8.87,3.68,13.65C120.24,286.1,116.88,287.91,113.42,287.91z"/>
		<path class="st0" d="M223.95,47.31l-75.02-42.7c-9.82-5.64-22.03-5.64-31.85,0l-100,57.38C7.16,67.67,1,78.31,1,89.74V152
			c0,5.52,4.48,10,10,10s10-4.48,10-10V96.97l87.58,48.47c1.53,0.85,3.19,1.25,4.83,1.25c3.52,0,6.93-1.86,8.76-5.16
			c2.67-4.83,0.93-10.92-3.91-13.59L28.7,78.37l98.33-56.42c3.68-2.11,8.26-2.11,11.97,0.02l75.05,42.72
			c4.8,2.73,10.91,1.06,13.64-3.74C230.42,56.15,228.75,50.04,223.95,47.31z"/>
	</g>
</g>
<g class="st1">
	
		<text transform="matrix(0.9909 0 0 1 -141.0684 452.7051)" style="display:inline;fill:#2E9AD6; font-family:'Montserrat-Medium'; font-size:48px; letter-spacing:16.15;">Frios del valle</text>
</g>
<text transform="matrix(1 0 0 1 -147.248 406.3535)" class="st2 st3 st4 st5">FRIVAL</text>
</svg>
