<?xml version="1.0" encoding="utf-8"?>
<!-- Generator: Adobe Illustrator 24.1.1, SVG Export Plug-In . SVG Version: 6.00 Build 0)  -->
<svg version="1.1" id="Capa_2_1_" xmlns="http://www.w3.org/2000/svg" xmlns:xlink="http://www.w3.org/1999/xlink" x="0px" y="0px"
	 viewBox="0 0 266 289" style="enable-background:new 0 0 266 289;" xml:space="preserve">
<style type="text/css">
	.st0{fill:#FFFFFF;}
	.st1{display:none;}
	.st2{display:none;fill:#FFFFFF;enable-background:new    ;}
	.st3{font-family:'Montserrat-Black';}
	.st4{font-size:144px;}
</style>
<g id="Capa_3">
	<g>
		<path class="st0" d="M148,288.1c-4.3,0-8.6-1.1-12.5-3.4c-7.8-4.5-12.5-12.6-12.5-21.6V160.7c0-11.4,6.1-22,16-27.7l50.1-28.9
			c4.8-2.8,10.9-1.1,13.7,3.7c2.8,4.8,1.1,10.9-3.7,13.7L149,150.3c-3.7,2.1-6,6.1-6,10.4v102.4c0,2.6,1.7,3.9,2.5,4.3s2.7,1.3,5,0
			l88.5-50.8c3.7-2.1,6-6.1,6-10.4l0.2-54.3c0-5.5,4.5-10,10-10c0,0,0,0,0,0c5.5,0,10,4.5,10,10l-0.2,54.3c0,11.4-6.2,22-16.1,27.6
			l-88.5,50.8C156.5,287,152.3,288.1,148,288.1z"/>
		<path class="st0" d="M113.4,287.9c-1.7,0-3.4-0.4-5-1.3L17,234c-9.8-5.6-16-16.2-16-27.5l-0.2-28.7c0-5.5,4.4-10,9.9-10.1
			c0,0,0.1,0,0.1,0c5.5,0,10,4.4,10,9.9l0.2,28.7c0,4.3,2.3,8.2,6,10.3l91.5,52.6c4.8,2.8,6.4,8.9,3.7,13.6
			C120.2,286.1,116.9,287.9,113.4,287.9z"/>
		<path class="st0" d="M223.9,47.3l-75-42.7c-9.8-5.6-22-5.6-31.8,0L17.1,62C7.2,67.7,1,78.3,1,89.7V152c0,5.5,4.5,10,10,10
			s10-4.5,10-10V97l87.6,48.5c1.5,0.9,3.2,1.3,4.8,1.3c3.5,0,6.9-1.9,8.8-5.2c2.7-4.8,0.9-10.9-3.9-13.6L28.7,78.4L127,22
			c3.7-2.1,8.3-2.1,12,0l75.1,42.7c4.8,2.7,10.9,1.1,13.6-3.7S228.8,50,223.9,47.3z"/>
	</g>
</g>
<g class="st1">
	
		<text transform="matrix(0.9909 0 0 1 -141.0684 452.7051)" style="display:inline;fill:#FFFFFF; font-family:'Montserrat-Medium'; font-size:48px; letter-spacing:15.1;">Frios del valle</text>
</g>
<text transform="matrix(1 0 0 1 -147.248 406.3535)" class="st2 st3 st4">FRIVAL</text>
</svg>
